<?xml version="1.0" encoding="utf-8"?>
<!-- Generator: Adobe Illustrator 26.5.0, SVG Export Plug-In . SVG Version: 6.00 Build 0)  -->
<svg version="1.1" id="Layer_1" xmlns="http://www.w3.org/2000/svg" xmlns:xlink="http://www.w3.org/1999/xlink" x="0px" y="0px"
	 width="493.4px" height="388.1px" viewBox="0 0 493.4 388.1" style="enable-background:new 0 0 493.4 388.1;" xml:space="preserve"
	>
<style type="text/css">
	.st0{fill:#989795;}
	.st1{fill:#323896;}
</style>
<g>
	<g>
		<g>
			<path class="st0" d="M386.4,353.3c-13.3-13.1-26.3-25.9-39.3-38.7c-0.7,0.7-0.5,1.4-0.5,2c0,9.6,0,19.2,0,28.9
				c0,3.3-1,4.3-4.3,4.3c-2.2,0-4.3,0-6.6,0c0-20.6,0-41,0-62c13.4,13.6,26.5,26.8,39.5,40c0.6-0.6,0.4-1.2,0.4-1.8
				c0-9.7,0-19.4,0-29.2c0-3.4,0.9-4.3,4.3-4.3c1.9,0,3.8,0,5.7,0.1c0.2,0,0.4,0.1,0.7,0.2C386.4,312.7,386.4,332.7,386.4,353.3z"/>
			<path class="st0" d="M144.6,330.9c5.4,6.3,10.5,12.3,16,18.6c-3,0.3-5.5-0.3-8-0.5c-6.1-0.6-9.7-4.7-13.3-9.1
				c-4.2-5.2-8.6-10.2-12.9-15.4c-0.3-0.3-0.7-0.6-0.7-1.2c0.5-0.5,1.1-0.3,1.7-0.3c4.1-0.2,8.2,0.3,12.2-0.3
				c7.9-1.3,11.6-9.6,7.1-16.2c-2.1-3.1-5.5-4-9-4.2c-4.5-0.2-9.1-0.1-13.6-0.1c-0.3,0-0.6,0.1-0.8,0.2c-0.5,0.8-0.3,1.6-0.3,2.4
				c0,13.3,0,26.7,0,40c0,4.2-0.6,4.8-4.8,4.8c-2,0-4,0-5.8,0c-0.8-0.7-0.6-1.4-0.6-2.1c0-16.8,0-33.6,0-50.5c0-3.4,1.2-4.6,4.6-4.6
				c7.2,0,14.4-0.1,21.6,0c5.6,0.1,11,1.3,15.3,5.2c5.8,5.1,6.8,11.9,5.4,19.1c-1,5.5-3.9,9.8-8.9,12.5
				C148.3,330.2,146.6,330.4,144.6,330.9z"/>
			<path class="st0" d="M89.2,349.4c-1.5,0.4-2.7,0-3.8-0.1c-2-0.2-3.9-0.7-5.7-1.4c-2.7-1-4.7-2.8-6-5.5c-4.9-10.1-10-20.1-15-30.1
				c-0.1-0.1-0.2-0.2-0.3-0.4c-0.8,0.5-1.1,1.4-1.4,2.1c-4.6,9.1-9.4,18.2-13.7,27.5c-2,4.4-5.4,6.4-9.7,7.5c-1.8,0.4-3.6,0.8-6,0.7
				c10.3-20.2,20.5-40.1,30.9-60.5C68.8,309.4,79,329.3,89.2,349.4z"/>
			<path class="st0" d="M469.7,348.7c-1.3,0.7-2.4,0.3-3.5,0.2c-2.2-0.2-4.2-0.8-6.3-1.5c-4.4-1.4-5.7-5.3-7.5-8.8
				c-4.6-8.8-9.1-17.5-13.7-26.3c-0.1-0.2-0.3-0.4-0.7-0.8c-0.7,1.5-1.4,2.8-2,4.1c-4.6,9.4-9.1,18.9-13.7,28.3
				c-0.5,1-1.2,1.8-2.1,2.5c-3.6,2.5-7.6,3.2-12.2,3.7c10-20.4,19.8-40.5,29.9-61.1C448.7,309.3,459.2,328.9,469.7,348.7z"/>
			<path class="st0" d="M284.4,311.6c-1.4,2.7-2.7,5.2-3.9,7.6c-4.1,8.2-8.3,16.5-12.4,24.7c-0.9,1.9-2.7,2.8-4.5,3.6
				c-3,1.3-6.1,1.8-9.8,2.1c10.4-20.3,20.6-40.2,30.9-60.6c10.4,20.4,20.6,40.3,30.8,60.2c-1.1,0.7-2,0.2-2.9,0.1
				c-2.9-0.2-5.7-1-8.3-2.2c-2-1-3.3-2.7-4.3-4.7c-4.9-10-9.9-19.9-14.9-29.9C285,312.3,284.8,312.1,284.4,311.6z"/>
			<path class="st0" d="M203,317.6c2.3-2.5,4.7-5.2,7-7.7c3.7-4.1,7.6-8,11.2-12.3c2.9-3.5,6.7-4.8,11-5.1c1.9-0.1,3.9,0,5.8,0
				c0.1,0.2,0.1,0.3,0.2,0.5c-7.5,8.2-15,16.4-22.7,24.9c8.9,10.5,17.6,21,26.3,31.4c-0.2,0.6-0.6,0.7-0.9,0.6
				c-2.2-0.2-4.4-0.4-6.6-0.7c-4.5-0.6-8.2-2.5-11.1-6.2c-6.2-7.8-12.6-15.4-19-23.1C203.8,319.3,203.2,318.7,203,317.6z"/>
			<path class="st0" d="M189.1,349.4c-0.4-0.8-0.3-1.4-0.3-2.1c0-16.9,0-33.8,0-50.6c0-3.7,0.5-4.2,4.3-4.2c2.2,0,4.5,0,6.9,0
				c0,0.7,0.1,1.2,0.1,1.7c0,17.1,0,34.2,0,51.2c0,3.3-0.8,4.2-4.2,4.2c-2.1,0-4.1,0-6.2,0C189.5,349.6,189.3,349.5,189.1,349.4z"/>
		</g>
	</g>
	<path class="st1" d="M345.4,225.5c-4.9,1.5-8.8,0.1-12.6-0.3c-6.5-0.6-12.8-2.4-18.9-4.7c-9.1-3.4-15.4-9.1-19.9-18.3
		c-16.1-33.4-33-66.5-49.7-99.7c-0.2-0.4-0.6-0.8-1.1-1.4c-2.8,1.7-3.5,4.5-4.7,6.9c-15.2,30.2-30.9,60.2-45.2,90.8
		c-6.8,14.5-17.9,21.2-32.2,24.7c-5.9,1.4-12,2.6-20,2.5c34.1-66.8,67.8-132.6,102.2-200C277.7,93.3,311.4,159.2,345.4,225.5z"/>
</g>
</svg>
