<svg width="163" height="25" viewBox="0 0 163 25" fill="none" xmlns="http://www.w3.org/2000/svg">
<path d="M8.44516 24.096C6.80249 24.096 5.35182 23.744 4.09316 23.04C2.83449 22.3147 1.84249 21.312 1.11716 20.032C0.391825 18.752 0.0291581 17.3013 0.0291581 15.68C0.0291581 14.0373 0.359825 12.5867 1.02116 11.328C1.70382 10.0693 2.63182 9.07733 3.80516 8.352C4.99983 7.62667 6.34383 7.264 7.83716 7.264C9.30916 7.264 10.6318 7.616 11.8052 8.32C12.9998 9.024 13.9278 10.0053 14.5892 11.264C15.2718 12.5013 15.6132 13.9307 15.6132 15.552C15.6132 15.5947 15.6132 15.648 15.6132 15.712C15.6132 15.7547 15.6132 15.7973 15.6132 15.84H0.733158V14.976H15.0372L14.6212 15.488C14.6212 14.1013 14.3225 12.864 13.7252 11.776C13.1492 10.6667 12.3492 9.80267 11.3252 9.184C10.3012 8.544 9.13849 8.224 7.83716 8.224C6.53583 8.224 5.37316 8.544 4.34916 9.184C3.32516 9.80267 2.51449 10.6667 1.91716 11.776C1.34116 12.864 1.05316 14.112 1.05316 15.52V15.712C1.05316 17.1627 1.37316 18.4533 2.01316 19.584C2.65316 20.6933 3.52783 21.568 4.63716 22.208C5.74649 22.8267 7.01583 23.136 8.44516 23.136C9.53316 23.136 10.5572 22.9333 11.5172 22.528C12.4985 22.1227 13.3092 21.504 13.9492 20.672L14.6212 21.376C13.8745 22.272 12.9572 22.9547 11.8692 23.424C10.8025 23.872 9.66116 24.096 8.44516 24.096ZM23.2234 24.096C21.6874 24.096 20.3007 23.744 19.0634 23.04C17.8474 22.3147 16.8767 21.3227 16.1514 20.064C15.4474 18.784 15.0954 17.3227 15.0954 15.68C15.0954 14.016 15.4474 12.5653 16.1514 11.328C16.8767 10.0693 17.8474 9.07733 19.0634 8.352C20.3007 7.62667 21.6874 7.264 23.2234 7.264C24.7167 7.264 26.0607 7.616 27.2554 8.32C28.4501 9.024 29.3887 10.0053 30.0714 11.264C30.7754 12.5227 31.1274 13.9947 31.1274 15.68C31.1274 17.344 30.7754 18.816 30.0714 20.096C29.3887 21.376 28.4501 22.368 27.2554 23.072C26.0607 23.7547 24.7167 24.096 23.2234 24.096ZM23.2554 23.136C24.6207 23.136 25.8367 22.8267 26.9034 22.208C27.9701 21.568 28.8127 20.6827 29.4314 19.552C30.0501 18.4213 30.3594 17.1307 30.3594 15.68C30.3594 14.208 30.0501 12.9173 29.4314 11.808C28.8127 10.6773 27.9701 9.80267 26.9034 9.184C25.8367 8.56533 24.6207 8.256 23.2554 8.256C21.9114 8.256 20.7061 8.56533 19.6394 9.184C18.5727 9.80267 17.7194 10.6773 17.0794 11.808C16.4607 12.9173 16.1514 14.208 16.1514 15.68C16.1514 17.1307 16.4607 18.4213 17.0794 19.552C17.7194 20.6827 18.5727 21.568 19.6394 22.208C20.7061 22.8267 21.9114 23.136 23.2554 23.136ZM30.3914 24V18.176L30.6794 15.648L30.3594 13.12V0.255999H31.4154V24H30.3914ZM39.2827 24.096C37.64 24.096 36.1893 23.744 34.9307 23.04C33.672 22.3147 32.68 21.312 31.9547 20.032C31.2293 18.752 30.8667 17.3013 30.8667 15.68C30.8667 14.0373 31.1973 12.5867 31.8587 11.328C32.5413 10.0693 33.4693 9.07733 34.6427 8.352C35.8373 7.62667 37.1813 7.264 38.6747 7.264C40.1467 7.264 41.4693 7.616 42.6427 8.32C43.8373 9.024 44.7653 10.0053 45.4267 11.264C46.1093 12.5013 46.4507 13.9307 46.4507 15.552C46.4507 15.5947 46.4507 15.648 46.4507 15.712C46.4507 15.7547 46.4507 15.7973 46.4507 15.84H31.5707V14.976H45.8747L45.4587 15.488C45.4587 14.1013 45.16 12.864 44.5627 11.776C43.9867 10.6667 43.1867 9.80267 42.1627 9.184C41.1387 8.544 39.976 8.224 38.6747 8.224C37.3733 8.224 36.2107 8.544 35.1867 9.184C34.1627 9.80267 33.352 10.6667 32.7547 11.776C32.1787 12.864 31.8907 14.112 31.8907 15.52V15.712C31.8907 17.1627 32.2107 18.4533 32.8507 19.584C33.4907 20.6933 34.3653 21.568 35.4747 22.208C36.584 22.8267 37.8533 23.136 39.2827 23.136C40.3707 23.136 41.3947 22.9333 42.3547 22.528C43.336 22.1227 44.1467 21.504 44.7867 20.672L45.4587 21.376C44.712 22.272 43.7947 22.9547 42.7067 23.424C41.64 23.872 40.4987 24.096 39.2827 24.096ZM53.7409 7.264C55.1062 7.264 56.2796 7.53067 57.2609 8.064C58.2636 8.59733 59.0422 9.38667 59.5969 10.432C60.1516 11.456 60.4289 12.7253 60.4289 14.24V24H59.3729V14.304C59.3729 12.32 58.8716 10.816 57.8689 9.792C56.8662 8.768 55.4582 8.256 53.6449 8.256C52.2582 8.256 51.0636 8.53333 50.0609 9.088C49.0582 9.64267 48.2902 10.432 47.7569 11.456C47.2236 12.48 46.9569 13.6747 46.9569 15.04V24H45.9009V7.392H46.9249V12.064L46.7969 11.776C47.3089 10.3893 48.1516 9.29067 49.3249 8.48C50.5196 7.66933 51.9916 7.264 53.7409 7.264ZM61.9624 3.384C61.9624 2.424 61.7864 1.776 61.4344 1.44C61.0824 1.088 60.6024 0.911998 59.9944 0.911998V0.575998H75.2824L76.0504 7.008H75.7624C75.5704 5.76 75.3144 4.744 74.9944 3.96C74.6744 3.176 74.2984 2.56 73.8664 2.112C73.4344 1.648 72.9384 1.336 72.3784 1.176C71.8344 0.999999 71.2264 0.911998 70.5544 0.911998H66.0904V7.872C67.6424 7.872 68.9864 8.104 70.1224 8.568C71.2744 9.032 72.2824 9.64 73.1464 10.392C74.0104 11.144 74.7624 12.008 75.4024 12.984C76.0584 13.944 76.6664 14.928 77.2264 15.936C77.7864 16.944 78.3304 17.936 78.8584 18.912C79.4024 19.872 79.9944 20.728 80.6344 21.48C81.2744 22.232 81.9944 22.84 82.7944 23.304C83.6104 23.768 84.5704 24 85.6744 24C86.2344 24 86.7944 23.952 87.3544 23.856C87.9144 23.744 88.4184 23.536 88.8664 23.232C89.3144 22.928 89.6824 22.496 89.9704 21.936C90.2584 21.36 90.4024 20.608 90.4024 19.68C90.4024 18.608 90.1064 17.696 89.5144 16.944C88.9224 16.192 88.1784 15.52 87.2824 14.928C86.3864 14.32 85.4184 13.736 84.3784 13.176C83.3544 12.616 82.3944 11.992 81.4984 11.304C80.6024 10.616 79.8584 9.808 79.2664 8.88C78.6744 7.952 78.3784 6.824 78.3784 5.496C78.3784 4.648 78.5464 3.904 78.8824 3.264C79.2344 2.608 79.6984 2.056 80.2744 1.608C80.8504 1.16 81.5144 0.823999 82.2664 0.599999C83.0184 0.359999 83.8104 0.239998 84.6424 0.239998C85.3464 0.239998 86.0184 0.271998 86.6584 0.335999C87.2984 0.383999 87.9384 0.495999 88.5784 0.671999C89.2344 0.847999 89.8984 1.096 90.5704 1.416C91.2584 1.736 91.9944 2.152 92.7784 2.664L90.9784 7.656L90.7624 7.608C90.7944 6.344 90.6504 5.272 90.3304 4.392C90.0104 3.496 89.5704 2.768 89.0104 2.208C88.4664 1.632 87.8344 1.216 87.1144 0.959999C86.3944 0.703999 85.6584 0.575998 84.9064 0.575998C84.3784 0.575998 83.8904 0.639998 83.4424 0.767999C82.9944 0.879999 82.6024 1.072 82.2664 1.344C81.9304 1.6 81.6664 1.928 81.4744 2.328C81.2824 2.728 81.1864 3.216 81.1864 3.792C81.1864 4.528 81.3544 5.176 81.6904 5.736C82.0424 6.28 82.4984 6.784 83.0584 7.248C83.6344 7.696 84.2824 8.12 85.0024 8.52C85.7384 8.92 86.4824 9.328 87.2344 9.744C88.0024 10.16 88.7464 10.608 89.4664 11.088C90.2024 11.568 90.8504 12.12 91.4104 12.744C91.9864 13.352 92.4424 14.056 92.7784 14.856C93.1304 15.656 93.3064 16.592 93.3064 17.664C93.3064 18.672 93.1624 19.536 92.8744 20.256C92.5864 20.976 92.2104 21.592 91.7464 22.104C91.2824 22.6 90.7624 23 90.1864 23.304C89.6104 23.608 89.0344 23.84 88.4584 24C87.8824 24.144 87.3384 24.24 86.8264 24.288C86.3144 24.336 85.8904 24.352 85.5544 24.336C84.3704 24.288 83.2904 24.024 82.3144 23.544C81.3544 23.048 80.4664 22.416 79.6504 21.648C78.8344 20.88 78.0744 20.016 77.3704 19.056C76.6824 18.08 76.0024 17.096 75.3304 16.104C74.6744 15.112 74.0104 14.144 73.3384 13.2C72.6824 12.24 71.9864 11.392 71.2504 10.656C70.5144 9.904 69.7224 9.304 68.8744 8.856C68.0424 8.392 67.1144 8.16 66.0904 8.16V23.664H69.7624C70.4344 23.664 71.0424 23.584 71.5864 23.424C72.1464 23.248 72.6424 22.936 73.0744 22.488C73.5224 22.024 73.8984 21.4 74.2024 20.616C74.5224 19.832 74.7784 18.816 74.9704 17.568H75.2824L74.4904 24H59.9944V23.664C60.6024 23.664 61.0824 23.488 61.4344 23.136C61.7864 22.784 61.9624 22.136 61.9624 21.192V3.384ZM93.6405 7.008C93.7365 6.256 93.8085 5.632 93.8565 5.136C93.9205 4.64 93.9765 4.176 94.0245 3.744C94.0885 3.296 94.1445 2.832 94.1925 2.352C94.2565 1.872 94.3365 1.28 94.4325 0.575998H110.897C110.993 1.28 111.073 1.872 111.137 2.352C111.201 2.832 111.257 3.296 111.305 3.744C111.353 4.176 111.409 4.64 111.473 5.136C111.537 5.632 111.617 6.256 111.713 7.008H111.401C111.209 5.792 110.969 4.792 110.681 4.008C110.393 3.224 110.049 2.608 109.649 2.16C109.249 1.696 108.777 1.376 108.233 1.2C107.705 1.008 107.097 0.911998 106.409 0.911998H104.753V21.192C104.753 22.152 104.929 22.808 105.281 23.16C105.633 23.496 106.105 23.664 106.697 23.664V24H98.6325V23.664C99.2405 23.664 99.7205 23.488 100.073 23.136C100.425 22.784 100.601 22.136 100.601 21.192V0.911998H98.9205C98.2325 0.911998 97.6165 1.008 97.0725 1.2C96.5445 1.376 96.0805 1.696 95.6805 2.16C95.2805 2.608 94.9365 3.232 94.6485 4.032C94.3765 4.816 94.1445 5.808 93.9525 7.008H93.6405ZM112.401 24V23.664C113.009 23.664 113.489 23.488 113.841 23.136C114.193 22.784 114.369 22.136 114.369 21.192V3.384C114.369 2.424 114.193 1.768 113.841 1.416C113.489 1.064 113.009 0.887999 112.401 0.887999V0.575998H141.417C141.497 1.28 141.561 1.872 141.609 2.352C141.673 2.832 141.729 3.296 141.777 3.744C141.825 4.176 141.881 4.64 141.945 5.136C142.009 5.632 142.089 6.256 142.185 7.008H141.921C141.729 5.792 141.489 4.792 141.201 4.008C140.913 3.224 140.561 2.6 140.145 2.136C139.745 1.672 139.273 1.352 138.729 1.176C138.201 0.983999 137.601 0.887999 136.929 0.887999H135.225V21.192C135.225 22.152 135.401 22.808 135.753 23.16C136.121 23.496 136.601 23.664 137.193 23.664V24H129.153V23.664C129.745 23.664 130.217 23.488 130.569 23.136C130.937 22.784 131.121 22.136 131.121 21.192V0.887999H118.497V7.872C118.497 9.328 118.697 10.4 119.097 11.088C119.513 11.776 120.249 12.12 121.305 12.12C122.265 12.12 123.009 11.952 123.537 11.616C124.065 11.28 124.505 10.72 124.857 9.936H125.145V14.616H124.857C124.697 14.232 124.521 13.904 124.329 13.632C124.153 13.36 123.929 13.136 123.657 12.96C123.385 12.784 123.057 12.656 122.673 12.576C122.305 12.496 121.849 12.456 121.305 12.456C120.489 12.456 119.849 12.264 119.385 11.88C118.921 11.496 118.625 11.016 118.497 10.44V23.664H123.225C123.897 23.664 124.505 23.584 125.049 23.424C125.609 23.248 126.105 22.936 126.537 22.488C126.969 22.024 127.345 21.4 127.665 20.616C127.985 19.832 128.241 18.816 128.433 17.568H128.721L127.929 24H112.401ZM144.877 3.384C144.877 2.424 144.693 1.768 144.325 1.416C143.973 1.064 143.501 0.887999 142.909 0.887999V0.575998H149.005V13.776C149.005 14.48 149.045 15.224 149.125 16.008C149.221 16.792 149.373 17.568 149.581 18.336C149.789 19.104 150.061 19.84 150.397 20.544C150.749 21.248 151.165 21.872 151.645 22.416C152.141 22.96 152.717 23.408 153.373 23.76C154.029 24.112 154.781 24.32 155.629 24.384V24.72C154.109 24.672 152.693 24.36 151.381 23.784C150.069 23.208 148.933 22.432 147.973 21.456C147.013 20.48 146.253 19.336 145.693 18.024C145.149 16.696 144.877 15.256 144.877 13.704V3.384ZM162.565 19.416C161.701 21 160.749 22.16 159.709 22.896C158.669 23.616 157.621 23.976 156.565 23.976C155.701 23.976 154.869 23.736 154.069 23.256C153.285 22.776 152.581 22.08 151.957 21.168C151.349 20.24 150.861 19.112 150.493 17.784C150.125 16.44 149.925 14.912 149.893 13.2V10.224C150.085 11.088 150.317 11.984 150.589 12.912C150.877 13.84 151.197 14.744 151.549 15.624C151.917 16.504 152.325 17.336 152.773 18.12C153.221 18.904 153.709 19.592 154.237 20.184C154.765 20.76 155.333 21.224 155.941 21.576C156.565 21.912 157.221 22.08 157.909 22.08C158.389 22.08 158.837 22 159.253 21.84C159.669 21.68 160.053 21.472 160.405 21.216C160.757 20.944 161.077 20.632 161.365 20.28C161.653 19.912 161.917 19.528 162.157 19.128C162.221 19.16 162.277 19.192 162.325 19.224C162.373 19.256 162.413 19.288 162.445 19.32C162.477 19.336 162.517 19.368 162.565 19.416ZM149.893 1.896C151.365 0.647998 153.061 0.0239983 154.981 0.0239983C155.781 0.0239983 156.573 0.151999 157.357 0.407999C158.141 0.663999 158.877 1.016 159.565 1.464C160.253 1.912 160.877 2.432 161.437 3.024C161.997 3.616 162.453 4.248 162.805 4.92C162.677 5.528 162.549 6.112 162.421 6.672C162.293 7.216 162.173 7.736 162.061 8.232C161.965 8.632 161.869 9.04 161.773 9.456C161.693 9.872 161.613 10.248 161.533 10.584C161.469 10.92 161.413 11.2 161.365 11.424C161.317 11.632 161.293 11.752 161.293 11.784C160.877 9.928 160.357 8.312 159.733 6.936C159.125 5.544 158.461 4.392 157.741 3.48C157.021 2.568 156.285 1.888 155.533 1.44C154.781 0.975999 154.053 0.743999 153.349 0.743999C152.885 0.743999 152.461 0.831999 152.077 1.008C151.709 1.184 151.381 1.424 151.093 1.728C150.805 2.016 150.557 2.352 150.349 2.736C150.157 3.12 150.005 3.528 149.893 3.96V1.896Z" fill="#F3EEE7"/>
</svg>
