<svg width="22" height="28" viewBox="0 0 22 28" fill="none" xmlns="http://www.w3.org/2000/svg">
<path d="M3.85714 25.4807C3.85714 26.3193 3.21724 27 2.42857 27C1.6399 27 1 26.3193 1 25.4807C1 25.2207 1.06191 24.9758 1.16971 24.7612L2.42857 22.2727L3.68695 24.7612C3.79486 24.9758 3.85714 25.2207 3.85714 25.4807Z" stroke="#987265" stroke-miterlimit="10" stroke-linecap="round" stroke-linejoin="round"/>
<path d="M15.3059 13.606L8.85718 7.00052L12.4079 3.36353L18.8572 9.96897L15.3059 13.606Z" stroke="#987265" stroke-miterlimit="10" stroke-linecap="round" stroke-linejoin="round"/>
<path d="M13.8572 4.61649L16.7032 1.75439C17.1803 1.27071 17.8306 1.00003 18.5079 1.00003C19.1847 1.00003 19.835 1.27071 20.3117 1.75439C21.2295 2.67736 21.2295 4.18162 20.3117 5.1046L17.3452 8.09094" stroke="#987265" stroke-miterlimit="10" stroke-linecap="round" stroke-linejoin="round"/>
<path d="M10.8732 8.87884L4.80757 15.567C4.14043 16.3034 3.63635 17.2052 3.33664 18.1921L2.42871 19.1941L3.7906 20.697L4.69853 19.6951C5.59321 19.3644 6.41071 18.8083 7.07794 18.0719L13.143 11.3838" stroke="#987265" stroke-miterlimit="10" stroke-linecap="round" stroke-linejoin="round"/>
</svg>
