<svg width="18" height="18" viewBox="0 0 18 18" fill="none" xmlns="http://www.w3.org/2000/svg">
<path d="M9 0C6.51937 0 4.26788 1.01007 2.63803 2.63973C1.01018 4.2694 0 6.51865 0 8.999C0 13.9617 4.03874 18 9 18C13.9633 18 18.002 13.9617 18 9.001C18.002 4.0383 13.9633 0 9 0ZM14.9396 14.9379C13.4173 16.46 11.3172 17.4023 9 17.4023C4.36551 17.4023 0.597742 13.633 0.595749 8.999C0.595749 4.36502 4.36551 0.597676 9 0.595683C13.6345 0.595683 17.4023 4.36502 17.4043 8.999C17.4043 11.316 16.4618 13.4158 14.9396 14.9379Z" fill="#69828C"/>
<path d="M11.3012 5.65327C11.3012 4.18988 10.053 3 8.51583 3C6.97865 3 5.73047 4.18988 5.73047 5.65327C5.73047 7.11666 6.97865 8.30853 8.51583 8.30853C10.053 8.30853 11.3012 7.11865 11.3012 5.65327ZM8.51583 8.08693C7.10849 8.08693 5.96293 6.99487 5.96293 5.65327C5.96293 4.31166 7.10849 3.21961 8.51583 3.21961C9.92318 3.21961 11.0687 4.31166 11.0687 5.65327C11.0687 6.99487 9.92318 8.08693 8.51583 8.08693Z" fill="#69828C"/>
<path d="M8.5154 3.53027C7.28398 3.53027 6.28711 4.48058 6.28711 5.65448C6.28711 6.82839 7.28398 7.77869 8.5154 7.77869C9.74683 7.77869 10.7437 6.82839 10.7437 5.65448C10.7437 4.48058 9.74683 3.53027 8.5154 3.53027Z" fill="#69828C"/>
<path d="M12.2178 9.70703C11.2356 9.70703 10.4355 10.4677 10.4355 11.404C10.4355 12.3403 11.2356 13.103 12.2178 13.103C13.2 13.103 14 12.3403 14 11.404C14 10.4677 13.2 9.70703 12.2178 9.70703ZM12.2178 12.8814C11.3633 12.8814 10.668 12.2186 10.668 11.404C10.668 10.5895 11.3633 9.92664 12.2178 9.92664C13.0722 9.92664 13.7675 10.5895 13.7675 11.404C13.7675 12.2186 13.0722 12.8814 12.2178 12.8814Z" fill="#69828C"/>
<path d="M12.2186 10.2471C11.5484 10.2471 11.0039 10.7661 11.0039 11.405C11.0039 12.0439 11.5484 12.5629 12.2186 12.5629C12.8887 12.5629 13.4332 12.0439 13.4332 11.405C13.4332 10.7661 12.8887 10.2471 12.2186 10.2471Z" fill="#69828C"/>
<path d="M5.70054 11.7578C4.76231 11.7578 4 12.4845 4 13.3789C4 14.2733 4.76231 15 5.70054 15C6.63877 15 7.40108 14.2733 7.40108 13.3789C7.40108 12.4845 6.63877 11.7578 5.70054 11.7578ZM5.70054 14.8902C4.82723 14.8902 4.11518 14.2114 4.11518 13.3789C4.11518 12.5464 4.82723 11.8676 5.70054 11.8676C6.57385 11.8676 7.28589 12.5464 7.28589 13.3789C7.28589 14.2114 6.57385 14.8902 5.70054 14.8902Z" fill="#69828C"/>
<path d="M5.7009 12.001C4.90299 12.001 4.25586 12.6199 4.25586 13.3785C4.25586 14.1372 4.90508 14.7561 5.7009 14.7561C6.49672 14.7561 7.14594 14.1372 7.14594 13.3785C7.14594 12.6199 6.49672 12.001 5.7009 12.001ZM5.7009 14.3148C5.15849 14.3148 4.71869 13.8956 4.71869 13.3785C4.71869 12.8614 5.15849 12.4422 5.7009 12.4422C6.24331 12.4422 6.68311 12.8614 6.68311 13.3785C6.68311 13.8956 6.24331 14.3148 5.7009 14.3148Z" fill="#69828C"/>
</svg>
