<svg width="24" height="24" viewBox="0 0 24 24" fill="none" xmlns="http://www.w3.org/2000/svg">
<g clip-path="url(#clip0_13_1318)">
<circle cx="12" cy="12" r="11.5" fill="#E1EDF1" stroke="#987265"/>
<path d="M12.75 4C11.2303 4 10 5.23027 10 6.75C10 8.26974 11.2303 9.5 12.75 9.5C14.2697 9.5 15.5 8.26974 15.5 6.75C15.5 5.23027 14.2697 4 12.75 4Z" fill="#987265"/>
<path d="M6 11.5C5.17105 11.5 4.5 12.1711 4.5 13C4.5 13.829 5.17105 14.5 6 14.5C6.82895 14.5 7.5 13.829 7.5 13C7.5 12.1711 6.82895 11.5 6 11.5Z" fill="#987265"/>
<path d="M17.5 13C16.1196 13 15 14.1232 15 15.4999C15 16.8768 16.1232 18 17.5 18C18.8768 18 20 16.8768 20 15.4999C20 14.1232 18.8768 13 17.5 13ZM17.5 17.1991C16.5616 17.1991 15.8007 16.4384 15.8007 15.4999C15.8007 14.5615 16.5616 13.8007 17.5 13.8007C18.4384 13.8007 19.1993 14.5615 19.1993 15.4999C19.1993 16.4384 18.4384 17.1991 17.5 17.1991Z" fill="#987265"/>
<path d="M9 13C9 14.6569 7.65729 16 6 16C4.34271 16 3 14.6569 3 13C3 11.3431 4.34271 10 6 10C7.65729 10 9 11.3431 9 13Z" stroke="#987265" stroke-width="0.75" stroke-miterlimit="10" stroke-linecap="round" stroke-linejoin="round"/>
</g>
<defs>
<clipPath id="clip0_13_1318">
<rect width="24" height="24" fill="white"/>
</clipPath>
</defs>
</svg>
