<svg width="30" height="26" viewBox="0 0 30 26" fill="none" xmlns="http://www.w3.org/2000/svg">
<path d="M10.4716 13.4136L8.41162 9.27564L10.4716 5.13771H14.5887L16.6468 9.27564L14.5887 13.4136H10.4716Z" stroke="#4C4C4E" stroke-width="0.8" stroke-miterlimit="10" stroke-linecap="round" stroke-linejoin="round"/>
<path d="M10.0588 9.27612L11.1702 7.62095H13.3529" stroke="#4C4C4E" stroke-width="0.8" stroke-miterlimit="10" stroke-linecap="round" stroke-linejoin="round"/>
<path d="M10.0588 16.7239L11.1702 15.0687H13.3529" stroke="#4C4C4E" stroke-width="0.8" stroke-miterlimit="10" stroke-linecap="round" stroke-linejoin="round"/>
<path d="M16.6467 13.4136L17.7588 11.7584H19.9408" stroke="#4C4C4E" stroke-width="0.8" stroke-miterlimit="10" stroke-linecap="round" stroke-linejoin="round"/>
<path d="M17.0579 9.2756H21.175L23.235 12.9997L21.175 16.7239H17.0579L14.9998 12.9997" stroke="#4C4C4E" stroke-width="0.8" stroke-miterlimit="10" stroke-linecap="round" stroke-linejoin="round"/>
<path d="M16.6468 17.1379L14.588 20.8621H10.4714L8.41162 17.1379L10.4714 13.4138" stroke="#4C4C4E" stroke-width="0.8" stroke-miterlimit="10" stroke-linecap="round" stroke-linejoin="round"/>
<path d="M3.47021 9.58749C5.01654 4.61281 9.65451 0.999954 15.1364 0.999954C21.8826 0.999954 27.3523 6.4717 27.3523 13.2228V14.2413" stroke="#4C4C4E" stroke-width="0.8" stroke-miterlimit="10" stroke-linecap="round" stroke-linejoin="round"/>
<path d="M26.5291 16.6856C25.0774 21.485 20.3846 25 14.8203 25C8.09759 25 2.64697 19.8693 2.64697 13.5411V12.5862" stroke="#4C4C4E" stroke-width="0.8" stroke-miterlimit="10" stroke-linecap="round" stroke-linejoin="round"/>
<path d="M5.1176 14.2413L3.0588 12.5862L1 14.2413" stroke="#4C4C4E" stroke-width="0.8" stroke-miterlimit="10" stroke-linecap="round" stroke-linejoin="round"/>
<path d="M24.8823 12.5862L26.9411 14.2413L28.9999 12.5862" stroke="#4C4C4E" stroke-width="0.8" stroke-miterlimit="10" stroke-linecap="round" stroke-linejoin="round"/>
</svg>
