<svg width="26" height="26" viewBox="0 0 26 26" fill="none" xmlns="http://www.w3.org/2000/svg">
<path d="M14.7582 21.8269C12.5588 22.2649 10.3232 21.8796 8.41019 20.7421C8.27262 20.6603 8.13646 20.5743 8.00249 20.485C7.7791 20.3357 7.71878 20.0336 7.86802 19.8102C8.01726 19.5868 8.31945 19.526 8.5428 19.6757C10.328 20.8654 12.4658 21.2915 14.5686 20.8728C16.6711 20.454 18.4851 19.2412 19.6759 17.4585C20.8666 15.6754 21.2917 13.5355 20.8729 11.4327C20.4541 9.33015 19.2413 7.51619 17.4586 6.32541C15.6748 5.13435 13.5356 4.70962 11.4328 5.12834C9.33022 5.54718 7.51626 6.7599 6.32549 8.54268C5.3421 10.0152 4.88269 11.7312 4.98789 13.4684L5.64917 12.6456C5.81757 12.4362 6.12371 12.4048 6.3332 12.5713C6.54265 12.7397 6.57595 13.0458 6.40755 13.2553L5.03024 14.9682C5.0246 14.9753 5.01778 14.9806 5.01184 14.9872C5.00233 14.998 4.99253 15.0083 4.98189 15.0181C4.96959 15.0298 4.95661 15.0401 4.94322 15.0503C4.93249 15.0583 4.92189 15.0662 4.91044 15.0735C4.89501 15.0833 4.87915 15.0914 4.86287 15.0993C4.85179 15.1046 4.84101 15.1104 4.82956 15.1149C4.80923 15.1229 4.78852 15.1287 4.76764 15.1338C4.7601 15.1355 4.75332 15.1389 4.74577 15.1406C4.74411 15.141 4.7426 15.1407 4.74093 15.1411C4.71063 15.1469 4.68019 15.15 4.64932 15.15C4.64277 15.1501 4.63655 15.1487 4.63025 15.1483C4.60622 15.1473 4.58248 15.1454 4.55881 15.1409C4.54762 15.1388 4.53709 15.1351 4.52619 15.132C4.5079 15.1271 4.48982 15.1223 4.4719 15.1153C4.45982 15.1104 4.4487 15.1043 4.43713 15.0986C4.42576 15.0929 4.41385 15.0887 4.40277 15.0821C4.39838 15.0795 4.39428 15.0759 4.3898 15.073C4.38261 15.0684 4.37579 15.0632 4.36864 15.0581C4.36127 15.0529 4.35354 15.0483 4.34642 15.0427L2.63491 13.6687C2.42533 13.5005 2.39182 13.1942 2.55989 12.9849C2.72796 12.7755 3.03447 12.7421 3.24375 12.9099L4.01611 13.5298C3.89704 11.5803 4.41222 9.65448 5.5157 8.00232C6.85073 6.0031 8.88436 4.64366 11.2419 4.17384C13.5993 3.70442 15.9974 4.18118 17.9979 5.51588C19.9971 6.85092 21.3566 8.88455 21.8264 11.2421C22.2961 13.5996 21.8193 15.9991 20.4844 17.9981C19.1495 19.9976 17.116 21.3572 14.7582 21.8269Z" fill="#69828C"/>
<path d="M16 10.9166V8.83337H17V8H9V8.83337H10V10.9166C10 11.7866 10.5343 12.552 11.3428 13C10.5337 13.4476 10 14.213 10 15.0834V17.1666H9V18H17V17.1666H16V15.0834C16 14.2134 15.4663 13.448 14.6572 13C15.4663 12.5524 16 11.7866 16 10.9166ZM14.9999 15.0834V17.1666H11.0001V15.0834C11.0001 14.1641 11.8969 13.4166 13 13.4166C14.1026 13.4166 14.9999 14.1645 14.9999 15.0834ZM14.9999 10.9166C14.9999 11.8359 14.1031 12.5834 13 12.5834C11.8974 12.5834 11.0001 11.8355 11.0001 10.9166V8.83337H14.9999V10.9166Z" fill="#69828C"/>
</svg>
