<svg width="20" height="25" viewBox="0 0 20 25" fill="none" xmlns="http://www.w3.org/2000/svg">
<path d="M13.4186 8.55318C15.1014 10.8352 16.0708 13.2682 16.3909 15.2625C16.5511 16.2604 16.5464 17.1341 16.3979 17.8176C16.248 18.5072 15.9626 18.9582 15.6062 19.1835C15.2559 19.4049 14.7582 19.4639 14.0997 19.3099C13.4411 19.1559 12.6643 18.7971 11.8173 18.2447C10.1256 17.1416 8.22383 15.3124 6.5287 13.0135C4.85104 10.7384 3.96091 8.27704 3.59279 6.32332C3.40865 5.34608 3.35708 4.50606 3.39847 3.88836C3.41924 3.57849 3.46268 3.33595 3.51827 3.16428C3.5703 3.0036 3.61864 2.94965 3.62716 2.94015C3.62863 2.93851 3.62891 2.9382 3.62781 2.93889C3.70368 2.89093 3.85038 2.8429 4.09495 2.82966C4.33393 2.81672 4.63644 2.83865 4.99404 2.9027C5.70869 3.03071 6.60461 3.3199 7.57908 3.78035C9.52743 4.70097 11.7467 6.28569 13.4186 8.55318Z" stroke="#4C4C4E" stroke-width="0.75"/>
<path d="M7.16138 7.88018C7.16158 7.49642 14.1359 14.5741 15.3667 20.8743C16.5975 27.1744 13.7256 21.6618 15.3667 23.6306" stroke="#4C4C4E" stroke-width="0.75"/>
<path d="M6.88451 7.93497C6.80855 7.79653 6.897 7.5443 7.29508 7.64163C7.59179 8.05944 7.53138 7.94893 7.50711 8.04658C7.44243 8.30679 7.25538 8.27219 7.16154 8.24925C7.0677 8.2263 6.97114 8.09287 6.88451 7.93497Z" fill="#4C4C4E"/>
</svg>
