<svg width="18" height="14" viewBox="0 0 18 14" fill="none" xmlns="http://www.w3.org/2000/svg">
<path d="M14.7499 4.50424C13.1768 4.50424 12.2381 3.54756 12.2381 1.94501V0.404426C12.2381 0.181167 12.0622 0.000336556 11.8442 0.000336556C11.6265 0.000336556 11.4505 0.181167 11.4505 0.404426V1.94501C11.4505 3.99038 12.7454 5.31242 14.7502 5.31242C15.6173 5.31242 16.2487 5.53063 16.6565 5.96974C15.376 8.97987 12.5809 10.9565 9.39449 11.1212C9.52057 9.45669 10.8789 8.14071 12.534 8.14071C12.7517 8.14071 12.928 7.95988 12.928 7.73662C12.928 7.5137 12.7517 7.33287 12.534 7.33287C10.9731 7.33287 9.62563 8.27103 8.98802 9.62405C8.35073 8.27103 7.00294 7.33287 5.44173 7.33287C5.22438 7.33287 5.04806 7.5137 5.04806 7.73662C5.04806 7.95988 5.22438 8.14071 5.44173 8.14071C7.0975 8.14071 8.45645 9.4577 8.58154 11.1232C5.40102 10.9767 2.59282 9.01758 1.29427 6.02497C1.69878 5.54848 2.34723 5.31209 3.25013 5.31209C5.25458 5.31209 6.54984 3.99004 6.54984 1.94468V0.404089C6.54984 0.180829 6.37353 0 6.15618 0C5.93849 0 5.76218 0.180829 5.76218 0.404089V1.94468C5.76218 3.54723 4.82316 4.50391 3.25046 4.50391C2.00215 4.50391 1.09104 4.91271 0.555533 5.68014C0.55225 5.68351 0.550609 5.68789 0.547654 5.69126C0.189118 6.21085 0 6.89174 0 7.72618V13.5952C0 13.8188 0.176313 13.9997 0.393667 13.9997C0.61135 13.9997 0.787662 13.8188 0.787662 13.5952V7.72652C0.787662 7.445 0.8136 7.19043 0.862193 6.95875C2.44835 10.0143 5.53498 11.9462 8.96306 11.9462C12.4358 11.9462 15.5464 9.97494 17.1158 6.86076C17.1792 7.11735 17.2123 7.40493 17.2123 7.72652V13.5956C17.2123 13.8192 17.3883 14 17.6063 14C17.824 14 18 13.8192 18 13.5956V7.72652C18 5.64883 16.8459 4.50424 14.7499 4.50424Z" fill="#6C8A96"/>
</svg>
