<svg width="20" height="16" viewBox="0 0 20 16" fill="none" xmlns="http://www.w3.org/2000/svg">
<path d="M16.3888 5.14768C14.6409 5.14768 13.2143 5.16478 13.2143 3.33329V1.99998C13.2143 1.74483 13.0994 1.66671 12.8571 1.66671C12.6153 1.66671 12.5 1.74489 12.5 2.00004V3.33329C12.5 5.67086 14.1612 5.66671 16.3888 5.66671C17.3522 5.66671 18.1183 6.38382 18.5714 6.88566C17.1487 10.3258 13.9788 12.5217 10.4383 12.7099C10.5784 10.8076 10.8739 10.7892 11.0714 10.6666C11.4286 10.445 12.1429 10.3333 12.1429 9.99998C12.1429 9.74522 11.2965 9.63872 10.7143 9.99998C10.3571 10.2216 10 10.7689 10 11.2213C10 11.2213 10 10.2846 9.28571 9.99998C8.57143 9.7154 7.85714 9.66665 7.85714 9.99998C7.85714 10.2551 8.21429 10.2846 8.92857 10.6666C9.36678 10.9011 9.76032 11.2454 9.64286 12.7099C6.10895 12.5425 2.88091 10.3058 1.43808 6.88566C1.88753 6.3411 2.56821 5.66671 3.57143 5.66671C5.7986 5.66671 7.5 5.33337 7.5 3.33337V2.66671V1.99998C7.5 1.74483 7.38436 1.66671 7.14286 1.66671C7.14286 1.66671 6.78571 1.66671 6.78571 2.00004V3.33329C6.78571 4.66671 5.35907 5.14731 3.61162 5.14731C2.22461 5.14731 1.21227 5.61451 0.617259 6.49157C0.613611 6.49542 0.611788 6.50043 0.608504 6.50428C0.210131 7.0981 0 7.87626 0 8.8299V15.5374C0 15.7929 0.195903 15.9996 0.437408 15.9996C0.679278 15.9996 0.87518 15.7929 0.87518 15.5374V8.83029C0.87518 8.50855 0.904 8.21762 0.957992 7.95284C2.72039 11.4449 6.14998 13.6528 9.95896 13.6528C13.8176 13.6528 17.2738 11.3999 19.0176 7.84085C19.088 8.1341 19.1248 8.46276 19.1248 8.83029V15.5378C19.1248 15.7934 19.3203 16 19.5626 16C19.8044 16 20 15.7934 20 15.5378V8.83029C20 6.45579 18.7177 5.14768 16.3888 5.14768Z" fill="#4C4C4E"/>
</svg>
