<svg width="26" height="26" viewBox="0 0 26 26" fill="none" xmlns="http://www.w3.org/2000/svg">
<path d="M4.15313 8.27495C2.57362 7.94811 1.35066 6.65829 1.24093 5.03546C1.1078 3.06649 2.66753 1.35942 4.72955 1.22C6.13207 1.12517 7.39852 1.77897 8.10748 2.82537" stroke="#4C4C4E" stroke-width="0.75" stroke-miterlimit="10" stroke-linejoin="round"/>
<path d="M22.1196 18C22.668 18.6359 23 19.4748 23 20.393C23 22.3882 21.4351 24 19.5 24C17.5649 24 16 22.3882 16 20.393C16 19.8942 16.3222 18.9318 16.5 18.5" stroke="#4C4C4E" stroke-width="0.75" stroke-miterlimit="10" stroke-linejoin="round"/>
<path d="M6.5 13.5C5.59436 14.2955 5.30685 15.1849 5.22813 16.4431C5.06422 19.0629 7.19859 21.3247 10.0001 21.5C12.3688 21.6482 14.4492 20.26 15.135 18.2438" stroke="#4C4C4E" stroke-width="0.75" stroke-miterlimit="10" stroke-linecap="round" stroke-linejoin="round"/>
<path d="M13.5 14.1928C13.9737 16.5726 15.2201 17.6582 15.936 18.1507C16.8159 18.7557 17.8812 19.1111 19.0264 19.1111C22.0493 19.1111 24.5 16.6488 24.5 13.6111C24.5 10.5734 22.0493 8.11108 19.0264 8.11108C18.4285 8.11108 17.5387 8.32231 17 8.5" stroke="#4C4C4E" stroke-width="0.75" stroke-miterlimit="10" stroke-linecap="round" stroke-linejoin="round"/>
<path d="M17.2644 16.9107C16.7322 16.5462 16.2999 16.0591 16 15.5Z" fill="#4C4C4E"/>
<path d="M17.2644 16.9107C16.7322 16.5462 16.2999 16.0591 16 15.5" stroke="#4C4C4E" stroke-width="0.75" stroke-miterlimit="10" stroke-linecap="round" stroke-linejoin="round"/>
<path d="M7.93777 18.87C7.46912 18.4773 7.11104 17.942 6.93822 17.3082C6.82597 16.8966 6.80011 16.4734 6.8573 16.0597" fill="#4C4C4E"/>
<path d="M7.93777 18.87C7.46912 18.4773 7.11104 17.942 6.93822 17.3082C6.82597 16.8966 6.80011 16.4734 6.8573 16.0597" stroke="#4C4C4E" stroke-width="0.75" stroke-miterlimit="10" stroke-linecap="round" stroke-linejoin="round"/>
<path d="M19.6968 22.4909C19.2341 22.6837 18.6818 22.6083 18.286 22.2509C18.0867 22.071 17.9489 21.839 17.8874 21.5887" fill="#4C4C4E"/>
<path d="M19.6968 22.4909C19.2341 22.6837 18.6818 22.6083 18.286 22.2509C18.0867 22.071 17.9489 21.839 17.8874 21.5887" stroke="#4C4C4E" stroke-width="0.75" stroke-miterlimit="10" stroke-linecap="round" stroke-linejoin="round"/>
<path d="M3 4.33333C3 3.59822 3.59813 3 4.33333 3L3 4.33333Z" fill="#4C4C4E"/>
<path d="M3 4.33333C3 3.59822 3.59813 3 4.33333 3" stroke="#4C4C4E" stroke-width="0.75" stroke-miterlimit="10" stroke-linecap="round" stroke-linejoin="round"/>
<path d="M5.44445 22.7778C5.44445 24.0053 4.44969 25 3.22222 25C1.99476 25 1 24.0053 1 22.7778C1 21.5502 1.99476 20.5555 3.22222 20.5555C4.44969 20.5555 5.44445 21.5502 5.44445 22.7778Z" stroke="#4C4C4E" stroke-width="0.75" stroke-miterlimit="10" stroke-linecap="round" stroke-linejoin="round"/>
<path d="M25 3.88889C25 5.48445 23.707 6.77778 22.1111 6.77778C20.5151 6.77778 19.2222 5.48445 19.2222 3.88889C19.2222 2.29333 20.5151 1 22.1111 1C23.707 1 25 2.29333 25 3.88889Z" stroke="#4C4C4E" stroke-width="0.75" stroke-miterlimit="10" stroke-linecap="round" stroke-linejoin="round"/>
<path d="M22.1111 2.77783C21.4982 2.77783 21 3.2765 21 3.88894L22.1111 2.77783Z" fill="#4C4C4E"/>
<path d="M22.1111 2.77783C21.4982 2.77783 21 3.2765 21 3.88894" stroke="#4C4C4E" stroke-width="0.75" stroke-miterlimit="10" stroke-linecap="round" stroke-linejoin="round"/>
<path d="M16.625 8.5C16.625 11.8827 13.8827 14.625 10.5 14.625C7.11726 14.625 4.375 11.8827 4.375 8.5C4.375 5.11726 7.11726 2.375 10.5 2.375C13.8827 2.375 16.625 5.11726 16.625 8.5Z" stroke="#4C4C4E" stroke-width="0.75"/>
<path d="M9.05343 4.50565C7.71355 4.82276 6.5663 5.75505 5.99994 7.04686L9.05343 4.50565Z" fill="#4C4C4E"/>
<path d="M9.05343 4.50565C7.71355 4.82276 6.5663 5.75505 5.99994 7.04686" stroke="#4C4C4E" stroke-width="0.75" stroke-miterlimit="10" stroke-linecap="round" stroke-linejoin="round"/>
</svg>
