<svg width="16" height="18" viewBox="0 0 16 18" fill="none" xmlns="http://www.w3.org/2000/svg">
<g clip-path="url(#clip0_284_8)">
<path d="M11.6025 14.3497C11.4716 14.3497 11.3655 14.2425 11.3655 14.1104C11.3655 11.9334 9.61076 10.1622 7.45393 10.1622C7.32303 10.1622 7.21686 10.0551 7.21686 9.92299C7.21686 9.79078 7.32303 9.68368 7.45393 9.68368C9.61076 9.68368 11.3655 7.91253 11.3655 5.73547C11.3655 5.60335 11.4716 5.49619 11.6025 5.49619C11.7334 5.49619 11.8396 5.60335 11.8396 5.73547C11.8396 7.91253 13.5943 9.68368 15.7511 9.68368C15.882 9.68368 15.9881 9.79078 15.9881 9.92299C15.9881 10.0551 15.882 10.1622 15.7511 10.1622C13.5943 10.1622 11.8396 11.9334 11.8396 14.1104C11.8396 14.2425 11.7334 14.3497 11.6025 14.3497ZM8.87729 9.92299C10.1525 10.3658 11.1638 11.3865 11.6025 12.6737C12.0412 11.3866 13.0524 10.3658 14.3277 9.92299C13.0525 9.4801 12.0412 8.45941 11.6025 7.17222C11.1638 8.45941 10.1526 9.4801 8.87729 9.92299ZM5.28076 16.1446C5.14987 16.1446 5.0437 16.0375 5.0437 15.9054C5.0437 14.2781 3.73211 12.9542 2.11994 12.9542C1.98904 12.9542 1.88288 12.847 1.88288 12.7149C1.88288 12.5828 1.98904 12.4756 2.11994 12.4756C3.73211 12.4756 5.0437 11.1518 5.0437 9.52447C5.0437 9.39235 5.14987 9.28516 5.28076 9.28516C5.41166 9.28516 5.51782 9.39235 5.51782 9.52447C5.51782 11.1518 6.82941 12.4756 8.44158 12.4756C8.57244 12.4756 8.67863 12.5828 8.67863 12.7149C8.67863 12.847 8.57244 12.9542 8.44158 12.9542C6.82941 12.9542 5.51782 14.2781 5.51782 15.9054C5.51782 16.0375 5.41166 16.1446 5.28076 16.1446ZM3.36712 12.7149C4.23927 13.0635 4.93544 13.7661 5.28076 14.6465C5.62609 13.7662 6.32225 13.0635 7.19441 12.7149C6.32225 12.3664 5.62609 11.6637 5.28076 10.7833C4.93544 11.6637 4.23927 12.3664 3.36712 12.7149ZM8.63922 7.17101C8.50827 7.17101 8.40215 7.06384 8.40215 6.93172C8.40215 5.30443 7.09057 3.98055 5.47839 3.98055C5.34749 3.98055 5.24133 3.87339 5.24133 3.74126C5.24133 3.60914 5.34749 3.50198 5.47839 3.50198C7.09057 3.50198 8.40215 2.1781 8.40215 0.550808C8.40215 0.418683 8.50827 0.311523 8.63922 0.311523C8.77009 0.311523 8.87627 0.418683 8.87627 0.550808C8.87627 2.1781 10.1879 3.50198 11.8001 3.50198C11.9309 3.50198 12.0371 3.60914 12.0371 3.74126C12.0371 3.87339 11.9309 3.98055 11.8001 3.98055C10.1879 3.98055 8.87627 5.30443 8.87627 6.93172C8.87627 7.06384 8.77009 7.17101 8.63922 7.17101ZM6.72557 3.74126C7.59772 4.08982 8.29389 4.79252 8.63922 5.67285C8.98449 4.79252 9.68065 4.08982 10.5528 3.74126C9.68074 3.39271 8.98457 2.69001 8.63922 1.80968C8.29393 2.69001 7.59772 3.39271 6.72557 3.74126ZM1.52759 7.96902C0.743276 7.96902 0.105225 7.32499 0.105225 6.53331C0.105225 5.74165 0.743276 5.09761 1.52759 5.09761C2.31191 5.09761 2.94997 5.74165 2.94997 6.53331C2.94997 7.32499 2.31191 7.96902 1.52759 7.96902ZM1.52759 5.57618C1.00471 5.57618 0.579348 6.00554 0.579348 6.53331C0.579348 7.06109 1.00471 7.49045 1.52759 7.49045C2.05047 7.49045 2.47585 7.06109 2.47585 6.53331C2.47585 6.00554 2.05047 5.57618 1.52759 5.57618ZM13.7764 17.1408C13.2099 17.1408 12.7491 16.6757 12.7491 16.1039C12.7491 15.5322 13.2099 15.067 13.7764 15.067C14.3429 15.067 14.8037 15.5322 14.8037 16.1039C14.8037 16.6757 14.3429 17.1408 13.7764 17.1408ZM13.7764 15.5457C13.4714 15.5457 13.2232 15.796 13.2232 16.1039C13.2232 16.4118 13.4714 16.6623 13.7764 16.6623C14.0814 16.6623 14.3296 16.4118 14.3296 16.1039C14.3296 15.796 14.0814 15.5457 13.7764 15.5457ZM14.5657 5.17717C13.9992 5.17717 13.5384 4.712 13.5384 4.14027C13.5384 3.56854 13.9992 3.10337 14.5657 3.10337C15.1321 3.10337 15.5929 3.56854 15.5929 4.14027C15.5929 4.712 15.1321 5.17717 14.5657 5.17717ZM14.5657 3.58193C14.2607 3.58193 14.0125 3.83239 14.0125 4.14027C14.0125 4.44815 14.2607 4.6986 14.5657 4.6986C14.8707 4.6986 15.1188 4.44815 15.1188 4.14027C15.1188 3.83239 14.8707 3.58193 14.5657 3.58193Z" fill="#6C8A96"/>
</g>
<defs>
<clipPath id="clip0_284_8">
<rect width="16" height="18" fill="white"/>
</clipPath>
</defs>
</svg>
