<svg width="9" height="18" viewBox="0 0 9 18" fill="none" xmlns="http://www.w3.org/2000/svg">
<path d="M8.43182 11.249C8.34286 11.1575 8.19335 11.1528 8.0973 11.2374C8.00172 11.3223 7.99628 11.4652 8.08524 11.5566C8.66508 12.1513 8.54821 12.7158 8.42685 12.9995C8.226 13.4692 7.78597 13.7739 7.49333 13.787C6.88652 13.8152 6.25534 13.5967 5.67715 13.3331C5.67195 13.3304 5.6665 13.3279 5.66083 13.3257C5.40414 13.2081 5.15787 13.0819 4.92887 12.9643C4.27167 12.6271 3.79615 12.3836 3.45383 12.5325C3.35092 12.5772 3.21726 12.6779 3.16332 12.9043C3.1179 13.0948 3.15977 13.2692 3.28444 13.4089C3.63907 13.8064 4.605 13.8132 5.51983 13.7617C6.10109 14.0233 6.73937 14.2407 7.38829 14.2407C7.43064 14.2407 7.47298 14.2398 7.51557 14.238C8.03461 14.2147 8.61469 13.7556 8.86522 13.1699C9.1439 12.5176 8.98611 11.8175 8.43182 11.249ZM3.64475 13.1167C3.62677 13.0966 3.60926 13.0697 3.62464 13.0045C3.63599 12.9564 3.64948 12.9438 3.64948 12.9438C3.75925 12.884 4.27048 13.1397 4.64167 13.3295C3.98139 13.3139 3.73062 13.213 3.64475 13.1167ZM3.58726 14.1161C3.30124 14.0725 3.00552 14.0276 2.74671 13.9482C1.1884 13.4697 0.403921 12.5307 0.478205 11.2329C0.529541 10.336 1.70413 9.01426 2.94756 7.61512C5.04408 5.25583 7.42023 2.58191 6.38285 0.140918C6.33364 0.0253573 6.19596 -0.0301661 6.07459 0.0165547C5.95347 0.0635012 5.89527 0.195087 5.94424 0.310648C6.87398 2.49817 4.59625 5.0615 2.58655 7.32306C1.23382 8.84521 0.0656202 10.1599 0.00553049 11.2081C-0.0805824 12.7117 0.841346 13.8373 2.60169 14.3779C2.89481 14.4677 3.20874 14.5156 3.5125 14.5618C4.00339 14.6366 4.46708 14.7072 4.62747 14.932C4.70483 15.0403 4.71832 15.1974 4.66864 15.4121C4.47607 16.2454 4.33649 17.0545 4.26504 17.7524C4.25227 17.8765 4.34737 17.9869 4.47749 17.9989C4.48529 17.9995 4.4931 18 4.50067 18C4.62109 18 4.724 17.9129 4.73582 17.7962C4.80538 17.1159 4.94212 16.325 5.13043 15.5091C5.20944 15.1663 5.17278 14.8945 5.01806 14.6776C4.74363 14.2921 4.182 14.2066 3.58726 14.1161Z" fill="#6C8A96"/>
<circle cx="8.5" cy="7.5" r="0.5" fill="#6C8A96"/>
<circle cx="6.5" cy="5.5" r="0.5" fill="#6C8A96"/>
<circle cx="5.5" cy="8.5" r="0.5" fill="#6C8A96"/>
<circle cx="2.5" cy="9.5" r="0.5" fill="#6C8A96"/>
<circle cx="4.5" cy="11.5" r="0.5" fill="#6C8A96"/>
<circle cx="6.5" cy="10.5" r="0.5" fill="#6C8A96"/>
</svg>
