<svg width="22" height="26" viewBox="0 0 22 26" fill="none" xmlns="http://www.w3.org/2000/svg">
<mask id="path-1-outside-1_16_8" maskUnits="userSpaceOnUse" x="0" y="0" width="22" height="26" fill="black">
<rect fill="white" width="22" height="26"/>
<path d="M18.7034 5.35025C18.6653 5.29519 18.6052 5.25766 18.5374 5.24666C17.5308 5.08049 16.3931 4.9591 15.6873 4.8918C16.0586 4.65578 16.5918 4.33961 17.2075 4.04148C17.2788 4.00701 17.3289 3.94188 17.3418 3.86594C17.3545 3.79025 17.3291 3.71311 17.2727 3.65853C15.5083 1.94407 13.2808 1 11 1C8.71927 1 6.49171 1.94407 4.72731 3.65853C4.67091 3.71316 4.64526 3.79049 4.65846 3.86618C4.67141 3.94212 4.72146 4.00725 4.79296 4.04172C5.41066 4.33961 5.94651 4.65578 6.31956 4.8918C5.61056 4.95905 4.46751 5.08049 3.45776 5.24666C3.38991 5.25766 3.32961 5.29543 3.29151 5.35049C1.8137 7.49129 1 10.2079 1 13C1 16.0563 1.9536 18.9625 3.68481 21.1837C3.72926 21.2409 3.79811 21.2761 3.87231 21.2798C5.08666 21.3396 6.09621 21.5948 6.66161 21.7692C6.35181 21.9566 5.91941 22.2426 5.45286 22.6237C5.39671 22.6696 5.36446 22.7369 5.36496 22.8077C5.36546 22.8785 5.39816 22.9455 5.45481 22.9907C7.09591 24.3053 9.01342 25 11 25C12.9865 25 14.9062 24.3034 16.5503 22.9858C16.6069 22.9406 16.6399 22.8735 16.6401 22.8027C16.6404 22.732 16.6081 22.6647 16.552 22.6188C16.0888 22.2405 15.6579 21.9562 15.3489 21.7692C15.9121 21.5957 16.9163 21.3423 18.1284 21.2798C18.2024 21.2758 18.2708 21.2407 18.3152 21.1837C20.0464 18.9625 21 16.0563 21 13C21 10.2051 20.1844 7.48822 18.7034 5.35025ZM17.9836 20.8071C16.0742 20.925 14.7197 21.4725 14.6618 21.4961C14.5727 21.5327 14.5136 21.6154 14.5102 21.7085C14.5068 21.8013 14.5595 21.8878 14.6457 21.9304C14.6523 21.9337 15.26 22.2363 15.9948 22.7997C14.4958 23.9264 12.7749 24.52 11 24.52C9.22507 24.52 7.50657 23.928 6.01021 22.8047C6.74921 22.2368 7.35762 21.9337 7.36422 21.9304C7.45042 21.8878 7.50312 21.8013 7.49972 21.7085C7.49632 21.6155 7.43722 21.5327 7.34837 21.4961C7.29002 21.4722 5.92601 20.9205 4.01606 20.8069C2.39275 18.6797 1.49995 15.9124 1.49995 13C1.49995 10.3387 2.2624 7.75189 3.64911 5.70228C5.20231 5.45407 7.02632 5.31113 7.04487 5.30969C7.14837 5.30172 7.23577 5.23327 7.26482 5.13766C7.29387 5.04228 7.25847 4.93937 7.17597 4.87937C7.14202 4.8545 6.39521 4.31263 5.32661 3.76653C6.97162 2.26936 8.92647 1.47995 11 1.47995C13.0735 1.47995 15.0288 2.26931 16.6736 3.76697C15.6096 4.31306 14.8669 4.8547 14.833 4.87956C14.7509 4.94004 14.7158 5.04266 14.7448 5.13809C14.7741 5.23322 14.8615 5.30143 14.9646 5.30964C14.9831 5.31103 16.7978 5.45403 18.3462 5.70223C19.7358 7.74905 20.5 10.3361 20.5 13C20.5 15.9123 19.6072 18.6799 17.9836 20.8071ZM9.99997 11.0801C9.99997 9.7568 8.54197 8.68006 6.74996 8.68006C4.95796 8.68006 3.49996 9.7568 3.49996 11.0801C3.49996 12.4033 4.95796 13.4801 6.74996 13.4801C8.54197 13.4801 9.99997 12.4033 9.99997 11.0801ZM6.74996 13.0001C5.23361 13.0001 3.99996 12.1388 3.99996 11.0801C3.99996 10.0214 5.23361 9.16006 6.74996 9.16006C8.26632 9.16006 9.49997 10.0214 9.49997 11.0801C9.49997 12.1388 8.26632 13.0001 6.74996 13.0001ZM15.25 8.68006C13.458 8.68006 12 9.7568 12 11.0801C12 12.4033 13.458 13.4801 15.25 13.4801C17.042 13.4801 18.5 12.4033 18.5 11.0801C18.5 9.7568 17.042 8.68006 15.25 8.68006ZM15.25 13.0001C13.7336 13.0001 12.5 12.1388 12.5 11.0801C12.5 10.0214 13.7336 9.16006 15.25 9.16006C16.7663 9.16006 18 10.0214 18 11.0801C18 12.1388 16.7663 13.0001 15.25 13.0001ZM11.125 14.9201C8.85057 14.9201 6.99997 16.2119 6.99997 17.8001C6.99997 19.3882 8.85057 20.6801 11.125 20.6801C13.3994 20.6801 15.25 19.3882 15.25 17.8001C15.25 16.2119 13.3994 14.9201 11.125 14.9201ZM11.125 20.2001C9.12617 20.2001 7.49997 19.1233 7.49997 17.8001C7.49997 16.4768 9.12617 15.4001 11.125 15.4001C13.1238 15.4001 14.75 16.4768 14.75 17.8001C14.75 19.1233 13.1238 20.2001 11.125 20.2001ZM8.71652 11.1949C8.69577 11.2268 8.19527 11.9723 7.11347 12.0345C7.07732 12.0366 7.04167 12.0375 7.00652 12.0375C5.93596 12.0375 5.35686 11.0984 5.33196 11.0571C5.26286 10.9427 5.30366 10.7964 5.42256 10.7299C5.54196 10.6641 5.69451 10.7018 5.76436 10.8159C5.76901 10.8239 6.26141 11.5997 7.08347 11.5554C7.91157 11.5078 8.28952 10.945 8.29317 10.9394C8.36692 10.8269 8.52122 10.7939 8.63792 10.864C8.75487 10.9345 8.79002 11.0827 8.71652 11.1949ZM16.6679 11.0571C16.643 11.0984 16.0639 12.0375 14.9934 12.0375C14.9582 12.0375 14.9226 12.0366 14.8862 12.0345C13.8046 11.9724 13.3041 11.2269 13.2834 11.195C13.2099 11.0827 13.245 10.9346 13.362 10.864C13.4792 10.7939 13.6335 10.827 13.7067 10.9395C13.7216 10.9615 14.0986 11.5083 14.9162 11.5554C15.7487 11.599 16.2306 10.8239 16.2355 10.816C16.3056 10.7018 16.4584 10.6641 16.5773 10.73C16.6962 10.7965 16.737 10.9428 16.6679 11.0571ZM13.0376 17.4565C13.0163 17.5097 12.4966 18.7603 11 18.7603C9.50337 18.7603 8.98362 17.5097 8.96237 17.4565C8.91257 17.3328 8.97677 17.1937 9.10542 17.1462C9.23457 17.0984 9.37912 17.1598 9.42867 17.2837C9.44527 17.3233 9.85227 18.2803 11 18.2803C12.1477 18.2803 12.5547 17.3233 12.5715 17.2828C12.6223 17.1602 12.7673 17.0991 12.8953 17.1469C13.0234 17.1949 13.0871 17.333 13.0376 17.4565Z"/>
</mask>
<path d="M18.7034 5.35025C18.6653 5.29519 18.6052 5.25766 18.5374 5.24666C17.5308 5.08049 16.3931 4.9591 15.6873 4.8918C16.0586 4.65578 16.5918 4.33961 17.2075 4.04148C17.2788 4.00701 17.3289 3.94188 17.3418 3.86594C17.3545 3.79025 17.3291 3.71311 17.2727 3.65853C15.5083 1.94407 13.2808 1 11 1C8.71927 1 6.49171 1.94407 4.72731 3.65853C4.67091 3.71316 4.64526 3.79049 4.65846 3.86618C4.67141 3.94212 4.72146 4.00725 4.79296 4.04172C5.41066 4.33961 5.94651 4.65578 6.31956 4.8918C5.61056 4.95905 4.46751 5.08049 3.45776 5.24666C3.38991 5.25766 3.32961 5.29543 3.29151 5.35049C1.8137 7.49129 1 10.2079 1 13C1 16.0563 1.9536 18.9625 3.68481 21.1837C3.72926 21.2409 3.79811 21.2761 3.87231 21.2798C5.08666 21.3396 6.09621 21.5948 6.66161 21.7692C6.35181 21.9566 5.91941 22.2426 5.45286 22.6237C5.39671 22.6696 5.36446 22.7369 5.36496 22.8077C5.36546 22.8785 5.39816 22.9455 5.45481 22.9907C7.09591 24.3053 9.01342 25 11 25C12.9865 25 14.9062 24.3034 16.5503 22.9858C16.6069 22.9406 16.6399 22.8735 16.6401 22.8027C16.6404 22.732 16.6081 22.6647 16.552 22.6188C16.0888 22.2405 15.6579 21.9562 15.3489 21.7692C15.9121 21.5957 16.9163 21.3423 18.1284 21.2798C18.2024 21.2758 18.2708 21.2407 18.3152 21.1837C20.0464 18.9625 21 16.0563 21 13C21 10.2051 20.1844 7.48822 18.7034 5.35025ZM17.9836 20.8071C16.0742 20.925 14.7197 21.4725 14.6618 21.4961C14.5727 21.5327 14.5136 21.6154 14.5102 21.7085C14.5068 21.8013 14.5595 21.8878 14.6457 21.9304C14.6523 21.9337 15.26 22.2363 15.9948 22.7997C14.4958 23.9264 12.7749 24.52 11 24.52C9.22507 24.52 7.50657 23.928 6.01021 22.8047C6.74921 22.2368 7.35762 21.9337 7.36422 21.9304C7.45042 21.8878 7.50312 21.8013 7.49972 21.7085C7.49632 21.6155 7.43722 21.5327 7.34837 21.4961C7.29002 21.4722 5.92601 20.9205 4.01606 20.8069C2.39275 18.6797 1.49995 15.9124 1.49995 13C1.49995 10.3387 2.2624 7.75189 3.64911 5.70228C5.20231 5.45407 7.02632 5.31113 7.04487 5.30969C7.14837 5.30172 7.23577 5.23327 7.26482 5.13766C7.29387 5.04228 7.25847 4.93937 7.17597 4.87937C7.14202 4.8545 6.39521 4.31263 5.32661 3.76653C6.97162 2.26936 8.92647 1.47995 11 1.47995C13.0735 1.47995 15.0288 2.26931 16.6736 3.76697C15.6096 4.31306 14.8669 4.8547 14.833 4.87956C14.7509 4.94004 14.7158 5.04266 14.7448 5.13809C14.7741 5.23322 14.8615 5.30143 14.9646 5.30964C14.9831 5.31103 16.7978 5.45403 18.3462 5.70223C19.7358 7.74905 20.5 10.3361 20.5 13C20.5 15.9123 19.6072 18.6799 17.9836 20.8071ZM9.99997 11.0801C9.99997 9.7568 8.54197 8.68006 6.74996 8.68006C4.95796 8.68006 3.49996 9.7568 3.49996 11.0801C3.49996 12.4033 4.95796 13.4801 6.74996 13.4801C8.54197 13.4801 9.99997 12.4033 9.99997 11.0801ZM6.74996 13.0001C5.23361 13.0001 3.99996 12.1388 3.99996 11.0801C3.99996 10.0214 5.23361 9.16006 6.74996 9.16006C8.26632 9.16006 9.49997 10.0214 9.49997 11.0801C9.49997 12.1388 8.26632 13.0001 6.74996 13.0001ZM15.25 8.68006C13.458 8.68006 12 9.7568 12 11.0801C12 12.4033 13.458 13.4801 15.25 13.4801C17.042 13.4801 18.5 12.4033 18.5 11.0801C18.5 9.7568 17.042 8.68006 15.25 8.68006ZM15.25 13.0001C13.7336 13.0001 12.5 12.1388 12.5 11.0801C12.5 10.0214 13.7336 9.16006 15.25 9.16006C16.7663 9.16006 18 10.0214 18 11.0801C18 12.1388 16.7663 13.0001 15.25 13.0001ZM11.125 14.9201C8.85057 14.9201 6.99997 16.2119 6.99997 17.8001C6.99997 19.3882 8.85057 20.6801 11.125 20.6801C13.3994 20.6801 15.25 19.3882 15.25 17.8001C15.25 16.2119 13.3994 14.9201 11.125 14.9201ZM11.125 20.2001C9.12617 20.2001 7.49997 19.1233 7.49997 17.8001C7.49997 16.4768 9.12617 15.4001 11.125 15.4001C13.1238 15.4001 14.75 16.4768 14.75 17.8001C14.75 19.1233 13.1238 20.2001 11.125 20.2001ZM8.71652 11.1949C8.69577 11.2268 8.19527 11.9723 7.11347 12.0345C7.07732 12.0366 7.04167 12.0375 7.00652 12.0375C5.93596 12.0375 5.35686 11.0984 5.33196 11.0571C5.26286 10.9427 5.30366 10.7964 5.42256 10.7299C5.54196 10.6641 5.69451 10.7018 5.76436 10.8159C5.76901 10.8239 6.26141 11.5997 7.08347 11.5554C7.91157 11.5078 8.28952 10.945 8.29317 10.9394C8.36692 10.8269 8.52122 10.7939 8.63792 10.864C8.75487 10.9345 8.79002 11.0827 8.71652 11.1949ZM16.6679 11.0571C16.643 11.0984 16.0639 12.0375 14.9934 12.0375C14.9582 12.0375 14.9226 12.0366 14.8862 12.0345C13.8046 11.9724 13.3041 11.2269 13.2834 11.195C13.2099 11.0827 13.245 10.9346 13.362 10.864C13.4792 10.7939 13.6335 10.827 13.7067 10.9395C13.7216 10.9615 14.0986 11.5083 14.9162 11.5554C15.7487 11.599 16.2306 10.8239 16.2355 10.816C16.3056 10.7018 16.4584 10.6641 16.5773 10.73C16.6962 10.7965 16.737 10.9428 16.6679 11.0571ZM13.0376 17.4565C13.0163 17.5097 12.4966 18.7603 11 18.7603C9.50337 18.7603 8.98362 17.5097 8.96237 17.4565C8.91257 17.3328 8.97677 17.1937 9.10542 17.1462C9.23457 17.0984 9.37912 17.1598 9.42867 17.2837C9.44527 17.3233 9.85227 18.2803 11 18.2803C12.1477 18.2803 12.5547 17.3233 12.5715 17.2828C12.6223 17.1602 12.7673 17.0991 12.8953 17.1469C13.0234 17.1949 13.0871 17.333 13.0376 17.4565Z" fill="#4C4C4E"/>
<path d="M18.7034 5.35025C18.6653 5.29519 18.6052 5.25766 18.5374 5.24666C17.5308 5.08049 16.3931 4.9591 15.6873 4.8918C16.0586 4.65578 16.5918 4.33961 17.2075 4.04148C17.2788 4.00701 17.3289 3.94188 17.3418 3.86594C17.3545 3.79025 17.3291 3.71311 17.2727 3.65853C15.5083 1.94407 13.2808 1 11 1C8.71927 1 6.49171 1.94407 4.72731 3.65853C4.67091 3.71316 4.64526 3.79049 4.65846 3.86618C4.67141 3.94212 4.72146 4.00725 4.79296 4.04172C5.41066 4.33961 5.94651 4.65578 6.31956 4.8918C5.61056 4.95905 4.46751 5.08049 3.45776 5.24666C3.38991 5.25766 3.32961 5.29543 3.29151 5.35049C1.8137 7.49129 1 10.2079 1 13C1 16.0563 1.9536 18.9625 3.68481 21.1837C3.72926 21.2409 3.79811 21.2761 3.87231 21.2798C5.08666 21.3396 6.09621 21.5948 6.66161 21.7692C6.35181 21.9566 5.91941 22.2426 5.45286 22.6237C5.39671 22.6696 5.36446 22.7369 5.36496 22.8077C5.36546 22.8785 5.39816 22.9455 5.45481 22.9907C7.09591 24.3053 9.01342 25 11 25C12.9865 25 14.9062 24.3034 16.5503 22.9858C16.6069 22.9406 16.6399 22.8735 16.6401 22.8027C16.6404 22.732 16.6081 22.6647 16.552 22.6188C16.0888 22.2405 15.6579 21.9562 15.3489 21.7692C15.9121 21.5957 16.9163 21.3423 18.1284 21.2798C18.2024 21.2758 18.2708 21.2407 18.3152 21.1837C20.0464 18.9625 21 16.0563 21 13C21 10.2051 20.1844 7.48822 18.7034 5.35025ZM17.9836 20.8071C16.0742 20.925 14.7197 21.4725 14.6618 21.4961C14.5727 21.5327 14.5136 21.6154 14.5102 21.7085C14.5068 21.8013 14.5595 21.8878 14.6457 21.9304C14.6523 21.9337 15.26 22.2363 15.9948 22.7997C14.4958 23.9264 12.7749 24.52 11 24.52C9.22507 24.52 7.50657 23.928 6.01021 22.8047C6.74921 22.2368 7.35762 21.9337 7.36422 21.9304C7.45042 21.8878 7.50312 21.8013 7.49972 21.7085C7.49632 21.6155 7.43722 21.5327 7.34837 21.4961C7.29002 21.4722 5.92601 20.9205 4.01606 20.8069C2.39275 18.6797 1.49995 15.9124 1.49995 13C1.49995 10.3387 2.2624 7.75189 3.64911 5.70228C5.20231 5.45407 7.02632 5.31113 7.04487 5.30969C7.14837 5.30172 7.23577 5.23327 7.26482 5.13766C7.29387 5.04228 7.25847 4.93937 7.17597 4.87937C7.14202 4.8545 6.39521 4.31263 5.32661 3.76653C6.97162 2.26936 8.92647 1.47995 11 1.47995C13.0735 1.47995 15.0288 2.26931 16.6736 3.76697C15.6096 4.31306 14.8669 4.8547 14.833 4.87956C14.7509 4.94004 14.7158 5.04266 14.7448 5.13809C14.7741 5.23322 14.8615 5.30143 14.9646 5.30964C14.9831 5.31103 16.7978 5.45403 18.3462 5.70223C19.7358 7.74905 20.5 10.3361 20.5 13C20.5 15.9123 19.6072 18.6799 17.9836 20.8071ZM9.99997 11.0801C9.99997 9.7568 8.54197 8.68006 6.74996 8.68006C4.95796 8.68006 3.49996 9.7568 3.49996 11.0801C3.49996 12.4033 4.95796 13.4801 6.74996 13.4801C8.54197 13.4801 9.99997 12.4033 9.99997 11.0801ZM6.74996 13.0001C5.23361 13.0001 3.99996 12.1388 3.99996 11.0801C3.99996 10.0214 5.23361 9.16006 6.74996 9.16006C8.26632 9.16006 9.49997 10.0214 9.49997 11.0801C9.49997 12.1388 8.26632 13.0001 6.74996 13.0001ZM15.25 8.68006C13.458 8.68006 12 9.7568 12 11.0801C12 12.4033 13.458 13.4801 15.25 13.4801C17.042 13.4801 18.5 12.4033 18.5 11.0801C18.5 9.7568 17.042 8.68006 15.25 8.68006ZM15.25 13.0001C13.7336 13.0001 12.5 12.1388 12.5 11.0801C12.5 10.0214 13.7336 9.16006 15.25 9.16006C16.7663 9.16006 18 10.0214 18 11.0801C18 12.1388 16.7663 13.0001 15.25 13.0001ZM11.125 14.9201C8.85057 14.9201 6.99997 16.2119 6.99997 17.8001C6.99997 19.3882 8.85057 20.6801 11.125 20.6801C13.3994 20.6801 15.25 19.3882 15.25 17.8001C15.25 16.2119 13.3994 14.9201 11.125 14.9201ZM11.125 20.2001C9.12617 20.2001 7.49997 19.1233 7.49997 17.8001C7.49997 16.4768 9.12617 15.4001 11.125 15.4001C13.1238 15.4001 14.75 16.4768 14.75 17.8001C14.75 19.1233 13.1238 20.2001 11.125 20.2001ZM8.71652 11.1949C8.69577 11.2268 8.19527 11.9723 7.11347 12.0345C7.07732 12.0366 7.04167 12.0375 7.00652 12.0375C5.93596 12.0375 5.35686 11.0984 5.33196 11.0571C5.26286 10.9427 5.30366 10.7964 5.42256 10.7299C5.54196 10.6641 5.69451 10.7018 5.76436 10.8159C5.76901 10.8239 6.26141 11.5997 7.08347 11.5554C7.91157 11.5078 8.28952 10.945 8.29317 10.9394C8.36692 10.8269 8.52122 10.7939 8.63792 10.864C8.75487 10.9345 8.79002 11.0827 8.71652 11.1949ZM16.6679 11.0571C16.643 11.0984 16.0639 12.0375 14.9934 12.0375C14.9582 12.0375 14.9226 12.0366 14.8862 12.0345C13.8046 11.9724 13.3041 11.2269 13.2834 11.195C13.2099 11.0827 13.245 10.9346 13.362 10.864C13.4792 10.7939 13.6335 10.827 13.7067 10.9395C13.7216 10.9615 14.0986 11.5083 14.9162 11.5554C15.7487 11.599 16.2306 10.8239 16.2355 10.816C16.3056 10.7018 16.4584 10.6641 16.5773 10.73C16.6962 10.7965 16.737 10.9428 16.6679 11.0571ZM13.0376 17.4565C13.0163 17.5097 12.4966 18.7603 11 18.7603C9.50337 18.7603 8.98362 17.5097 8.96237 17.4565C8.91257 17.3328 8.97677 17.1937 9.10542 17.1462C9.23457 17.0984 9.37912 17.1598 9.42867 17.2837C9.44527 17.3233 9.85227 18.2803 11 18.2803C12.1477 18.2803 12.5547 17.3233 12.5715 17.2828C12.6223 17.1602 12.7673 17.0991 12.8953 17.1469C13.0234 17.1949 13.0871 17.333 13.0376 17.4565Z" stroke="#4C4C4E" stroke-width="0.2" mask="url(#path-1-outside-1_16_8)"/>
</svg>
