<svg width="14" height="18" viewBox="0 0 14 18" fill="none" xmlns="http://www.w3.org/2000/svg">
<path d="M13.8825 9.95098C14.1666 8.61511 13.9317 7.22913 13.2193 6.03845C12.5706 -0.298327 7.16437 0.000511654 7.12996 0.00276164C6.79192 0.00689719 6.45623 0.0555187 6.13294 0.14717H6.13007C5.37865 0.360092 4.71636 0.782731 4.23355 1.35744C3.75074 1.93215 3.47091 2.63094 3.43223 3.35851C3.38413 4.22394 3.65286 6.38332 7.18158 7.74272C8.22275 8.1235 9.19115 8.65694 10.0497 9.32262C10.1233 9.3818 10.1944 9.4418 10.2631 9.50262C10.2852 9.52164 10.3048 9.54107 10.3262 9.5603C10.3727 9.60243 10.4197 9.64457 10.4643 9.68732C10.4879 9.71002 10.51 9.73314 10.5331 9.75605C10.5735 9.79696 10.6141 9.83582 10.6527 9.87652C10.6768 9.90148 10.6991 9.92725 10.7222 9.95241C10.758 9.99148 10.7941 10.0303 10.8283 10.0698C10.8517 10.0968 10.8725 10.1242 10.8963 10.1516C10.9283 10.1899 10.9605 10.2281 10.9909 10.267C11.013 10.2958 11.0351 10.3249 11.0571 10.3537C11.0856 10.3918 11.1145 10.4298 11.1416 10.4683C11.1637 10.4987 11.1829 10.5296 11.2034 10.5603C11.2286 10.5975 11.2539 10.635 11.2775 10.6726C11.2981 10.7051 11.317 10.7381 11.3365 10.7708C11.3559 10.8035 11.3718 10.8303 11.3885 10.8602C11.3804 11.1167 11.3001 11.3668 11.1556 11.5857C11.0111 11.8046 10.8073 11.9847 10.5646 12.1082C10.3219 12.2316 10.0486 12.2941 9.77182 12.2894C9.49503 12.2847 9.22437 12.2131 8.98665 12.0816C8.74892 11.9501 8.5524 11.7632 8.41656 11.5396C8.28072 11.316 8.21027 11.0633 8.2122 10.8067C8.21413 10.55 8.28836 10.2983 8.42756 10.0765C8.56675 9.8546 8.76606 9.67032 9.00573 9.54189C9.0434 9.52174 9.07642 9.49492 9.1029 9.46294C9.12938 9.43096 9.14881 9.39447 9.16008 9.35553C9.17135 9.31659 9.17423 9.27598 9.16857 9.23601C9.16291 9.19604 9.14881 9.15749 9.12708 9.12257C9.10535 9.08765 9.07641 9.05704 9.04192 9.03249C9.00743 9.00794 8.96807 8.98993 8.92607 8.97948C8.88407 8.96903 8.84026 8.96636 8.79715 8.97161C8.75403 8.97686 8.71246 8.98993 8.67479 9.01007C8.37427 9.17061 8.11784 9.39337 7.92553 9.66097C7.73321 9.92857 7.61022 10.2338 7.56615 10.5527C7.52207 10.8716 7.55812 11.1957 7.67146 11.4996C7.78481 11.8035 7.97239 12.079 8.21956 12.3046C8.46673 12.5302 8.76679 12.6998 9.09633 12.8001C9.42586 12.9004 9.77594 12.9287 10.1192 12.8828C10.4625 12.837 10.7897 12.7182 11.0753 12.5357C11.3609 12.3532 11.5971 12.112 11.7656 11.8309C11.8595 12.1964 11.878 12.5751 11.8201 12.9469C11.8106 12.978 10.848 16.0765 8.36613 17.1847C8.07099 17.3175 7.74718 17.3866 7.41909 17.3866C7.091 17.3866 6.76718 17.3175 6.47204 17.1847C4.05661 16.1065 3.08077 13.1431 3.02032 12.9527L3.01701 12.9422C2.95402 12.7458 2.90465 12.5458 2.86919 12.3435C3.11379 12.5543 3.40594 12.7118 3.72442 12.8048C4.0429 12.8978 4.37972 12.9239 4.71043 12.8812C5.04115 12.8385 5.35746 12.7281 5.6364 12.5579C5.91534 12.3878 6.14991 12.1622 6.32309 11.8975C6.49627 11.6328 6.6037 11.3357 6.6376 11.0277C6.6715 10.7198 6.63101 10.4087 6.51907 10.117C6.40713 9.82538 6.22655 9.56049 5.99044 9.3416C5.75432 9.12272 5.4686 8.95531 5.15401 8.85155C5.11291 8.8374 5.06919 8.83095 5.02539 8.8326C4.98158 8.83424 4.93856 8.84394 4.89883 8.86112C4.8591 8.87831 4.82345 8.90264 4.79395 8.93271C4.76445 8.96277 4.74169 8.99798 4.72699 9.03627C4.71228 9.07456 4.70593 9.11518 4.70831 9.15576C4.71068 9.19635 4.72172 9.23609 4.7408 9.27269C4.75988 9.30928 4.78662 9.342 4.81945 9.36893C4.85228 9.39587 4.89056 9.41649 4.93206 9.42959C5.1908 9.51554 5.42106 9.66225 5.60033 9.8554C5.77961 10.0485 5.90176 10.2815 5.95486 10.5315C6.00795 10.7815 5.99017 11.04 5.90325 11.2818C5.81632 11.5235 5.66324 11.7402 5.45895 11.9106C5.25466 12.0811 5.00616 12.1995 4.73774 12.2543C4.46932 12.3091 4.19016 12.2983 3.92755 12.2232C3.66494 12.148 3.42786 12.0109 3.23949 11.8254C3.05112 11.6398 2.9179 11.4121 2.85286 11.1645C2.95908 10.5398 3.24919 9.95441 3.69125 9.47275C4.309 8.81338 5.08637 8.29896 5.95974 7.9716C6.04228 7.94391 6.10956 7.88695 6.1468 7.81326C6.18404 7.73957 6.18818 7.65519 6.15831 7.57867C6.12844 7.50215 6.067 7.43977 5.98752 7.40525C5.90804 7.37073 5.81702 7.36689 5.73448 7.39458C4.74882 7.75695 3.87288 8.33591 3.18204 9.08166V9.08289C2.64824 9.6654 2.30393 10.3765 2.18921 11.1334V11.1345C2.15756 11.3508 2.1445 11.5691 2.15016 11.7874C0.987007 10.1136 0.501185 8.51467 0.709237 7.01986C0.901587 5.72204 1.60243 4.53524 2.67812 3.68579C2.74834 3.63696 2.79476 3.56428 2.80717 3.48372C2.81959 3.40317 2.79697 3.32134 2.74431 3.25624C2.69165 3.19114 2.61325 3.14811 2.52636 3.1366C2.43947 3.12509 2.35121 3.14606 2.28099 3.19488C1.05884 4.13604 0.263817 5.46937 0.0541921 6.92945C-0.223358 8.89144 0.56627 10.9903 2.39881 13.168C2.54729 13.6258 3.59218 16.5798 6.18478 17.737C6.5695 17.9101 6.99156 18 7.4192 18C7.84683 18 8.2689 17.9101 8.65361 17.737C11.2502 16.578 12.294 13.6176 12.4433 13.1552C13.1401 12.1825 13.6287 11.0947 13.8825 9.95098ZM4.09323 3.39063C4.12211 2.94111 4.26038 2.50349 4.49766 2.11057C4.73494 1.71765 5.06508 1.37962 5.46333 1.12182C5.28619 1.56148 5.23748 2.03671 5.32213 2.49943C5.48694 3.33806 6.11926 4.06174 7.20122 4.64714C7.27702 4.68818 7.36731 4.69962 7.45221 4.67895C7.53711 4.65827 7.60968 4.60717 7.65395 4.53689C7.69821 4.46662 7.71055 4.38291 7.68825 4.3042C7.66595 4.22549 7.61083 4.15821 7.53503 4.11717C6.63045 3.62729 6.10492 3.04761 5.9743 2.39409C5.81986 1.61846 6.26333 0.930165 6.42703 0.708644C6.66597 0.649657 6.91184 0.61826 7.15908 0.615167C7.34021 0.603508 11.2897 0.407964 12.3566 4.88155C11.4135 3.88158 10.2553 3.07541 8.95631 2.51477C8.8759 2.48358 8.78546 2.48306 8.70464 2.51333C8.62382 2.54359 8.55914 2.60219 8.52465 2.67641C8.49016 2.75062 8.48865 2.83446 8.52043 2.9097C8.55222 2.98495 8.61475 3.04553 8.69443 3.07829C8.72046 3.08872 11.2978 4.13967 12.5967 6.25772V6.25875L12.5978 6.26038C12.6009 6.26739 12.6044 6.27422 12.6084 6.28084C13.1104 7.09692 13.3604 8.02539 13.3309 8.96446C12.9715 8.50115 12.5618 8.07313 12.1084 7.68708C12.0433 7.63618 11.9596 7.61049 11.8746 7.61536C11.7896 7.62024 11.7099 7.6553 11.6521 7.71325C11.5943 7.77121 11.5628 7.8476 11.5641 7.92653C11.5655 8.00547 11.5996 8.08088 11.6594 8.13708C12.2779 8.65531 12.8015 9.26322 13.2098 9.93707C13.0551 10.6192 12.8011 11.2787 12.4548 11.8974C12.3772 11.4722 12.2335 11.0597 12.0283 10.6726C12.0249 10.6642 12.021 10.6561 12.0166 10.6481C11.8827 10.4007 11.7278 10.1636 11.5533 9.93891C11.3717 9.70452 11.1721 9.48256 10.9561 9.27475C10.809 9.13266 10.6521 8.99426 10.4853 8.85953C9.57277 8.15028 8.5431 7.58181 7.43575 7.17592C5.22505 6.32482 4.00674 4.94496 4.09323 3.39063Z" fill="#69828C"/>
<path d="M6.20947 15.217C6.20947 15.2983 6.24434 15.3764 6.3064 15.4339C6.36847 15.4915 6.45264 15.5238 6.54041 15.5238H8.12717C8.21494 15.5238 8.29912 15.4915 8.36118 15.4339C8.42325 15.3764 8.45811 15.2983 8.45811 15.217C8.45811 15.1356 8.42325 15.0576 8.36118 15C8.29912 14.9425 8.21494 14.9102 8.12717 14.9102H6.54041C6.45264 14.9102 6.36847 14.9425 6.3064 15C6.24434 15.0576 6.20947 15.1356 6.20947 15.217Z" fill="#69828C"/>
</svg>
