<svg width="58" height="47" viewBox="0 0 58 47" fill="none" xmlns="http://www.w3.org/2000/svg">
<path d="M58 26C58.0005 23.6947 57.2044 21.46 55.7466 19.6742C54.2888 17.8884 52.2587 16.6611 50 16.2V1C50 0.734784 49.8946 0.48043 49.7071 0.292893C49.5196 0.105357 49.2652 0 49 0H1C0.734784 0 0.48043 0.105357 0.292893 0.292893C0.105357 0.48043 0 0.734784 0 1V37C0 37.2652 0.105357 37.5196 0.292893 37.7071C0.48043 37.8946 0.734784 38 1 38H41V46C41.0005 46.1809 41.05 46.3583 41.1434 46.5133C41.2367 46.6682 41.3703 46.795 41.53 46.88C41.6864 46.9603 41.8611 46.9979 42.0367 46.9892C42.2123 46.9804 42.3824 46.9255 42.53 46.83L48 43.2L53.45 46.83C53.6004 46.9291 53.7748 46.9856 53.9547 46.9938C54.1346 47.002 54.3133 46.9614 54.4721 46.8764C54.6308 46.7914 54.7637 46.6651 54.8566 46.5108C54.9495 46.3566 54.9991 46.1801 55 46V33.13C55.9485 32.2003 56.7023 31.091 57.2173 29.8668C57.7324 28.6426 57.9985 27.3281 58 26ZM56 26C56 27.5823 55.5308 29.129 54.6518 30.4446C53.7727 31.7602 52.5233 32.7855 51.0615 33.391C49.5997 33.9965 47.9911 34.155 46.4393 33.8463C44.8874 33.5376 43.462 32.7757 42.3431 31.6569C41.2243 30.538 40.4624 29.1126 40.1537 27.5607C39.845 26.0089 40.0035 24.4003 40.609 22.9385C41.2145 21.4767 42.2398 20.2273 43.5554 19.3482C44.871 18.4692 46.4177 18 48 18C50.1217 18 52.1566 18.8429 53.6569 20.3431C55.1571 21.8434 56 23.8783 56 26ZM43 17.35C40.7077 18.6778 39.0359 20.8608 38.3515 23.42C37.6672 25.9792 38.0263 28.7053 39.35 31H7V7H43V17.35ZM2 36V2H48V16C46.9824 15.9998 45.9708 16.1549 45 16.46V6C45 5.73478 44.8946 5.48043 44.7071 5.29289C44.5196 5.10536 44.2652 5 44 5H6C5.73478 5 5.48043 5.10536 5.29289 5.29289C5.10536 5.48043 5 5.73478 5 6V32C5 32.2652 5.10536 32.5196 5.29289 32.7071C5.48043 32.8946 5.73478 33 6 33H40.87L41 33.13V36H2ZM53 44.13L48.55 41.13C48.3867 41.0225 48.1955 40.9652 48 40.9652C47.8045 40.9652 47.6133 41.0225 47.45 41.13L43 44.13V34.65C44.5178 35.5346 46.2432 36.0007 48 36.0007C49.7568 36.0007 51.4822 35.5346 53 34.65V44.13Z" fill="black"/>
<path d="M11 20H38C38.2652 20 38.5196 19.8946 38.7071 19.7071C38.8946 19.5196 39 19.2652 39 19C39 18.7348 38.8946 18.4804 38.7071 18.2929C38.5196 18.1054 38.2652 18 38 18H11C10.7348 18 10.4804 18.1054 10.2929 18.2929C10.1054 18.4804 10 18.7348 10 19C10 19.2652 10.1054 19.5196 10.2929 19.7071C10.4804 19.8946 10.7348 20 11 20Z" fill="black"/>
<path d="M17 15H33C33.2652 15 33.5196 14.8946 33.7071 14.7071C33.8946 14.5196 34 14.2652 34 14C34 13.7348 33.8946 13.4804 33.7071 13.2929C33.5196 13.1054 33.2652 13 33 13H17C16.7348 13 16.4804 13.1054 16.2929 13.2929C16.1054 13.4804 16 13.7348 16 14C16 14.2652 16.1054 14.5196 16.2929 14.7071C16.4804 14.8946 16.7348 15 17 15Z" fill="black"/>
<path d="M29 23H21C20.7348 23 20.4804 23.1054 20.2929 23.2929C20.1054 23.4804 20 23.7348 20 24C20 24.2652 20.1054 24.5196 20.2929 24.7071C20.4804 24.8946 20.7348 25 21 25H29C29.2652 25 29.5196 24.8946 29.7071 24.7071C29.8946 24.5196 30 24.2652 30 24C30 23.7348 29.8946 23.4804 29.7071 23.2929C29.5196 23.1054 29.2652 23 29 23Z" fill="black"/>
</svg>
