<svg width="18" height="22" viewBox="0 0 18 22" fill="none" xmlns="http://www.w3.org/2000/svg">
<path d="M15.6917 0.00746217C15.6789 0.00547226 15.6672 0 15.654 0H2.34705C1.05322 0 0 1.02729 0 2.28989V21.7513C0 21.8891 0.114702 22 0.254892 22H13.5613C13.702 22 13.8162 21.8891 13.8162 21.7513V17.4023L13.8422 17.4724C13.8774 17.5665 13.9676 17.6316 14.0711 17.6366C14.0747 17.6366 14.0787 17.6366 14.0818 17.6366C14.1807 17.6366 14.2719 17.5804 14.3137 17.4928L15.033 15.973L16.7444 16.082C16.8453 16.086 16.9447 16.0332 16.9896 15.9432C17.0345 15.8517 17.0197 15.7442 16.9509 15.6681L14.2373 12.6892C14.2791 12.5912 14.3071 12.4862 14.3025 12.3743C14.2995 12.2897 14.3392 12.2101 14.4167 12.1574C14.7134 11.9554 14.8245 11.5733 14.6793 11.2445C14.6451 11.1664 14.6533 11.0774 14.7058 11.0017C14.9076 10.7082 14.8694 10.3137 14.6115 10.0575C14.5508 9.99634 14.5258 9.91077 14.5467 9.82172C14.6262 9.47796 14.4453 9.12227 14.1098 8.97452C14.0303 8.93969 13.9752 8.86855 13.9615 8.77751C13.9431 8.65663 13.8871 8.55166 13.8167 8.45714V2.28989C13.8167 1.45363 14.3999 0.735771 15.2339 0.544739C15.7116 0.435791 16.2045 0.514393 16.6215 0.766615C17.0385 1.01884 17.3301 1.41483 17.4413 1.88097C17.5539 2.3471 17.4734 2.82767 17.2144 3.23461C16.9554 3.64154 16.5502 3.9256 16.072 4.03555C15.9344 4.06689 15.8497 4.20071 15.8818 4.33453C15.914 4.46835 16.0496 4.55044 16.1887 4.52009C16.7989 4.3803 17.3169 4.01714 17.6472 3.49728C17.9771 2.97741 18.0805 2.36352 17.9368 1.76754C17.688 0.725821 16.7413 0.0243764 15.6917 0.00746217ZM14.8913 15.4661C14.7899 15.4601 14.6884 15.5169 14.6441 15.6099L14.1114 16.7342L13.0148 13.7707C13.2508 13.7055 13.4491 13.5354 13.5338 13.2956C13.5628 13.215 13.6296 13.1558 13.7209 13.1334C13.7836 13.119 13.8386 13.0887 13.8942 13.0598L16.1581 15.5462L14.8913 15.4661ZM14.0476 9.71775C13.99 9.96649 14.0645 10.2237 14.2526 10.4107C14.3372 10.4943 14.3494 10.6256 14.2791 10.7286C14.1333 10.9406 14.1083 11.2067 14.2138 11.4465C14.2623 11.5544 14.2245 11.6818 14.121 11.7524C13.9059 11.8982 13.7836 12.138 13.7938 12.3997C13.7984 12.5171 13.7168 12.623 13.5929 12.6524C13.339 12.7126 13.1361 12.8922 13.0495 13.1399C13.0143 13.2399 12.9297 13.3071 12.7686 13.3051C12.7446 13.3021 12.7217 13.3051 12.6977 13.3041C12.6778 13.3011 12.658 13.3021 12.6371 13.3041C12.424 13.312 12.2231 13.4031 12.0804 13.5672C12.0049 13.6558 11.8785 13.6866 11.7582 13.6225C11.646 13.5623 11.5196 13.5309 11.3917 13.5309C11.2637 13.5309 11.1373 13.5623 11.02 13.6249C10.9155 13.6792 10.7809 13.6568 10.6983 13.5618C10.5531 13.3936 10.34 13.2976 10.1141 13.2976C10.082 13.2976 10.0484 13.2996 9.97598 13.3076C9.8674 13.3076 9.77105 13.2394 9.73333 13.1334C9.64819 12.8927 9.44581 12.7116 9.18531 12.6494C9.06857 12.622 8.98598 12.5161 8.99108 12.3927C9.00127 12.137 8.87842 11.8972 8.65921 11.7485C8.56031 11.6803 8.5231 11.5529 8.57356 11.4395C8.67756 11.2057 8.65207 10.9396 8.50219 10.7217C8.43439 10.6247 8.44765 10.4933 8.53584 10.4038C8.71936 10.2217 8.79481 9.965 8.73568 9.70929C8.70866 9.59437 8.76881 9.47597 8.88504 9.42523C9.12311 9.32026 9.28828 9.10684 9.32754 8.84816C9.34538 8.73175 9.44479 8.6427 9.57172 8.63573C9.83324 8.6218 10.0662 8.48102 10.1982 8.25367C10.2569 8.15368 10.3634 8.09696 10.5051 8.14174C10.7498 8.21934 11.0251 8.17009 11.2311 8.00642C11.3208 7.93429 11.4569 7.92981 11.5578 8.0104C11.7572 8.1686 12.0207 8.22482 12.2853 8.13975C12.3995 8.10443 12.5269 8.15119 12.5886 8.25914C12.7181 8.48102 12.9506 8.6218 13.2182 8.63573C13.338 8.6422 13.439 8.73125 13.4573 8.85413C13.4955 9.10635 13.6607 9.31977 13.9049 9.42722C14.016 9.47846 14.0757 9.59686 14.0476 9.71775ZM9.54572 13.6742C9.67011 13.7568 9.81795 13.8055 9.97547 13.8055C10.0081 13.8055 10.0423 13.8035 10.1136 13.7956C10.1891 13.7956 10.261 13.8274 10.3135 13.8891C10.3945 13.9826 10.5011 14.0438 10.6147 14.0881L10.3354 17.2148L9.52482 16.2616C9.45753 16.183 9.34691 16.1506 9.2475 16.185L8.04441 16.5795L9.54572 13.6742ZM13.3069 2.28989V8.15616C13.284 8.15268 13.2641 8.14223 13.2401 8.14124C13.1525 8.13626 13.0755 8.0895 13.0291 8.0104C12.8537 7.70893 12.4867 7.5562 12.1212 7.67112C12.0396 7.69749 11.9494 7.68157 11.8765 7.62336C11.6037 7.40547 11.1857 7.40248 10.9038 7.62734C10.838 7.68008 10.7585 7.70197 10.6581 7.66913C10.3186 7.56267 9.93214 7.70793 9.75321 8.01538C9.71038 8.0895 9.6329 8.13626 9.5391 8.14124C9.17766 8.16064 8.87689 8.42779 8.82336 8.78348C8.81061 8.86756 8.75505 8.93919 8.6694 8.9765C8.34008 9.12177 8.1586 9.47697 8.23965 9.82769C8.25903 9.91077 8.23405 9.99634 8.16879 10.0615C7.91441 10.3132 7.8772 10.7087 8.08264 11.0067C8.13158 11.0774 8.13923 11.1659 8.10303 11.25C7.95978 11.5733 8.07092 11.9554 8.37271 12.1614C8.44459 12.2101 8.48537 12.2897 8.4818 12.3808C8.46855 12.7335 8.71325 13.0504 9.07061 13.1359C9.12617 13.1484 9.1695 13.1847 9.20519 13.2285L7.31032 16.8964C7.26393 16.9859 7.2782 17.0944 7.34498 17.1715C7.41278 17.2471 7.52035 17.2754 7.61874 17.2441L9.24444 16.7108L10.3395 17.9983C10.3884 18.0565 10.4608 18.0888 10.5357 18.0888C10.5607 18.0888 10.5867 18.0848 10.6112 18.0774C10.7101 18.047 10.7804 17.963 10.7896 17.8615L11.124 14.108C11.173 14.0936 11.2229 14.0846 11.2693 14.0602C11.3437 14.0204 11.4329 14.0175 11.5191 14.0622C11.6313 14.1224 11.7577 14.1548 11.8856 14.1548C12.1115 14.1548 12.3246 14.0578 12.4739 13.8846C12.4821 13.8747 12.4959 13.8712 12.506 13.8632L13.3059 16.0253V21.5035H0.510805V2.28989C0.510805 1.3014 1.33462 0.497479 2.34807 0.497479H14.2031C13.652 0.920336 13.3069 1.56756 13.3069 2.28989Z" fill="black"/>
</svg>
