<svg width="18" height="18" viewBox="0 0 18 18" fill="none" xmlns="http://www.w3.org/2000/svg">
<path d="M9 18C14.025 18 18 13.9125 18 9C18 4.0125 13.9125 0 9 0C4.05 0 0 4.05 0 9C0 13.9875 4.05 18 9 18ZM7.2375 17.0625L7.65 15.7875L8.8875 14.8125C9.0375 14.7 9.075 14.4375 8.925 14.2875C8.8125 14.1375 8.55 14.1 8.4 14.25L7.0875 15.3C7.0125 15.3375 6.975 15.4125 6.975 15.4875L6.525 16.875C4.7625 16.3125 3.2625 15.1875 2.25 13.725L3.075 12.2625L4.725 11.175L6.45 12.9L5.55 13.6125C5.4 13.725 5.3625 13.9875 5.475 14.1375C5.5875 14.2875 5.85 14.325 6 14.2125L8.25 12.4125L10.35 14.175C10.3875 14.325 10.2375 13.9875 11.9625 16.6875C11.025 17.0625 10.05 17.25 9 17.25C8.4 17.25 7.8 17.175 7.2375 17.0625ZM17.1 10.5L15.075 10.125L14.8125 8.4L16.6875 5.9625C17.0625 6.9 17.2875 7.95 17.2875 9C17.25 9.525 17.2125 10.0125 17.1 10.5ZM9.3375 0.75L7.575 3.975C7.5 4.125 7.5375 4.3125 7.65 4.425L9.225 5.9625C9.375 6.1125 9.6 6.1125 9.75 5.9625C9.9 5.8125 9.9 5.5875 9.75 5.4375L8.4 4.0875L10.125 0.825C10.575 0.9 11.0625 0.975 11.475 1.125L12.675 2.775C12.675 2.8125 12.7125 2.8125 12.75 2.85L13.3875 3.375V5.325L12.8625 5.85C12.7875 5.925 12.75 6.0375 12.75 6.1875C12.7875 6.3 12.8625 6.4125 12.9375 6.45L13.2 6.6L12.7125 7.35C12.6 7.5375 12.675 7.7625 12.825 7.875C13.0125 7.9875 13.2375 7.9125 13.35 7.7625L14.0625 6.6375C14.1 6.5625 14.1375 6.45 14.1 6.3375C14.0625 6.225 13.9875 6.15 13.9125 6.1125L13.7625 6L14.025 5.7375C14.1 5.6625 14.1375 5.5875 14.1375 5.475V3.1875C14.1375 3.075 14.1 2.9625 13.9875 2.8875L13.275 2.2875L12.825 1.6875C14.2875 2.475 15.525 3.675 16.275 5.175L14.0625 8.0625C13.9875 8.1375 13.9875 8.25 13.9875 8.3625L14.325 10.5C14.3625 10.65 14.475 10.7625 14.625 10.8L16.875 11.2125C16.2375 13.4625 14.6625 15.3375 12.6 16.3875L11.1 14.0625L12.6375 13.425H12.75H14.7375C14.9625 13.425 15.1125 13.275 15.1125 13.05C15.1125 12.825 14.9625 12.675 14.7375 12.675H12.975L12.6 11.7375L13.875 10.2C14.025 10.05 13.9875 9.7875 13.8375 9.675C13.6875 9.525 13.425 9.5625 13.3125 9.7125L11.8875 11.4C11.8125 11.5125 11.775 11.6625 11.8125 11.775L12.225 12.75L10.65 13.3875L8.85 11.85L9.225 11.55C9.3 11.475 9.375 11.3625 9.375 11.25C9.375 11.1375 9.3 11.025 9.225 10.95L7.95 10.0125L8.325 7.875L9.7125 8.1375C9.8625 8.175 9.975 8.1 10.0875 7.9875L11.625 6C11.7 5.8875 11.7375 5.7375 11.6625 5.625L11.5125 5.325L11.85 4.8C11.9625 4.6125 11.925 4.3875 11.7375 4.275C11.55 4.1625 11.325 4.2 11.2125 4.3875L10.7625 5.0625C10.6875 5.175 10.6875 5.2875 10.725 5.4L10.8375 5.7L9.5625 7.35L8.025 7.0875C7.9125 7.0875 7.8375 7.0875 7.725 7.1625C7.6125 7.2375 7.575 7.3125 7.575 7.3875L7.0875 10.125C7.05 10.275 7.125 10.3875 7.2375 10.5L8.325 11.2875L6.975 12.375L4.9875 10.3875C4.875 10.275 4.65 10.2375 4.5 10.35L2.5125 11.6625C2.475 11.7 2.4375 11.7375 2.4 11.775L1.7625 12.9375C1.3875 12.225 1.0875 11.475 0.9 10.65L3.225 9.5625C3.4125 9.4875 3.4875 9.2625 3.4125 9.1125L2.925 7.7625L4.35 5.0625L6.0375 6.9375C6.1875 7.0875 6.4125 7.0875 6.5625 6.975C6.7125 6.825 6.7125 6.6 6.6 6.45L4.725 4.3875L4.9125 4.05C4.9875 3.9375 4.9875 3.825 4.9125 3.7125L4.2375 2.25C5.5875 1.3125 7.2375 0.75 9 0.75C9.1125 0.75 9.225 0.75 9.3375 0.75ZM3.6375 2.7375L4.2 3.9L2.25 7.6125C2.2125 7.6875 2.175 7.8 2.2125 7.9125L2.625 9.075L0.7875 9.9375C0.7875 9.6375 0.75 9.3 0.75 9C0.75 6.4875 1.875 4.2375 3.6375 2.7375Z" fill="#6C8A96"/>
</svg>
