<svg width="24" height="24" viewBox="0 0 24 24" fill="none" xmlns="http://www.w3.org/2000/svg">
<g clip-path="url(#clip0_14_1425)">
<path d="M12 24C18.7 24 24 18.55 24 12C24 5.35 18.55 0 12 0C5.4 0 0 5.4 0 12C0 18.65 5.4 24 12 24ZM9.65 22.75L10.2 21.05L11.85 19.75C12.05 19.6 12.1 19.25 11.9 19.05C11.75 18.85 11.4 18.8 11.2 19L9.45 20.4C9.35 20.45 9.3 20.55 9.3 20.65L8.7 22.5C6.35 21.75 4.35 20.25 3 18.3L4.1 16.35L6.3 14.9L8.6 17.2L7.4 18.15C7.2 18.3 7.15 18.65 7.3 18.85C7.45 19.05 7.8 19.1 8 18.95L11 16.55L13.8 18.9C13.85 19.1 13.65 18.65 15.95 22.25C14.7 22.75 13.4 23 12 23C11.2 23 10.4 22.9 9.65 22.75ZM22.8 14L20.1 13.5L19.75 11.2L22.25 7.95C22.75 9.2 23.05 10.6 23.05 12C23 12.7 22.95 13.35 22.8 14ZM12.45 1L10.1 5.3C10 5.5 10.05 5.75 10.2 5.9L12.3 7.95C12.5 8.15 12.8 8.15 13 7.95C13.2 7.75 13.2 7.45 13 7.25L11.2 5.45L13.5 1.1C14.1 1.2 14.75 1.3 15.3 1.5L16.9 3.7C16.9 3.75 16.95 3.75 17 3.8L17.85 4.5V7.1L17.15 7.8C17.05 7.9 17 8.05 17 8.25C17.05 8.4 17.15 8.55 17.25 8.6L17.6 8.8L16.95 9.8C16.8 10.05 16.9 10.35 17.1 10.5C17.35 10.65 17.65 10.55 17.8 10.35L18.75 8.85C18.8 8.75 18.85 8.6 18.8 8.45C18.75 8.3 18.65 8.2 18.55 8.15L18.35 8L18.7 7.65C18.8 7.55 18.85 7.45 18.85 7.3V4.25C18.85 4.1 18.8 3.95 18.65 3.85L17.7 3.05L17.1 2.25C19.05 3.3 20.7 4.9 21.7 6.9L18.75 10.75C18.65 10.85 18.65 11 18.65 11.15L19.1 14C19.15 14.2 19.3 14.35 19.5 14.4L22.5 14.95C21.65 17.95 19.55 20.45 16.8 21.85L14.8 18.75L16.85 17.9H17H19.65C19.95 17.9 20.15 17.7 20.15 17.4C20.15 17.1 19.95 16.9 19.65 16.9H17.3L16.8 15.65L18.5 13.6C18.7 13.4 18.65 13.05 18.45 12.9C18.25 12.7 17.9 12.75 17.75 12.95L15.85 15.2C15.75 15.35 15.7 15.55 15.75 15.7L16.3 17L14.2 17.85L11.8 15.8L12.3 15.4C12.4 15.3 12.5 15.15 12.5 15C12.5 14.85 12.4 14.7 12.3 14.6L10.6 13.35L11.1 10.5L12.95 10.85C13.15 10.9 13.3 10.8 13.45 10.65L15.5 8C15.6 7.85 15.65 7.65 15.55 7.5L15.35 7.1L15.8 6.4C15.95 6.15 15.9 5.85 15.65 5.7C15.4 5.55 15.1 5.6 14.95 5.85L14.35 6.75C14.25 6.9 14.25 7.05 14.3 7.2L14.45 7.6L12.75 9.8L10.7 9.45C10.55 9.45 10.45 9.45 10.3 9.55C10.15 9.65 10.1 9.75 10.1 9.85L9.45 13.5C9.4 13.7 9.5 13.85 9.65 14L11.1 15.05L9.3 16.5L6.65 13.85C6.5 13.7 6.2 13.65 6 13.8L3.35 15.55C3.3 15.6 3.25 15.65 3.2 15.7L2.35 17.25C1.85 16.3 1.45 15.3 1.2 14.2L4.3 12.75C4.55 12.65 4.65 12.35 4.55 12.15L3.9 10.35L5.8 6.75L8.05 9.25C8.25 9.45 8.55 9.45 8.75 9.3C8.95 9.1 8.95 8.8 8.8 8.6L6.3 5.85L6.55 5.4C6.65 5.25 6.65 5.1 6.55 4.95L5.65 3C7.45 1.75 9.65 1 12 1C12.15 1 12.3 1 12.45 1ZM4.85 3.65L5.6 5.2L3 10.15C2.95 10.25 2.9 10.4 2.95 10.55L3.5 12.1L1.05 13.25C1.05 12.85 1 12.4 1 12C1 8.65 2.5 5.65 4.85 3.65Z" fill="#4C4C4E"/>
</g>
<defs>
<clipPath id="clip0_14_1425">
<rect width="24" height="24" fill="white"/>
</clipPath>
</defs>
</svg>
