<svg width="18" height="18" viewBox="0 0 18 18" fill="none" xmlns="http://www.w3.org/2000/svg">
<path d="M17.9998 8.9983C17.9998 8.88169 17.9538 8.76909 17.8704 8.68548L9.315 0.129607C9.2316 0.0462026 9.1188 0.000199997 9.0022 0.000199997L8.9988 0C7.7842 0 6.6056 0.238013 5.496 0.707439C4.4244 1.16086 3.462 1.8097 2.6358 2.63615C1.8096 3.46259 1.1608 4.42505 0.7074 5.49671C0.238 6.60677 0 7.78543 0 9.0001C0 10.2152 0.238 11.394 0.7074 12.5039C1.1608 13.5758 1.8096 14.5382 2.636 15.3645C3.4624 16.1907 4.4248 16.8395 5.4968 17.2928C6.6066 17.762 7.7854 18 9.0004 18C10.2152 18 11.3938 17.762 12.5034 17.2928C13.5752 16.8395 14.5376 16.1909 15.364 15.3647C16.1904 14.5384 16.8392 13.5762 17.2926 12.5045C17.762 11.395 18 10.2166 18 9.0019L17.9998 8.9983ZM9.1202 1.18587L16.8146 8.88069C13.9502 10.1396 11.5522 7.96244 10.6186 6.91898C9.367 5.51971 8.1496 3.42979 9.1202 1.18587ZM9.0004 17.1155C4.5254 17.1155 0.8846 13.4749 0.8846 9.0001C0.8846 4.77007 4.1372 1.28547 8.2722 0.916851C7.8496 1.93251 7.766 2.99277 8.0248 4.07863C8.298 5.22509 8.9488 6.37915 9.9592 7.50862C11.035 8.71128 12.275 9.54313 13.5452 9.91415C14.0518 10.0622 14.5616 10.1366 15.0668 10.1366C15.2582 10.1366 15.4492 10.126 15.639 10.1046C16.1284 10.0494 16.6118 9.92255 17.0832 9.72634C16.7154 13.8622 13.2308 17.1155 9.0004 17.1155Z" fill="#69828C"/>
<path d="M4.88396 3.49045C4.04556 4.11748 3.35096 4.94033 2.87496 5.86998C2.63176 6.34461 2.44456 6.84784 2.31836 7.36526C2.18836 7.89769 2.12256 8.44792 2.12256 9.00096C2.12256 9.24517 2.32056 9.44338 2.56496 9.44338C2.80916 9.44338 3.00736 9.24537 3.00736 9.00096C3.00736 7.09345 3.88456 5.34315 5.41416 4.19909C5.60976 4.05268 5.64976 3.77547 5.50336 3.57985C5.35676 3.38404 5.07956 3.34424 4.88396 3.49045Z" fill="#69828C"/>
</svg>
