<svg width="18" height="14" viewBox="0 0 18 14" fill="none" xmlns="http://www.w3.org/2000/svg">
<g clip-path="url(#clip0_284_25)">
<path d="M3.00293 8.06648C4.3747 8.06648 5.49059 6.94573 5.49059 5.56832C5.49059 4.48094 3.97739 1.65288 3.32683 0.487365C3.25918 0.366242 3.13805 0.293945 3.00301 0.293945C2.8679 0.293945 2.74676 0.366242 2.67912 0.487365C2.02856 1.65279 0.515448 4.48085 0.515448 5.56832C0.515448 6.94573 1.63134 8.06648 3.00293 8.06648ZM3.00229 0.680031C4.02419 2.51065 5.11613 4.75609 5.11613 5.56832C5.11613 6.7329 4.16809 7.68039 3.00293 7.68039C1.83776 7.68039 0.889908 6.7329 0.889908 5.56832C0.889908 4.75599 1.98184 2.51055 3.00229 0.680031ZM2.81579 7.04338C2.81579 6.93668 2.89962 6.85034 3.00301 6.85034C3.37428 6.85034 3.72964 6.69406 3.97811 6.42165C4.04888 6.34398 4.16772 6.3403 4.24269 6.41326C4.31802 6.48631 4.32168 6.60847 4.25092 6.68615C3.93204 7.03585 3.47713 7.23642 3.00301 7.23642C2.89962 7.23642 2.81579 7.15009 2.81579 7.04338ZM4.24653 5.96648C4.27212 5.88975 4.29023 5.81038 4.30047 5.73064C4.314 5.62507 4.40798 5.54984 4.51055 5.56455C4.61313 5.5785 4.68517 5.67549 4.67164 5.78116C4.65811 5.88635 4.63434 5.99098 4.60051 6.09203C4.57382 6.17205 4.50122 6.22239 4.42352 6.22239C4.40341 6.22239 4.38275 6.21899 4.36263 6.21183C4.26481 6.17714 4.21289 6.06733 4.24653 5.96648ZM9.08799 8.06648C10.4597 8.06648 11.5756 6.94573 11.5756 5.56832C11.5756 4.48142 10.0626 1.65298 9.41184 0.487365C9.34414 0.366242 9.22315 0.293945 9.08799 0.293945C8.95291 0.293945 8.83185 0.366242 8.76399 0.487459C8.11349 1.65298 6.60044 4.48142 6.60044 5.56832C6.60044 6.94573 7.71633 8.06648 9.08799 8.06648ZM9.08729 0.679937C10.1092 2.51083 11.2011 4.75646 11.2011 5.56832C11.2011 6.7329 10.2533 7.68039 9.08799 7.68039C7.92277 7.68039 6.9749 6.7329 6.9749 5.56832C6.9749 4.75646 8.06684 2.51083 9.08729 0.679937ZM8.90079 7.04338C8.90079 6.93668 8.98453 6.85034 9.08799 6.85034C9.45934 6.85034 9.81465 6.69406 10.0631 6.42165C10.1339 6.34398 10.2529 6.3403 10.3276 6.41326C10.403 6.48631 10.4067 6.60847 10.3359 6.68615C10.017 7.03585 9.5621 7.23642 9.08799 7.23642C8.98453 7.23642 8.90079 7.15009 8.90079 7.04338ZM10.3316 5.96648C10.3569 5.88984 10.3752 5.81038 10.3856 5.73026C10.3993 5.6246 10.4937 5.55089 10.5961 5.56455C10.6987 5.57878 10.7705 5.67587 10.7568 5.78154C10.7431 5.88692 10.7192 5.99136 10.6855 6.09203C10.6588 6.17205 10.5862 6.22239 10.5085 6.22239C10.4884 6.22239 10.4677 6.21899 10.4476 6.21183C10.3498 6.17714 10.2979 6.06733 10.3316 5.96648ZM15.173 8.06648C16.5447 8.06648 17.6606 6.94573 17.6606 5.56832C17.6606 4.48142 16.1475 1.65298 15.4969 0.487365C15.4292 0.366242 15.3081 0.293945 15.1732 0.293945C15.0381 0.293945 14.917 0.366242 14.8494 0.487365C14.1987 1.65269 12.6854 4.48047 12.6854 5.56832C12.6854 6.94573 13.8013 8.06648 15.173 8.06648ZM15.1723 0.679937C16.1942 2.51083 17.2861 4.75646 17.2861 5.56832C17.2861 6.7329 16.3382 7.68039 15.173 7.68039C14.0078 7.68039 13.0599 6.7329 13.0599 5.56832C13.0599 4.75581 14.1519 2.51036 15.1723 0.679937ZM14.9858 7.04338C14.9858 6.93668 15.0695 6.85034 15.173 6.85034C15.5444 6.85034 15.8996 6.69406 16.1481 6.42165C16.219 6.34398 16.3377 6.3403 16.4127 6.41326C16.488 6.48631 16.4916 6.60847 16.4209 6.68615C16.102 7.03585 15.6471 7.23642 15.173 7.23642C15.0695 7.23642 14.9858 7.15009 14.9858 7.04338ZM16.4165 5.96619C16.4419 5.8905 16.4602 5.81113 16.4707 5.73026C16.4843 5.6246 16.5778 5.55089 16.6811 5.56455C16.7837 5.57878 16.8555 5.67587 16.8418 5.78154C16.8279 5.88795 16.804 5.99249 16.7705 6.09231C16.7436 6.17224 16.671 6.22239 16.5935 6.22239C16.5732 6.22239 16.5525 6.2189 16.5322 6.21174C16.4347 6.17686 16.3827 6.06695 16.4165 5.96619ZM0.371826 9.53225C0.371826 9.4255 0.455659 9.33914 0.559057 9.33914C1.31612 9.33914 1.69826 9.54669 2.06778 9.7475C2.41216 9.93466 2.73744 10.1113 3.4018 10.1113C4.06606 10.1113 4.39116 9.93466 4.73563 9.7475C5.10498 9.54669 5.48712 9.33914 6.2439 9.33914C7.00087 9.33914 7.38301 9.54669 7.75253 9.7475C8.09698 9.93466 8.42231 10.1113 9.08674 10.1113C9.75118 10.1113 10.0767 9.93466 10.4211 9.7475C10.7906 9.54669 11.1728 9.33914 11.93 9.33914C12.6871 9.33914 13.0694 9.54669 13.4389 9.7475C13.7834 9.93466 14.1089 10.1113 14.7735 10.1113C15.4382 10.1113 15.7636 9.93449 16.1081 9.7475C16.4776 9.54669 16.8597 9.33914 17.6169 9.33914C17.7204 9.33914 17.8041 9.4255 17.8041 9.53225C17.8041 9.63891 17.7204 9.72527 17.6169 9.72527C16.9524 9.72527 16.6269 9.90194 16.2825 10.0891C15.913 10.2898 15.5307 10.4975 14.7735 10.4975C14.0163 10.4975 13.634 10.2898 13.2645 10.0891C12.92 9.90194 12.5945 9.72527 11.93 9.72527C11.2654 9.72527 10.94 9.90194 10.5955 10.0891C10.226 10.2898 9.84391 10.4975 9.08674 10.4975C8.3298 10.4975 7.94765 10.2898 7.5781 10.0891C7.23363 9.90194 6.90835 9.72527 6.2439 9.72527C5.57963 9.72527 5.25454 9.90194 4.91007 10.0891C4.54072 10.2898 4.15858 10.4975 3.4018 10.4975C2.64483 10.4975 2.26269 10.2898 1.89317 10.0891C1.54878 9.90194 1.2235 9.72527 0.559057 9.72527C0.455659 9.72527 0.371826 9.63891 0.371826 9.53225ZM17.8041 12.2821C17.8041 12.3889 17.7204 12.4751 17.6169 12.4751C16.9524 12.4751 16.6269 12.6518 16.2825 12.839C15.913 13.0398 15.5307 13.2473 14.7735 13.2473C14.0163 13.2473 13.634 13.0398 13.2645 12.839C12.92 12.6518 12.5945 12.4751 11.93 12.4751C11.2654 12.4751 10.94 12.6518 10.5955 12.839C10.226 13.0398 9.84391 13.2473 9.08674 13.2473C8.3298 13.2473 7.94765 13.0398 7.5781 12.839C7.23363 12.6518 6.90835 12.4751 6.2439 12.4751C5.57963 12.4751 5.25454 12.6518 4.91007 12.839C4.54072 13.0398 4.15858 13.2473 3.4018 13.2473C2.64483 13.2473 2.26269 13.0398 1.89317 12.839C1.54878 12.6518 1.2235 12.4751 0.559057 12.4751C0.455659 12.4751 0.371826 12.3889 0.371826 12.2821C0.371826 12.1754 0.455659 12.0891 0.559057 12.0891C1.31612 12.0891 1.69826 12.2966 2.06778 12.4974C2.41216 12.6846 2.73744 12.8613 3.4018 12.8613C4.06606 12.8613 4.39116 12.6846 4.73563 12.4974C5.10498 12.2966 5.48712 12.0891 6.2439 12.0891C7.00087 12.0891 7.38301 12.2966 7.75253 12.4974C8.09698 12.6846 8.42231 12.8613 9.08674 12.8613C9.75118 12.8613 10.0767 12.6846 10.4211 12.4974C10.7906 12.2966 11.1728 12.0891 11.93 12.0891C12.6871 12.0891 13.0694 12.2966 13.4389 12.4974C13.7834 12.6846 14.1089 12.8613 14.7735 12.8613C15.4382 12.8613 15.7636 12.6844 16.1081 12.4974C16.4776 12.2966 16.8597 12.0891 17.6169 12.0891C17.7204 12.0891 17.8041 12.1754 17.8041 12.2821Z" fill="#69828C"/>
</g>
<defs>
<clipPath id="clip0_284_25">
<rect width="18" height="14" fill="white"/>
</clipPath>
</defs>
</svg>
