<svg width="18" height="14" viewBox="0 0 18 14" fill="none" xmlns="http://www.w3.org/2000/svg">
<g clip-path="url(#clip0_285_8)">
<path d="M1.86931 6.12887C1.66008 6.12887 1.45492 6.04482 1.30257 5.88777C0.693174 5.26623 -0.342797 3.84842 0.112218 2.94155C0.368165 2.43281 1.05475 1.92408 2.15776 1.43084C3.06575 1.02606 4.18501 0.66995 5.22911 0.453186C6.91714 0.103709 9.14548 -0.239132 11.4226 0.225363C12.6414 0.475305 13.7566 0.939799 14.7377 1.60779C15.8631 2.37531 16.8421 3.4348 17.6486 4.75308L18 5.33038L17.4068 5.08265C17.4028 5.08044 16.9336 4.88579 14.9835 4.08951C13.0679 3.30873 11.0874 2.68276 7.94295 3.61617C6.66116 3.99661 5.36114 4.60709 4.10376 5.19767C3.42936 5.51396 2.79152 5.81257 2.17807 6.06694C2.07244 6.10896 1.97087 6.12887 1.86931 6.12887ZM9.07239 0.453186C7.7337 0.453186 6.43976 0.654467 5.30223 0.888923C4.28455 1.09906 3.19373 1.44632 2.3101 1.84003C1.32492 2.2802 0.670828 2.7469 0.467699 3.15168C0.301131 3.48346 0.494106 3.98113 0.683017 4.34167C0.940995 4.8305 1.31476 5.29278 1.57883 5.56263C1.69259 5.67986 1.87337 5.71525 2.02572 5.65331C2.63309 5.40116 3.26482 5.10477 3.93516 4.79068C5.20473 4.19348 6.51902 3.57857 7.82916 3.18928C9.29989 2.75354 10.6426 2.6164 11.9325 2.76902C13.1269 2.91059 14.169 3.28882 15.1176 3.6759C15.9768 4.02537 16.5497 4.25983 16.9214 4.41245C14.756 1.29812 11.8207 0.453186 9.07239 0.453186ZM10.545 11.382C9.28768 11.382 7.90836 11.0568 6.49054 10.4177C4.2378 9.40464 2.84026 9.7629 2.82807 9.76738L2.72853 9.33828C2.78947 9.32057 4.25811 8.93347 6.64695 10.0085C10.2525 11.632 13.3584 11.1232 14.955 8.64815L15.2882 8.90253C14.4431 10.212 13.1756 11.0414 11.6237 11.298C11.2763 11.3533 10.9167 11.382 10.545 11.382Z" fill="#69828C"/>
<path d="M3.69946 11.7205L3.50445 11.3335C4.31901 10.8491 4.71105 10.0395 4.87153 9.60151L5.24935 9.76517C5.06856 10.2585 4.62574 11.1676 3.69946 11.7205ZM16.1393 10.9908C15.1074 10.8249 14.5549 10.1061 14.3192 9.69244L14.6646 9.45794C14.8636 9.80745 15.3288 10.4135 16.2002 10.5528L16.1393 10.9908ZM5.73075 13.2711L5.48293 12.9215C6.52497 12.0456 6.76263 10.7517 6.80937 10.3757L7.2116 10.4354C7.15876 10.8535 6.89467 12.2934 5.73075 13.2711ZM14.4553 12.8774C13.6854 12.3731 13.1045 11.3269 12.8262 10.7496L13.1857 10.5438C13.4437 11.0813 13.98 12.0501 14.6645 12.4992L14.4553 12.8774ZM11.8533 13.9391C11.0936 13.0101 10.8843 11.6918 10.8275 11.1676L11.2317 11.1167C11.2825 11.5989 11.4755 12.811 12.1559 13.6449L11.8533 13.9391ZM8.37955 13.9194L8.06268 13.6451C8.80615 12.6277 8.84272 11.2762 8.84272 11.0152H9.24895C9.24895 11.4177 9.18601 12.8156 8.37955 13.9194ZM1.92214 4.93008C1.90182 4.86814 1.42243 3.37955 2.01354 2.63194L2.32028 2.92169C1.95464 3.38176 2.18418 4.42135 2.30199 4.78188L1.92214 4.93008ZM3.2241 4.25094C3.21394 4.18901 2.99456 2.72696 3.63443 1.99483L3.92897 2.30007C3.42927 2.87073 3.62224 4.16247 3.62427 4.17574L3.2241 4.25094ZM4.67449 3.53427C4.67449 3.51879 4.66027 3.13835 4.70699 2.70703C4.77402 2.07664 4.92638 1.6785 5.17216 1.48829L5.4078 1.84882C5.14779 2.0501 5.06044 2.94591 5.08075 3.51658L4.67449 3.53427ZM6.26909 2.85303C6.25893 2.72475 6.1919 1.58563 6.72817 1.10786L6.98615 1.4507C6.66929 1.73383 6.65303 2.53453 6.67334 2.81986L6.26909 2.85303ZM8.08505 2.50802L7.68288 2.44609C7.69915 2.32665 7.8535 1.27379 8.42429 0.961914L8.60712 1.35784C8.28209 1.53479 8.11958 2.24923 8.08505 2.50802ZM9.56793 2.31558L9.1718 2.22047C9.18196 2.17402 9.40747 1.10569 10.3398 0.999511L10.3825 1.43968C9.7426 1.51046 9.57404 2.2824 9.56793 2.31558ZM11.0162 2.33988L10.6913 2.07445C10.7095 2.04791 11.1625 1.39983 11.845 1.30029L11.8999 1.73825C11.3839 1.81345 11.0203 2.33545 11.0162 2.33988ZM12.5784 2.56544L12.3773 2.18057C12.4423 2.14076 13.0273 1.78465 13.4701 1.85542L13.4113 2.29338C13.1513 2.25135 12.7226 2.47475 12.5784 2.56544ZM14.8209 3.08527C14.6524 2.97688 14.3273 3.02554 14.2278 3.04987L14.1343 2.61856C14.1912 2.60528 14.6909 2.48584 15.0281 2.7026L14.8209 3.08527Z" fill="#69828C"/>
</g>
<defs>
<clipPath id="clip0_285_8">
<rect width="18" height="14" fill="white"/>
</clipPath>
</defs>
</svg>
