<svg width="24" height="16" viewBox="0 0 24 16" fill="none" xmlns="http://www.w3.org/2000/svg">
<path d="M22.9784 3.78332C22.4251 3.34296 21.6957 2.8118 20.9124 2.28972C19.9822 1.66777 17.7057 0.201407 16.6335 0.0379736C14.92 -0.220796 2.53377 0.918698 1.1189 1.16839C0.27194 1.3182 0.0663194 2.19893 0.0173621 2.71193C-0.100136 3.9513 0.384542 6.026 1.29515 6.34832C1.349 6.36648 1.40775 6.37556 1.4665 6.37556C1.50567 6.37556 1.54483 6.37102 1.584 6.36194C5.92652 5.37226 14.5626 3.51547 16.4621 3.51547C16.4817 3.51547 16.4964 3.51547 16.5111 3.51547C17.8721 3.54271 19.8843 4.29632 21.3579 4.84564C22.5329 5.286 23.1154 5.49938 23.4777 5.47668C23.7666 5.46306 23.982 5.2633 23.9967 5.00454C24.0261 4.74577 23.8743 4.49608 22.9784 3.78332ZM16.5454 2.60751C16.5258 2.60751 16.5062 2.60751 16.4866 2.60751C14.1367 2.60751 3.36605 5.02723 1.58889 5.42674C1.28536 5.04085 0.810471 3.53817 1.04057 2.51218C1.08463 2.30788 1.17765 2.08089 1.30494 2.05819C2.4995 1.84482 12.7757 0.900539 15.7963 0.900539C16.1048 0.900539 16.3349 0.909619 16.4768 0.932318C17.0252 1.01403 18.4547 1.78126 20.1193 2.8799C20.7361 3.28848 21.2795 3.66983 21.7251 4.00124C20.1829 3.42014 18.0826 2.63475 16.5454 2.60751Z" fill="#4C4C4E"/>
<path d="M20.0592 10.2344C20.6614 9.93481 21.2831 9.61249 21.9147 9.25838C22.1448 9.12672 22.2182 8.8498 22.0811 8.63642C21.9391 8.42305 21.6405 8.35496 21.4104 8.48207C17.4938 10.6748 14.2039 11.7235 11.3448 11.6872C8.96055 11.6554 7.32047 10.8519 6.00352 10.2117C4.92156 9.68058 3.98158 9.2266 2.99754 9.39457C2.73317 9.43997 2.55692 9.67604 2.60588 9.92573C2.65484 10.1709 2.90942 10.3343 3.17868 10.2889C3.5067 10.2344 3.85919 10.298 4.25085 10.4342L2.68911 12.3954C2.52755 12.5951 2.57651 12.8812 2.79192 13.031C2.88004 13.09 2.98285 13.1218 3.08077 13.1218C3.23253 13.1218 3.37941 13.0582 3.47732 12.9356L5.15656 10.8246C5.28385 10.8836 5.41603 10.9517 5.54822 11.0153C5.88602 11.1833 6.24831 11.3558 6.63507 11.5283L5.29364 14.0751C5.17614 14.3021 5.27406 14.5745 5.51884 14.6835C5.58738 14.7152 5.66082 14.7289 5.73426 14.7289C5.9154 14.7289 6.09164 14.6335 6.17487 14.4746L7.53589 11.896C8.00098 12.0685 8.50524 12.2229 9.05356 12.3409L8.28004 15.1919C8.21639 15.4371 8.37306 15.6822 8.63743 15.7412C8.67659 15.7503 8.71576 15.7549 8.75982 15.7549C8.98013 15.7549 9.17596 15.6187 9.23471 15.4098L10.0229 12.5043C10.4391 12.5588 10.8748 12.5906 11.3399 12.5951C11.3986 12.5951 11.4525 12.5951 11.5112 12.5951C11.5651 12.5951 11.614 12.5951 11.6679 12.5951L11.849 15.5733C11.8637 15.8139 12.234 16 12.3386 16C12.4433 16 12.3582 16 12.368 16C12.6372 15.9864 12.8429 15.773 12.8282 15.5233L12.647 12.5452C13.2149 12.4953 13.8024 12.409 14.3997 12.2864L15.2809 15.4825C15.3397 15.6868 15.5355 15.823 15.7558 15.823C15.795 15.823 15.8391 15.8184 15.8782 15.8093C16.1426 15.7458 16.2993 15.5006 16.2307 15.2555L15.3495 12.0594C15.8244 11.9323 16.3042 11.7871 16.7986 11.6191L18.3457 14.5382C18.4289 14.6971 18.6051 14.7924 18.7863 14.7924C18.8597 14.7924 18.9332 14.7788 19.0017 14.747C19.2465 14.6381 19.3444 14.3657 19.2269 14.1387L17.7141 11.2831C18.189 11.097 18.6737 10.8927 19.1682 10.6657L21.4104 12.8721C21.5083 12.9674 21.6356 13.0128 21.7678 13.0128C21.8902 13.0128 22.0077 12.972 22.1056 12.8902C22.3014 12.7177 22.3112 12.4317 22.1252 12.2501L20.0592 10.2344Z" fill="#4C4C4E"/>
</svg>
