<svg width="28" height="18" viewBox="0 0 28 18" fill="none" xmlns="http://www.w3.org/2000/svg">
<path d="M7.81135 5.94911C7.81135 5.94911 5.02563 8.99247 5.02563 13.2928C5.02563 15.0158 5.64871 15.5587 6.33307 15.5587C6.90321 15.5587 7.21427 15.1811 7.21427 14.4257C7.21427 12.966 4.67556 13.3168 7.81135 5.94911Z" stroke="#4C4C4E" stroke-width="0.7" stroke-miterlimit="10" stroke-linecap="round" stroke-linejoin="round"/>
<path d="M17.2501 2.10526C17.2501 2.10526 13.0715 7.81913 13.0715 13.2937C13.0715 15.0158 13.6955 15.5587 14.3799 15.5587C14.9491 15.5587 15.2611 15.1811 15.2611 14.4257C15.2611 13.3725 14.5312 13.6551 14.5312 11.7831C14.5312 6.47379 17.2501 2.10526 17.2501 2.10526Z" stroke="#4C4C4E" stroke-width="0.7" stroke-miterlimit="10" stroke-linecap="round" stroke-linejoin="round"/>
<path d="M25.2668 1.00002C25.2668 1.00002 20.9644 7.81913 20.9644 13.2937C20.9644 15.0158 21.5874 15.5587 22.2718 15.5587C22.841 15.5587 23.153 15.1811 23.153 14.4257C23.153 13.3725 22.4231 13.6551 22.4231 11.7831C22.4231 6.47379 25.2668 1.00002 25.2668 1.00002Z" stroke="#4C4C4E" stroke-width="0.7" stroke-miterlimit="10" stroke-linecap="round" stroke-linejoin="round"/>
<path d="M27 11.7147C26.1002 11.7147 25.5217 11.3342 25.0054 11.2611C24.8856 11.2458 24.7696 11.2342 24.6572 11.2342C24.5811 11.2342 24.4966 11.2611 24.4093 11.2996C24.0676 11.4572 23.8865 11.8493 23.9775 12.2259C24.0137 12.3682 24.0611 12.445 24.1224 12.5411C24.3229 12.8563 24.6572 13.3791 24.6572 14.3093C24.6572 16.1697 23.4863 17 22.3237 17C21.8669 17 19.5705 16.8155 19.5705 13.1562C19.5705 12.445 19.7952 11.9723 19.5668 11.6148C19.4906 11.4995 19.3672 11.3957 19.1657 11.2996C19.083 11.2611 18.9957 11.2342 18.9196 11.2342C18.862 11.2342 18.7942 11.239 18.7209 11.2477C18.1349 11.3178 17.5276 11.3198 16.9408 11.2515C16.8461 11.24 16.7542 11.2342 16.6632 11.2342C16.587 11.2342 16.5034 11.2611 16.4161 11.2996C16.0744 11.4572 15.8924 11.8493 15.9834 12.2259C16.0196 12.3682 16.067 12.445 16.1292 12.5411C16.3289 12.8563 16.6632 13.3791 16.6632 14.3093C16.6632 16.1697 15.4931 17 14.3306 17C13.8728 17 11.5755 16.8155 11.5755 13.1562C11.5755 12.445 11.8011 11.9723 11.5727 11.6148C11.4956 11.4995 11.3721 11.3957 11.1725 11.2996C11.0889 11.2611 11.0016 11.2342 10.9255 11.2342C10.8382 11.2342 10.7184 11.2458 10.5875 11.265C10.0675 11.3342 9.53357 11.3342 9.01821 11.2611C8.8975 11.2458 8.78143 11.2342 8.66908 11.2342C8.59293 11.2342 8.50936 11.2611 8.42208 11.2996C8.08036 11.4572 7.89928 11.8493 7.98935 12.2259C8.02649 12.3682 8.07386 12.445 8.13515 12.5411C8.33479 12.8563 8.66908 13.3791 8.66908 14.3093C8.66908 16.1697 7.49999 17 6.33649 17C5.87871 17 3.58235 16.8155 3.58235 13.1562C3.58235 12.2106 3.97885 11.684 3.17935 11.2996C3.09578 11.2611 3.0085 11.2342 2.93235 11.2342C2.23035 11.2342 1.585 11.7147 1 11.7147" stroke="#4C4C4E" stroke-width="0.7" stroke-miterlimit="10" stroke-linecap="round" stroke-linejoin="round"/>
</svg>
