<svg width="18" height="11" viewBox="0 0 18 11" fill="none" xmlns="http://www.w3.org/2000/svg">
<path d="M2.6048 8.67967C2.93882 8.67967 3.2096 8.4051 3.2096 8.0664C3.2096 7.7277 2.93882 7.45312 2.6048 7.45312C2.27078 7.45312 2 7.7277 2 8.0664C2 8.4051 2.27078 8.67967 2.6048 8.67967Z" fill="#6C8A96"/>
<path d="M9.42624 10.3439C9.66164 10.3439 9.85248 10.1504 9.85248 9.91171C9.85248 9.673 9.66164 9.47949 9.42624 9.47949C9.19083 9.47949 9 9.673 9 9.91171C9 10.1504 9.19083 10.3439 9.42624 10.3439Z" fill="#6C8A96"/>
<path d="M13.5299 8.52782C13.8226 8.52782 14.0598 8.28724 14.0598 7.99047C14.0598 7.6937 13.8226 7.45312 13.5299 7.45312C13.2373 7.45312 13 7.6937 13 7.99047C13 8.28724 13.2373 8.52782 13.5299 8.52782Z" fill="#6C8A96"/>
<path d="M10.5 8.01336C10.7761 8.01336 11 7.78651 11 7.50668C11 7.22685 10.7761 7 10.5 7C10.2239 7 10 7.22685 10 7.50668C10 7.78651 10.2239 8.01336 10.5 8.01336Z" fill="#6C8A96"/>
<path d="M6.5 9.01336C6.77614 9.01336 7 8.78651 7 8.50668C7 8.22685 6.77614 8 6.5 8C6.22386 8 6 8.22685 6 8.50668C6 8.78651 6.22386 9.01336 6.5 9.01336Z" fill="#6C8A96"/>
<path d="M17.591 10.9998H0.40896C0.300497 10.9998 0.196476 10.9732 0.119782 10.9256C0.0430867 10.8781 0 10.8137 0 10.7465C0 10.6793 0.0430867 10.6149 0.119782 10.5674C0.196476 10.5199 0.300497 10.4932 0.40896 10.4932H17.591C17.6995 10.4932 17.8035 10.5199 17.8802 10.5674C17.9569 10.6149 18 10.6793 18 10.7465C18 10.8137 17.9569 10.8781 17.8802 10.9256C17.8035 10.9732 17.6995 10.9998 17.591 10.9998Z" fill="#6C8A96"/>
<path d="M0.408959 5H5.04863C5.01933 5.17073 4.97122 5.34002 4.90463 5.50668H0.408959C0.300497 5.50668 0.196476 5.47999 0.119781 5.43248C0.0430867 5.38497 0 5.32053 0 5.25334C0 5.18615 0.0430867 5.12171 0.119781 5.0742C0.196476 5.02669 0.300497 5 0.408959 5Z" fill="#6C8A96"/>
<path d="M18 5.2592C18 5.29247 17.9895 5.32541 17.9689 5.35615C17.9484 5.38689 17.9182 5.41481 17.8803 5.43834C17.8423 5.46186 17.7972 5.48052 17.7476 5.49326C17.698 5.50599 17.6448 5.51254 17.5911 5.51254L12 5.49326C12.0253 5.32484 12.0061 5.17496 12 5.00586H17.5911C17.6448 5.00586 17.698 5.01241 17.7476 5.02514C17.7972 5.03788 17.8423 5.05654 17.8803 5.08006C17.9182 5.10359 17.9484 5.13151 17.9689 5.16225C17.9895 5.19299 18 5.22593 18 5.2592Z" fill="#6C8A96"/>
<path d="M7.88755 1.01372C7.79948 0.978023 7.69732 1.01423 7.65393 1.09629C6.38645 3.49256 5.99439 5.6861 5.87351 6.78043C5.84385 7.04975 5.71081 7.29872 5.49879 7.48157C5.16169 7.77248 4.98049 8.18937 5.00167 8.62526C5.03812 9.37347 5.67624 9.97705 6.45436 9.99932C6.46981 9.99972 6.48517 10 6.50063 10C6.89298 10 7.26222 9.85621 7.54467 9.59232C7.83822 9.31791 7.99997 8.94991 7.99997 8.55602C7.99997 8.13698 7.8108 7.7393 7.48096 7.46489C7.23159 7.25735 7.08809 6.97215 7.08709 6.68254C7.07838 3.90111 7.98144 1.25825 7.99059 1.23184C8.02084 1.14445 7.97594 1.04924 7.88755 1.01372ZM7.24169 7.73144C7.49095 7.93882 7.63401 8.23945 7.63401 8.55602C7.63401 8.85382 7.51176 9.13207 7.28974 9.33945C7.06789 9.54682 6.77689 9.65658 6.46525 9.6472C5.88691 9.63064 5.39435 9.16486 5.36727 8.60875C5.35128 8.27907 5.48825 7.96386 5.74306 7.74393C6.02263 7.50276 6.1982 7.17376 6.23751 6.81768C6.32051 6.06576 6.53458 4.78307 7.08487 3.27306C6.88876 4.2449 6.7173 5.45061 6.72114 6.68356C6.72239 7.0753 6.91218 7.45715 7.24169 7.73144Z" fill="#69828C"/>
<path d="M11.8875 0.0137176C11.7995 -0.0219772 11.6973 0.0142337 11.6539 0.0962882C10.3865 2.49256 9.99439 4.6861 9.87351 5.78043C9.84385 6.04975 9.71081 6.29872 9.49879 6.48157C9.16169 6.77248 8.98049 7.18937 9.00167 7.62526C9.03812 8.37347 9.67624 8.97705 10.4544 8.99932C10.4698 8.99972 10.4852 9 10.5006 9C10.893 9 11.2622 8.85621 11.5447 8.59232C11.8382 8.31791 12 7.94991 12 7.55602C12 7.13698 11.8108 6.7393 11.481 6.46489C11.2316 6.25735 11.0881 5.97215 11.0871 5.68254C11.0784 2.90111 11.9814 0.25825 11.9906 0.231844C12.0208 0.144455 11.9759 0.0492401 11.8875 0.0137176ZM11.2417 6.73144C11.491 6.93882 11.634 7.23945 11.634 7.55602C11.634 7.85382 11.5118 8.13207 11.2897 8.33945C11.0679 8.54682 10.7769 8.65658 10.4653 8.6472C9.88691 8.63064 9.39435 8.16486 9.36727 7.60875C9.35128 7.27907 9.48825 6.96386 9.74306 6.74393C10.0226 6.50276 10.1982 6.17376 10.2375 5.81768C10.3205 5.06576 10.5346 3.78307 11.0849 2.27306C10.8888 3.2449 10.7173 4.45061 10.7211 5.68356C10.7224 6.0753 10.9122 6.45715 11.2417 6.73144Z" fill="#69828C"/>
</svg>
