<svg width="22" height="21" viewBox="0 0 22 21" fill="none" xmlns="http://www.w3.org/2000/svg">
<path d="M15 7.78444C15 9.56 13.4332 11 11.5 11C9.56683 11 8 9.56 8 7.78444C8 7.23555 8.15168 6.71666 8.41535 6.26332L11.5 1L14.5835 6.26332C14.8483 6.71666 15 7.23555 15 7.78444Z" stroke="#4C4C4E" stroke-width="0.7" stroke-miterlimit="10" stroke-linecap="round" stroke-linejoin="round"/>
<path d="M1 12.6316H21" stroke="#4C4C4E" stroke-width="0.7" stroke-miterlimit="10" stroke-linecap="round" stroke-linejoin="round"/>
<path d="M19.498 17.8947L17.998 20L16.498 17.8947" stroke="#4C4C4E" stroke-width="0.7" stroke-miterlimit="10" stroke-linecap="round" stroke-linejoin="round"/>
<path d="M12.999 17.8947L11.499 20L9.99902 17.8947" stroke="#4C4C4E" stroke-width="0.7" stroke-miterlimit="10" stroke-linecap="round" stroke-linejoin="round"/>
<path d="M6.00195 17.8947L4.50195 20L3.00195 17.8947" stroke="#4C4C4E" stroke-width="0.7" stroke-miterlimit="10" stroke-linecap="round" stroke-linejoin="round"/>
<path d="M18.002 20V14.7368" stroke="#4C4C4E" stroke-width="0.7" stroke-miterlimit="10" stroke-linecap="round" stroke-linejoin="round"/>
<path d="M11.498 20V14.7368" stroke="#4C4C4E" stroke-width="0.7" stroke-miterlimit="10" stroke-linecap="round" stroke-linejoin="round"/>
<path d="M4.50098 20L4.50098 14.7368" stroke="#4C4C4E" stroke-width="0.7" stroke-miterlimit="10" stroke-linecap="round" stroke-linejoin="round"/>
</svg>
