<svg width="18" height="14" viewBox="0 0 18 14" fill="none" xmlns="http://www.w3.org/2000/svg">
<g clip-path="url(#clip0_284_33)">
<path d="M8.79276 8.40053C7.42349 8.40053 6.30958 7.18924 6.30958 5.70053C6.30958 4.52581 7.81993 1.46884 8.46954 0.209048C8.53708 0.0781383 8.65792 0 8.79276 0C8.92761 0 9.04844 0.0781383 9.11621 0.20915C9.76562 1.46884 11.276 4.52581 11.276 5.70053C11.276 7.18924 10.162 8.40053 8.79276 8.40053ZM8.79347 0.417179C7.77339 2.396 6.68338 4.82308 6.68338 5.70053C6.68338 6.9592 7.62956 7.98325 8.79276 7.98325C9.95595 7.98325 10.9021 6.9592 10.9021 5.70053C10.9021 4.82308 9.81211 2.396 8.79347 0.417179ZM8.97965 7.29478C8.97965 7.17945 8.89607 7.08614 8.79276 7.08614C8.42204 7.08614 8.06744 6.91723 7.81938 6.62281C7.74875 6.53886 7.62993 6.53488 7.55528 6.61374C7.48008 6.69269 7.47643 6.82472 7.54706 6.90867C7.86537 7.28662 8.31952 7.50341 8.79276 7.50341C8.89607 7.50341 8.97965 7.4101 8.97965 7.29478ZM7.55144 6.13085C7.52607 6.04803 7.50782 5.96215 7.49742 5.87556C7.48373 5.76135 7.38955 5.68168 7.28734 5.69645C7.18495 5.71184 7.11321 5.81677 7.1269 5.93097C7.14059 6.04487 7.16451 6.15774 7.19809 6.26655C7.22474 6.35304 7.2972 6.40744 7.37477 6.40744C7.39484 6.40744 7.41547 6.40378 7.43555 6.39603C7.53319 6.35855 7.58502 6.23986 7.55144 6.13085ZM17.4936 9.98471C17.4936 9.86939 17.4099 9.77602 17.3067 9.77602C16.5509 9.77602 16.1695 10.0004 15.8006 10.2174C15.4568 10.4197 15.1321 10.6106 14.4689 10.6106C13.8058 10.6106 13.4814 10.4197 13.1375 10.2174C12.7688 10.0004 12.3873 9.77602 11.6318 9.77602C10.8762 9.77602 10.4948 10.0004 10.1259 10.2174C9.78206 10.4197 9.45735 10.6106 8.79401 10.6106C8.13075 10.6106 7.80588 10.4197 7.46201 10.2174C7.09314 10.0004 6.71167 9.77602 5.95585 9.77602C5.20004 9.77602 4.81839 10.0004 4.44952 10.2174C4.10565 10.4197 3.78076 10.6106 3.11731 10.6106C2.45384 10.6106 2.12896 10.4195 1.7851 10.2174C1.41622 10.0004 1.03475 9.77602 0.278941 9.77602C0.175635 9.77602 0.092041 9.86939 0.092041 9.98471C0.092041 10.1 0.175635 10.1933 0.278941 10.1933C0.942219 10.1933 1.2671 10.3842 1.61097 10.5865C1.97984 10.8035 2.3615 11.0279 3.11731 11.0279C3.87312 11.0279 4.25477 10.8035 4.62364 10.5865C4.96751 10.3842 5.2924 10.1933 5.95585 10.1933C6.61913 10.1933 6.94402 10.3842 7.28788 10.5865C7.65676 10.8035 8.03825 11.0279 8.79401 11.0279C9.5497 11.0279 9.93114 10.8035 10.3 10.5865C10.6439 10.3842 10.9686 10.1933 11.6318 10.1933C12.2949 10.1933 12.6195 10.3842 12.9634 10.5865C13.332 10.8035 13.7135 11.0279 14.4689 11.0279C15.2246 11.0279 15.6061 10.8035 15.9749 10.5865C16.3187 10.3842 16.6434 10.1933 17.3067 10.1933C17.4099 10.1933 17.4936 10.1 17.4936 9.98471ZM0.092041 12.9568C0.092041 13.0722 0.175635 13.1654 0.278941 13.1654C0.942219 13.1654 1.2671 13.3563 1.61097 13.5586C1.97984 13.7756 2.3615 14 3.11731 14C3.87312 14 4.25477 13.7756 4.62364 13.5586C4.96751 13.3563 5.2924 13.1654 5.95585 13.1654C6.61913 13.1654 6.94402 13.3563 7.28788 13.5586C7.65676 13.7756 8.03825 14 8.79401 14C9.5497 14 9.93114 13.7756 10.3 13.5586C10.6439 13.3563 10.9686 13.1654 11.6318 13.1654C12.2949 13.1654 12.6195 13.3563 12.9634 13.5586C13.332 13.7756 13.7135 14 14.4689 14C15.2246 14 15.6061 13.7756 15.9749 13.5586C16.3187 13.3563 16.6434 13.1654 17.3067 13.1654C17.4099 13.1654 17.4936 13.0722 17.4936 12.9568C17.4936 12.8415 17.4099 12.7481 17.3067 12.7481C16.5509 12.7481 16.1695 12.9725 15.8006 13.1895C15.4568 13.3918 15.1321 13.5827 14.4689 13.5827C13.8058 13.5827 13.4814 13.3918 13.1375 13.1895C12.7688 12.9725 12.3873 12.7481 11.6318 12.7481C10.8762 12.7481 10.4948 12.9725 10.1259 13.1895C9.78206 13.3918 9.45735 13.5827 8.79401 13.5827C8.13075 13.5827 7.80588 13.3918 7.46201 13.1895C7.09314 12.9725 6.71167 12.7481 5.95585 12.7481C5.20004 12.7481 4.81839 12.9725 4.44952 13.1895C4.10565 13.3918 3.78076 13.5827 3.11731 13.5827C2.45384 13.5827 2.12896 13.3916 1.7851 13.1895C1.41622 12.9725 1.03475 12.7481 0.278941 12.7481C0.175635 12.7481 0.092041 12.8415 0.092041 12.9568Z" fill="#69828C"/>
</g>
<defs>
<clipPath id="clip0_284_33">
<rect width="18" height="14" fill="white"/>
</clipPath>
</defs>
</svg>
