<svg width="10" height="16" viewBox="0 0 10 16" fill="none" xmlns="http://www.w3.org/2000/svg">
<path d="M4.54114 0.097084H0.201829C0.0904192 0.097084 0 0.171687 0 0.263608V15.7364C0 15.8285 0.0904192 15.9029 0.201829 15.9029H4.54114C4.65255 15.9029 4.74297 15.8285 4.74297 15.7364V0.263608C4.74297 0.171687 4.65255 0.097084 4.54114 0.097084ZM4.33932 15.5699H0.403657V14.985H1.46326C1.57467 14.985 1.66509 14.9106 1.66509 14.8185C1.66509 14.7264 1.57467 14.652 1.46326 14.652H0.403657V13.9359H1.46326C1.57467 13.9359 1.66509 13.8615 1.66509 13.7694C1.66509 13.6773 1.57467 13.6029 1.46326 13.6029H0.403657V12.8868H1.46326C1.57467 12.8868 1.66509 12.8124 1.66509 12.7203C1.66509 12.6282 1.57467 12.5538 1.46326 12.5538H0.403657V11.8379H1.46326C1.57467 11.8379 1.66509 11.7635 1.66509 11.6714C1.66509 11.5793 1.57467 11.5048 1.46326 11.5048H0.403657V10.7888H1.46326C1.57467 10.7888 1.66509 10.7143 1.66509 10.6223C1.66509 10.5302 1.57467 10.4557 1.46326 10.4557H0.403657V9.73985H1.46326C1.57467 9.73985 1.66509 9.66541 1.66509 9.57332C1.66509 9.48124 1.57467 9.4068 1.46326 9.4068H0.403657V8.69074H1.46326C1.57467 8.69074 1.66509 8.61631 1.66509 8.52422C1.66509 8.43213 1.57467 8.35769 1.46326 8.35769H0.403657V7.64181H1.46326C1.57467 7.64181 1.66509 7.5672 1.66509 7.47528C1.66509 7.38336 1.57467 7.30876 1.46326 7.30876H0.403657V6.5927H1.46326C1.57467 6.5927 1.66509 6.5181 1.66509 6.42618C1.66509 6.33426 1.57467 6.25965 1.46326 6.25965H0.403657V5.5436H1.46326C1.57467 5.5436 1.66509 5.469 1.66509 5.37707C1.66509 5.28515 1.57467 5.21055 1.46326 5.21055H0.403657V4.49466H1.46326C1.57467 4.49466 1.66509 4.42006 1.66509 4.32814C1.66509 4.23622 1.57467 4.16161 1.46326 4.16161H0.403657V3.44556H1.46326C1.57467 3.44556 1.66509 3.37095 1.66509 3.27903C1.66509 3.18711 1.57467 3.11251 1.46326 3.11251H0.403657V2.39662H1.46326C1.57467 2.39662 1.66509 2.32202 1.66509 2.2301C1.66509 2.13817 1.57467 2.06357 1.46326 2.06357H0.403657V1.34752H1.46326C1.57467 1.34752 1.66509 1.27291 1.66509 1.18099C1.66509 1.08907 1.57467 1.01447 1.46326 1.01447H0.403657V0.430133H4.33932V15.5699Z" fill="black"/>
<path d="M9.28532 0H7.57664C7.18267 0 6.86217 0.264441 6.86217 0.589496V1.52353V13.7892C6.86217 13.7922 6.86398 13.7946 6.86419 13.7974C6.86479 13.8085 6.86863 13.8194 6.87226 13.8304C6.87569 13.841 6.87831 13.8517 6.88417 13.8615C6.88578 13.8643 6.88558 13.8672 6.8874 13.8698L8.25418 15.9139C8.25801 15.9194 8.26306 15.9236 8.2673 15.9284C8.27093 15.9327 8.27436 15.9369 8.2786 15.9407C8.29414 15.9559 8.3117 15.9689 8.33209 15.9784C8.33269 15.9785 8.33289 15.979 8.3335 15.9794C8.34359 15.9838 8.35429 15.9863 8.36458 15.9895C8.36962 15.991 8.37447 15.9933 8.37972 15.9945C8.39667 15.998 8.41383 16 8.43078 16H8.43118C8.44814 16 8.46529 15.998 8.48225 15.9945C8.48749 15.9933 8.49234 15.991 8.49738 15.9895C8.50788 15.9863 8.51837 15.984 8.52846 15.9794C8.52907 15.979 8.52927 15.9785 8.52988 15.9784C8.55026 15.9689 8.56782 15.9559 8.58336 15.9409C8.5876 15.9369 8.59103 15.9327 8.59487 15.9284C8.5991 15.9234 8.60435 15.9192 8.60778 15.9139L9.97477 13.8698C9.97659 13.8672 9.97638 13.8643 9.978 13.8615C9.98365 13.8517 9.98647 13.8413 9.98991 13.8305C9.99354 13.8195 9.99737 13.8087 9.99798 13.7974C9.99818 13.7946 10 13.7922 10 13.7892V1.52353V0.589496C9.9998 0.264441 9.67949 0 9.28532 0ZM8.90286 14.783H7.95931L7.4061 13.9557H7.96133H8.90084H9.45607L8.90286 14.783ZM8.43098 15.4886L8.18192 15.1163H8.68024L8.43098 15.4886ZM9.59614 1.69006V13.6227H9.10267V1.69006H9.59614ZM8.69901 13.6229H8.16315V1.69006H8.69901V13.6229ZM7.7595 13.6229H7.26603V1.69006H7.7595V13.6229ZM7.57684 0.333049H9.28552C9.45708 0.333049 9.59634 0.448117 9.59634 0.589496V1.35701H8.90104H7.96153H7.26623V0.589496C7.26603 0.448117 7.40529 0.333049 7.57684 0.333049Z" fill="black"/>
</svg>
