<svg width="17" height="18" viewBox="0 0 17 18" fill="none" xmlns="http://www.w3.org/2000/svg">
<path d="M14.8792 5.944V2.756C14.8792 2.604 14.7943 2.472 14.672 2.404C12.8908 0.826 10.5749 0.028 8.25509 0.01C8.22748 0.00400004 8.19986 0 8.17224 0C8.14265 0 8.11701 0.00400004 8.08939 0.01C5.76762 0.028 3.45373 0.826 1.67246 2.404C1.54818 2.472 1.46533 2.604 1.46533 2.756V5.944C1.46533 8.702 2.63115 11.23 4.58799 12.884C4.47752 14.142 4.03171 16.07 2.41416 17.278C2.27805 17.38 2.22085 17.562 2.27411 17.726C2.32737 17.89 2.47729 18 2.6489 18H13.6956C13.8652 18 14.0171 17.89 14.0704 17.726C14.1236 17.562 14.0664 17.38 13.9303 17.278C12.3128 16.07 11.867 14.142 11.7565 12.884C13.7133 11.23 14.8792 8.702 14.8792 5.944ZM12.6639 17.2H3.67861C4.74975 16.026 5.17189 14.576 5.32772 13.438C5.54866 13.586 5.77551 13.728 6.01222 13.856C6.68883 14.218 7.43054 14.4 8.17224 14.4C8.91395 14.4 9.65565 14.218 10.3323 13.856C10.569 13.728 10.7958 13.586 11.0168 13.438C11.1726 14.576 11.5928 16.026 12.6639 17.2ZM10.1172 13.058C10.06 12.908 9.91801 12.8 9.75034 12.8C9.53138 12.8 9.35582 12.98 9.35582 13.2V13.408C8.58649 13.662 7.75799 13.662 6.98867 13.408V13.2C6.98867 12.98 6.81113 12.8 6.59415 12.8C6.42647 12.8 6.28247 12.908 6.22724 13.058C4.58207 12.124 3.16342 10.1851 2.53613 8.37513C2.53613 8.09104 2.53613 8.37513 2.53613 8.09104C2.42335 8.09104 2.53613 8.01211 2.53613 8.09104L2.50096 8C2.34118 7.34 2.25438 6.65 2.25438 5.944V2.952C3.80289 1.606 5.77748 0.892 7.77772 0.81V2C7.77772 2.222 7.95328 2.4 8.17224 2.4C8.38923 2.4 8.56677 2.222 8.56677 2V0.81C10.567 0.892 12.5416 1.606 14.0901 2.952V5.944C14.0901 6.65 14.0033 7.34 13.8435 8V8.02002C13.8082 8.09104 13.8082 8.09104 13.8082 8.37513C13.8082 8.37513 13.6932 8.56048 13.6127 8.792C12.9835 10.602 11.7604 12.124 10.1172 13.058Z" fill="#69828C"/>
<path d="M12.0314 5.62229C11.7375 5.93029 11.3489 6.10029 10.9346 6.10029C10.5204 6.10029 10.1317 5.93029 9.83783 5.62229C9.68593 5.46429 9.43541 5.46029 9.27957 5.61229C9.12176 5.76629 9.11782 6.02029 9.26971 6.17829C9.71355 6.64429 10.3053 6.90029 10.9346 6.90029C11.5639 6.90029 12.1557 6.64429 12.5995 6.17829C12.7494 6.02029 12.7455 5.76629 12.5896 5.61229C12.4318 5.46029 12.1833 5.46429 12.0314 5.62229Z" fill="#69828C"/>
<path d="M6.50794 5.62229C6.21402 5.93029 5.82542 6.10029 5.41117 6.10029C4.99692 6.10029 4.60831 5.93029 4.31439 5.62229C4.1625 5.46429 3.91197 5.46029 3.75614 5.61229C3.59833 5.76629 3.59438 6.02029 3.74627 6.17829C4.19011 6.64429 4.7819 6.90029 5.41117 6.90029C6.04043 6.90029 6.63222 6.64429 7.07606 6.17829C7.22598 6.02029 7.22203 5.76629 7.06619 5.61229C6.90839 5.46029 6.65984 5.46429 6.50794 5.62229Z" fill="#69828C"/>
<path d="M16.0276 10.1091L15.83 9.40723C15.8282 9.40078 15.8232 9.39637 15.8208 9.39026C15.8143 9.37331 15.8062 9.35787 15.7954 9.34315C15.7887 9.3338 15.7824 9.32532 15.7743 9.3173C15.7621 9.30513 15.7479 9.29583 15.7326 9.28696C15.7254 9.28265 15.7203 9.27577 15.7128 9.2726C15.7091 9.27105 15.7048 9.27178 15.7011 9.27046C15.6969 9.26901 15.6938 9.26563 15.6893 9.26434C15.676 9.26048 15.6629 9.26238 15.6495 9.26122C15.6382 9.26041 15.6274 9.25755 15.616 9.25869C15.5923 9.26073 15.5702 9.26793 15.5489 9.27781C15.5447 9.27981 15.5397 9.27937 15.5355 9.2816L15.5323 9.2834L14.9403 9.60713C14.8396 9.66221 14.8007 9.79026 14.8536 9.89247C14.9068 9.99527 15.0317 10.0333 15.1321 9.97865L15.2388 9.92036C14.9856 10.4648 14.5735 11.0687 14.1319 11.4112C14.0409 11.4819 14.0223 11.6143 14.0905 11.7067C14.1186 11.7444 14.1563 11.7696 14.1977 11.7816C14.2578 11.799 14.3252 11.7883 14.3793 11.7464C14.8812 11.3574 15.3234 10.7076 15.5999 10.1193L15.6309 10.2293C15.6511 10.3013 15.7057 10.3534 15.7716 10.3724C15.8077 10.3829 15.8471 10.3834 15.8859 10.3716C15.9957 10.338 16.059 10.2207 16.0276 10.1091Z" fill="#69828C"/>
<path d="M2.12282 11.6387C1.68096 11.2962 1.26909 10.6923 1.0159 10.1479L1.12241 10.2062C1.22338 10.2612 1.34797 10.223 1.40088 10.12C1.45399 10.0178 1.41516 9.88971 1.3144 9.83463L0.719012 9.50916C0.714187 9.5066 0.708739 9.50695 0.703757 9.50468C0.683028 9.49536 0.661928 9.48813 0.638943 9.48613C0.627083 9.48511 0.61604 9.48781 0.604254 9.48875C0.591067 9.48984 0.578281 9.48811 0.56514 9.49191C0.560685 9.49319 0.55777 9.49651 0.553381 9.49802C0.549659 9.49934 0.545576 9.49855 0.541697 9.50016C0.533938 9.5034 0.528972 9.51051 0.521918 9.51453C0.506605 9.5234 0.492377 9.5327 0.480236 9.5451C0.472151 9.55311 0.465663 9.56165 0.458923 9.57101C0.448387 9.58566 0.44018 9.60088 0.433671 9.61782C0.431312 9.62394 0.426365 9.62858 0.424517 9.63479L0.226919 10.3367C0.195499 10.4482 0.258748 10.5655 0.368185 10.5986C0.406962 10.6103 0.446345 10.6098 0.48265 10.5993C0.548355 10.5803 0.603183 10.5282 0.62343 10.4561L0.654415 10.3464C0.930936 10.9347 1.37319 11.5845 1.87506 11.9735C1.92894 12.0155 1.99632 12.0262 2.05668 12.0087C2.09789 11.9968 2.136 11.9715 2.16384 11.9338C2.23258 11.8416 2.21403 11.7094 2.12282 11.6387Z" fill="#69828C"/>
<path d="M13.5518 7.70205C13.6489 7.7067 13.7361 7.76233 13.7631 7.84476C13.7964 7.94628 13.7251 8.0494 13.6034 8.07517C13.5335 8.08997 13.4648 8.10632 13.3973 8.12401C13.2772 8.15583 13.1481 8.1001 13.108 8.00018C13.068 7.90026 13.1322 7.7936 13.2518 7.76218C13.3273 7.74232 13.4041 7.724 13.4823 7.70747C13.5057 7.70261 13.5292 7.70096 13.5518 7.70205ZM12.5067 8.05826C12.5807 8.06181 12.6517 8.0951 12.693 8.15217C12.7587 8.24264 12.7244 8.35885 12.6167 8.41155C12.5553 8.4417 12.4954 8.47321 12.4364 8.50625C12.3326 8.56383 12.1901 8.54056 12.1186 8.45323C12.047 8.3661 12.0729 8.24821 12.1765 8.19019C12.2428 8.15323 12.3101 8.1178 12.3792 8.08396C12.4189 8.0643 12.4633 8.05618 12.5067 8.05826ZM11.6285 8.64538C11.6812 8.64791 11.7334 8.66535 11.7748 8.69808C11.8674 8.77063 11.873 8.89089 11.7871 8.9662C11.7382 9.00934 11.6904 9.05359 11.6434 9.09916C11.5625 9.17813 11.418 9.18636 11.3217 9.11748C11.2251 9.04879 11.2124 8.92884 11.2936 8.84989C11.3452 8.79962 11.3976 8.75089 11.4519 8.70332C11.4994 8.66161 11.5644 8.64231 11.6285 8.64538ZM10.9554 9.39798C10.9916 9.39971 11.028 9.4085 11.0614 9.42526C11.1703 9.47959 11.2072 9.59623 11.1436 9.68584C11.1069 9.73746 11.0712 9.78998 11.0363 9.84339C10.9769 9.93491 10.8384 9.96778 10.7271 9.91633C10.6158 9.8653 10.5739 9.74971 10.6335 9.65819C10.671 9.60042 10.7094 9.54397 10.7491 9.48844C10.7929 9.4267 10.8735 9.39405 10.9554 9.39798ZM10.4641 10.2451C10.4885 10.2463 10.5137 10.2509 10.5378 10.2591C10.6553 10.2987 10.7136 10.4095 10.6679 10.5064C10.6413 10.563 10.6154 10.6202 10.5898 10.6784C10.5471 10.7763 10.4153 10.8254 10.2977 10.788C10.1788 10.7507 10.1176 10.641 10.1602 10.5433C10.1868 10.4823 10.2143 10.4221 10.2424 10.3626C10.2787 10.2856 10.3693 10.2406 10.4641 10.2451ZM10.113 11.1415C10.1294 11.1423 10.146 11.1445 10.1626 11.1485C10.2845 11.1772 10.3573 11.2821 10.325 11.3829C10.306 11.4422 10.2874 11.5021 10.2694 11.5625C10.2394 11.6638 10.1151 11.724 9.99312 11.6973C9.8706 11.6705 9.79547 11.5665 9.82572 11.4653C9.84438 11.4025 9.86352 11.3405 9.8834 11.2791C9.91144 11.1918 10.0085 11.1365 10.113 11.1415ZM9.86649 12.0631C9.87728 12.0636 9.88803 12.0648 9.89901 12.0666C10.0231 12.0873 10.1054 12.1875 10.0825 12.2902C10.0688 12.3506 10.0559 12.4119 10.0438 12.4732C10.0232 12.5762 9.90554 12.643 9.78105 12.6252C9.65664 12.606 9.57252 12.5072 9.59307 12.4042C9.60585 12.3406 9.61938 12.2776 9.63314 12.2148C9.65378 12.121 9.75455 12.0577 9.86649 12.0631Z" fill="#69828C"/>
<path d="M6.68913 12.3389C6.67306 12.4249 6.60822 12.4948 6.52429 12.5071C6.42091 12.5223 6.32836 12.444 6.31755 12.3317C6.31136 12.2671 6.3035 12.2035 6.29418 12.1407C6.27727 12.0289 6.34718 11.9216 6.4498 11.9001C6.55242 11.8786 6.64927 11.9512 6.66585 12.0624C6.67634 12.1327 6.68516 12.2039 6.69207 12.2761C6.69405 12.2977 6.69288 12.3189 6.68913 12.3389ZM6.46427 11.3549C6.45203 11.4205 6.41099 11.4791 6.3502 11.5078C6.25378 11.5536 6.14403 11.5063 6.1052 11.4026C6.08295 11.3435 6.05921 11.2855 6.03384 11.2282C5.98976 11.1272 6.02947 11.0033 6.1235 10.9519C6.21732 10.9005 6.32972 10.9405 6.37425 11.0413C6.40258 11.1058 6.42929 11.1709 6.45424 11.2374C6.46878 11.2757 6.47146 11.3165 6.46427 11.3549ZM5.99345 10.487C5.98473 10.5336 5.96145 10.5777 5.92447 10.61C5.84243 10.6823 5.72397 10.6702 5.66041 10.5827C5.62396 10.5329 5.5863 10.4838 5.54723 10.4354C5.4795 10.3519 5.48858 10.2217 5.56748 10.1456C5.64622 10.0691 5.7652 10.075 5.8329 10.1588C5.87602 10.2119 5.91751 10.2658 5.95768 10.321C5.99288 10.3694 6.00408 10.4301 5.99345 10.487ZM5.33622 9.77844C5.33022 9.81051 5.3173 9.84174 5.29691 9.8692C5.23078 9.95863 5.11215 9.97495 5.03194 9.9053C4.98573 9.86519 4.93853 9.82584 4.89036 9.78701C4.80777 9.72091 4.79201 9.5926 4.85562 9.50058C4.91881 9.40847 5.037 9.38758 5.11955 9.45391C5.17169 9.49562 5.22241 9.538 5.2721 9.58135C5.32736 9.62931 5.34978 9.70588 5.33622 9.77844ZM4.5648 9.21873C4.56076 9.24034 4.55323 9.26222 4.54235 9.28253C4.48963 9.38181 4.37416 9.41805 4.2847 9.36337C4.23244 9.33153 4.17942 9.30026 4.12553 9.26906C4.03474 9.21695 4.00219 9.09228 4.05283 8.99261C4.10348 8.89176 4.21818 8.85278 4.30876 8.90485C4.36543 8.93729 4.42109 8.97048 4.47605 9.004C4.5472 9.04744 4.5805 9.13479 4.5648 9.21873ZM3.72855 8.77719C3.72583 8.79174 3.72161 8.80625 3.71573 8.82045C3.67317 8.92519 3.56178 8.97516 3.46696 8.93194C3.41114 8.9065 3.35461 8.88139 3.29758 8.85666C3.20196 8.81541 3.15772 8.69582 3.19842 8.59073C3.2392 8.48518 3.34993 8.43296 3.44551 8.47444C3.50474 8.50006 3.56326 8.52602 3.62103 8.55254C3.70317 8.59005 3.74586 8.68461 3.72855 8.77719ZM2.85511 8.42539C2.85332 8.43494 2.85091 8.44438 2.84784 8.45393C2.81286 8.56176 2.70492 8.62086 2.60708 8.58579C2.54953 8.56496 2.49103 8.54466 2.43239 8.52504C2.33396 8.49197 2.28255 8.37738 2.31467 8.26877C2.34825 8.16044 2.45503 8.09946 2.55346 8.13253C2.61429 8.15304 2.67437 8.17411 2.7342 8.19537C2.82363 8.2272 2.87365 8.32621 2.85511 8.42539Z" fill="#69828C"/>
</svg>
