<svg width="22" height="30" viewBox="0 0 22 30" fill="none" xmlns="http://www.w3.org/2000/svg">
<path d="M1 16.3568C1 15.0036 1 12.5771 1 10.9589C1 6.62197 4.249 0.83935 11 0.83935C17.751 0.83935 21 6.62197 21 10.9589C21 13.3057 21 15.3759 21 17.1627" stroke="#4C4C4E" stroke-width="0.77" stroke-miterlimit="10" stroke-linecap="round" stroke-linejoin="round"/>
<path d="M1 26.9189C1 26.9189 1 24.6037 1 23.0782" stroke="#4C4C4E" stroke-width="0.77" stroke-miterlimit="10" stroke-linecap="round" stroke-linejoin="round"/>
<path d="M21 26.9189C21 26.9189 21 24.6037 21 23.0782" stroke="#4C4C4E" stroke-width="0.77" stroke-miterlimit="10" stroke-linecap="round" stroke-linejoin="round"/>
<path d="M4 10.5956C5.686 8.23404 8.267 6.75479 11 6.75479C13.733 6.75479 16.314 8.23404 18 10.5956" stroke="#4C4C4E" stroke-width="0.77" stroke-miterlimit="10" stroke-linecap="round" stroke-linejoin="round"/>
<path d="M20 20.1975C19.3835 21.5061 18.3802 22.9178 17 24.0383Z" fill="#4C4C4E"/>
<path d="M20 20.1975C19.3835 21.5061 18.3802 22.9178 17 24.0383" stroke="#4C4C4E" stroke-width="0.77" stroke-miterlimit="10" stroke-linecap="round" stroke-linejoin="round"/>
<path d="M3 21.1577C3.41103 22.1391 4.07985 23.1979 5 24.0383Z" fill="#4C4C4E"/>
<path d="M3 21.1577C3.41103 22.1391 4.07985 23.1979 5 24.0383" stroke="#4C4C4E" stroke-width="0.77" stroke-miterlimit="10" stroke-linecap="round" stroke-linejoin="round"/>
<path d="M17.8824 16.6768C17.8824 18.0004 15.6991 23.0781 11 23.0781C6.302 23.0781 4.11765 18.0004 4.11765 16.6768C4.11765 16.6768 2 15.9077 2 13.7223C2 12.5524 2.864 12.2451 3.58824 12.2451V9.41573C3.58824 8.5028 3.90483 7.62041 4.49777 6.89165C6.01824 5.01951 7.81294 3.87416 11 3.87416C13.5867 3.87416 15.9818 5.01951 17.5022 6.89165C18.0952 7.62041 18.4118 8.5028 18.4118 9.41573V12.2451C19.136 12.2451 20 12.5524 20 13.7223C20 15.9077 17.8824 16.6768 17.8824 16.6768Z" stroke="#4C4C4E" stroke-width="0.77" stroke-miterlimit="10" stroke-linecap="round" stroke-linejoin="round"/>
<path d="M14 23.0782C14 25.1768 15.5478 28.8394 21 28.8394" stroke="#4C4C4E" stroke-width="0.77" stroke-miterlimit="10" stroke-linecap="round" stroke-linejoin="round"/>
<path d="M8 23.0782C8 25.3674 6.4533 28.8394 1 28.8394" stroke="#4C4C4E" stroke-width="0.77" stroke-miterlimit="10" stroke-linecap="round" stroke-linejoin="round"/>
<path d="M18 20.4258L20.4351 18.2772L21 21.1578L18 20.4258Z" fill="url(#paint0_linear_14_1506)"/>
<path d="M18 20.4258L20.4351 18.2772L21 21.1578L18 20.4258Z" fill="#4C4C4E" stroke="#4C4C4E" stroke-width="0.77" stroke-miterlimit="10" stroke-linejoin="round"/>
<path d="M4 20.1818L1.5649 17.317L1 21.1578L4 20.1818Z" fill="#4C4C4E"/>
<path d="M4 20.1818L1.5649 17.317L1 21.1578L4 20.1818Z" fill="#4C4C4E" stroke="#4C4C4E" stroke-width="0.77" stroke-miterlimit="10" stroke-linejoin="round"/>
<path d="M12.0309 3.87429C13.2232 4.10597 14.0058 4.68036 14 5.32038C13.9922 5.95848 13.198 6.52996 12 6.75488" stroke="#4C4C4E" stroke-width="0.77" stroke-miterlimit="10" stroke-linecap="round" stroke-linejoin="round"/>
<path d="M9 19.0261C10.152 20.2808 11.858 20.2709 13 19" stroke="#4C4C4E" stroke-width="0.77" stroke-miterlimit="10" stroke-linecap="round" stroke-linejoin="round"/>
<path d="M9 13.7518C8.625 14.2349 7.875 14.7191 7.5 14.712C7.125 14.7048 6.375 14.236 6 13.7518" stroke="#4C4C4E" stroke-width="0.77" stroke-miterlimit="10" stroke-linecap="round" stroke-linejoin="round"/>
<path d="M16 13.7518C15.625 14.2349 14.875 14.7191 14.5 14.712C14.125 14.7048 13.375 14.236 13 13.7518" stroke="#4C4C4E" stroke-width="0.77" stroke-miterlimit="10" stroke-linecap="round" stroke-linejoin="round"/>
<path d="M6 10.8713C6.97997 10.4573 8.1095 10.5536 9 10.8713" stroke="#4C4C4E" stroke-width="0.77" stroke-miterlimit="10" stroke-linecap="round" stroke-linejoin="round"/>
<path d="M13 10.8713C13.98 10.4573 15.1095 10.5536 16 10.8713" stroke="#4C4C4E" stroke-width="0.77" stroke-miterlimit="10" stroke-linecap="round" stroke-linejoin="round"/>
<defs>
<linearGradient id="paint0_linear_14_1506" x1="18.75" y1="18.2772" x2="20.1549" y2="21.2035" gradientUnits="userSpaceOnUse">
<stop stop-color="#53389E"/>
<stop offset="1" stop-color="#6941C6"/>
</linearGradient>
</defs>
</svg>
