<svg width="20" height="10" viewBox="0 0 20 10" fill="none" xmlns="http://www.w3.org/2000/svg">
<g clip-path="url(#clip0_15_1610)">
<path d="M19.9752 2.17712C19.9301 2.07201 19.8306 2.00445 19.7209 2.00445C18.1881 2.00445 16.7018 1.40339 15.3903 0.873113C14.28 0.424124 13.2312 0 12.3074 0C11.7468 0 11.2731 0.151923 10.8594 0.464436C10.5318 0.71186 10.2481 1.05562 9.99998 1.50733C9.75187 1.05568 9.46816 0.712006 9.14058 0.464539C8.72678 0.151951 8.25312 0 7.69256 0C6.76873 0 5.72001 0.424094 4.60973 0.873083C3.29839 1.40339 1.81207 2.00445 0.279146 2.00445C0.169415 2.00445 0.0698726 2.072 0.0247213 2.17712C-0.0204159 2.28225 -0.00278806 2.40543 0.0697889 2.49191C0.650837 3.18439 1.07004 3.97037 1.51384 4.80254C2.1688 6.03056 2.84604 7.3004 4.08972 8.28C4.76181 8.80939 5.53217 9.2041 6.44478 9.48671C7.45875 9.80072 8.61968 9.9686 9.99392 9.99992L9.99998 10L10.006 9.99992C11.3803 9.96859 12.5412 9.80072 13.5552 9.48671C14.4678 9.2041 15.2381 8.80939 15.9102 8.28C17.1539 7.30042 17.8311 6.03056 18.4861 4.80254C18.9299 3.97037 19.3491 3.18439 19.9302 2.49191C20.0028 2.40543 20.0204 2.28225 19.9752 2.17712ZM4.81023 1.42078C5.87075 0.99191 6.87245 0.586814 7.69258 0.586814C8.62001 0.586814 9.25291 1.10802 9.74472 2.27682C9.78941 2.38304 9.88951 2.45154 10 2.45154C10.1105 2.45154 10.2106 2.38304 10.2553 2.27682C10.7471 1.10802 11.38 0.586814 12.3074 0.586814C13.1276 0.586814 14.1293 0.99191 15.1899 1.42079C16.3111 1.87419 17.5561 2.37751 18.8781 2.53863C18.639 2.69462 18.3401 2.8792 17.9877 3.07689C17.0754 3.58861 15.6071 4.29551 13.7926 4.75726C10.7431 5.53334 6.12975 5.74249 1.14792 2.53525C2.46036 2.37074 3.69637 1.8712 4.81023 1.42078ZM17.9992 4.51559C16.6904 6.96935 15.4544 9.28708 10 9.41313C4.5456 9.28708 3.30953 6.96935 2.00086 4.51559C1.79361 4.12704 1.5829 3.73229 1.35298 3.34591C3.3789 4.56975 5.48927 5.3499 7.64386 5.66955C8.39761 5.78136 8.98228 5.66955 9.74472 5.66955C11.0832 5.66955 12.6056 5.66509 13.9469 5.32175C15.8179 4.84286 17.3306 4.11221 18.2701 3.58359C18.3968 3.51234 18.5166 3.44286 18.6292 3.37582C18.4062 3.75265 18.2011 4.13706 17.9992 4.51559Z" fill="#4C4C4E"/>
</g>
<defs>
<clipPath id="clip0_15_1610">
<rect width="20" height="10" fill="white"/>
</clipPath>
</defs>
</svg>
