<svg width="18" height="8" viewBox="0 0 18 8" fill="none" xmlns="http://www.w3.org/2000/svg">
<path d="M17.9777 1.7417C17.9371 1.65761 17.8475 1.60356 17.7488 1.60356C16.3693 1.60356 15.0316 1.12271 13.8513 0.69849C12.852 0.339299 11.9081 0 11.0767 0C10.5721 0 10.1458 0.121538 9.77343 0.371549C9.47865 0.569488 9.2233 0.844497 8.99998 1.20586C8.77668 0.844544 8.52134 0.569605 8.22652 0.371631C7.8541 0.121561 7.42781 0 6.9233 0C6.09186 0 5.14801 0.339275 4.14876 0.698466C2.96855 1.12271 1.63086 1.60356 0.251231 1.60356C0.152473 1.60356 0.0628853 1.6576 0.0222492 1.7417C-0.0183743 1.8258 -0.00250924 1.92434 0.06281 1.99353C0.585753 2.54751 0.963034 3.1763 1.36246 3.84203C1.95192 4.82445 2.56144 5.84032 3.68075 6.624C4.28563 7.04751 4.97895 7.36328 5.8003 7.58937C6.71287 7.84058 7.75771 7.97488 8.99453 7.99994C8.99635 7.99998 8.99817 8 8.99998 8C9.00179 8 9.00361 7.99998 9.00543 7.99994C10.2423 7.97487 11.2871 7.84058 12.1997 7.58937C13.021 7.36328 13.7143 7.04751 14.3192 6.624C15.4385 5.84034 16.048 4.82445 16.6375 3.84203C17.0369 3.1763 17.4142 2.54751 17.9372 1.99353C18.0025 1.92434 18.0184 1.8258 17.9777 1.7417ZM4.32921 1.13662C5.28367 0.793528 6.1852 0.469451 6.92332 0.469451C7.75801 0.469451 8.32762 0.886418 8.77025 1.82146C8.81047 1.90643 8.90056 1.96123 9.00001 1.96123C9.09946 1.96123 9.18955 1.90643 9.22977 1.82146C9.67238 0.886418 10.242 0.469451 11.0767 0.469451C11.8148 0.469451 12.7164 0.793528 13.6709 1.13663C14.68 1.49935 15.8005 1.90201 16.9903 2.0309C16.7751 2.1557 16.5061 2.30336 16.1889 2.46151C15.3679 2.87089 14.0464 3.43641 12.4133 3.80581C9.66875 4.42667 5.51677 4.59399 1.03313 2.0282C2.21432 1.89659 3.32673 1.49696 4.32921 1.13662ZM16.1993 3.61247C15.0214 5.57548 13.909 7.42966 9.00001 7.5305C4.09104 7.42966 2.97858 5.57548 1.80077 3.61247C1.61425 3.30163 1.42461 2.98583 1.21768 2.67673C3.04101 3.6558 4.94034 4.27992 6.87947 4.53564C7.55785 4.62509 8.2412 4.66974 8.9274 4.66974C10.132 4.66974 11.345 4.53207 12.5522 4.2574C14.2361 3.87429 15.5975 3.28977 16.4431 2.86687C16.5571 2.80987 16.6649 2.75429 16.7663 2.70066C16.5656 3.00212 16.381 3.30965 16.1993 3.61247Z" fill="#6C8A96"/>
</svg>
