<svg width="14" height="16" viewBox="0 0 14 16" fill="none" xmlns="http://www.w3.org/2000/svg">
<g clip-path="url(#clip0_23_75)">
<mask id="mask0_23_75" style="mask-type:luminance" maskUnits="userSpaceOnUse" x="0" y="0" width="16" height="18">
<path d="M15.1667 0H0V17.3333H15.1667V0Z" fill="white"/>
</mask>
<g mask="url(#mask0_23_75)">
<path d="M12.9311 13.6173C9.52662 8.26483 11.0475 3.74114 11.1172 3.55121C11.187 3.34402 11.1172 3.11956 10.9498 3.03323C10.7824 2.9469 10.601 3.03323 10.5312 3.24042C10.4614 3.44762 8.78711 8.36841 12.4288 14.118C12.4847 14.2216 12.5823 14.2734 12.68 14.2734C12.7497 14.2734 12.8195 14.2389 12.8753 14.1871C13.0148 14.0489 13.0427 13.79 12.9311 13.6173Z" fill="#4C4C4E" fill-opacity="0.8"/>
<path d="M5.5083 10.0431C5.48042 9.55967 5.43855 9.23162 5.41066 8.98988C6.63849 8.79995 8.46635 7.74672 10.0151 5.2777C10.1267 5.10504 10.0988 4.86331 9.95932 4.72519C9.81975 4.58706 9.62444 4.62159 9.51284 4.79425C7.96404 7.26329 6.16411 8.19565 5.08972 8.24746C2.99678 8.33378 2.43867 4.12088 2.43867 4.06908C2.41076 3.86189 2.24333 3.70649 2.0759 3.74102C1.90846 3.77555 1.78288 3.98275 1.81079 4.18994C1.83869 4.39713 2.43867 8.97262 4.96416 9.02443C4.99204 9.21433 5.03392 9.52512 5.0758 10.0949C5.17343 11.5971 4.33626 12.3395 3.59677 12.5294C3.22003 12.6158 2.8154 12.7193 2.45262 12.823C1.89451 12.9783 1.40615 13.0992 1.19686 13.1337C1.07128 13.151 0.987563 13.2891 1.00152 13.4445C0.987563 13.5827 1.08523 13.6862 1.19686 13.6862H1.22476C1.44801 13.6517 1.95032 13.5136 2.52239 13.3755C2.88517 13.2891 3.27585 13.1855 3.66653 13.0819C4.65718 12.823 5.61994 11.7869 5.5083 10.0431ZM10.6289 14.6531C10.1825 14.6014 7.85235 15.2919 7.37793 15.4474C7.25237 15.4819 7.18258 15.6373 7.2105 15.7927C7.23841 15.9136 7.32213 15.9999 7.43376 15.9999H7.48956C8.53603 15.6891 10.2941 15.1884 10.5872 15.2229C10.7127 15.2402 10.8243 15.1193 10.8383 14.9639C10.8383 14.7912 10.7546 14.6531 10.6289 14.6531ZM5.53635 15.4473C5.18752 15.3092 3.45736 14.6013 2.99691 14.6531C2.87134 14.6703 2.77366 14.8084 2.78761 14.9638C2.80157 15.1193 2.91319 15.2401 3.03877 15.2228C3.30387 15.1883 4.57359 15.6545 5.39683 15.9825C5.42472 15.9998 5.43867 15.9998 5.46659 15.9998C5.56426 15.9998 5.64798 15.9308 5.67586 15.8099C5.71774 15.6545 5.64798 15.4818 5.53635 15.4473Z" fill="#4C4C4E" fill-opacity="0.8"/>
</g>
</g>
<defs>
<clipPath id="clip0_23_75">
<rect width="14" height="16" fill="white"/>
</clipPath>
</defs>
</svg>
