<svg width="16" height="18" viewBox="0 0 16 18" fill="none" xmlns="http://www.w3.org/2000/svg">
<g clip-path="url(#clip0_284_35)">
<path d="M15.9082 14.7009C11.3689 7.28977 13.3967 1.02619 13.4897 0.763218C13.5827 0.476334 13.4897 0.165548 13.2664 0.0460138C13.0432 -0.0735197 12.8014 0.0460143 12.7083 0.332896C12.6153 0.619776 10.3829 7.43319 15.2384 15.3941C15.3129 15.5376 15.4431 15.6093 15.5733 15.6093C15.6663 15.6093 15.7594 15.5615 15.8338 15.4898C16.0198 15.2985 16.057 14.94 15.9082 14.7009Z" fill="#69828C"/>
<path d="M6.01099 9.75217C5.97381 9.0828 5.91798 8.62857 5.8808 8.29386C7.51789 8.03088 9.95499 6.57256 12.02 3.15391C12.1688 2.91484 12.1316 2.58014 11.9456 2.38889C11.7595 2.19763 11.4991 2.24545 11.3503 2.48452C9.28526 5.90319 6.88539 7.19415 5.45288 7.26588C2.66234 7.3854 1.9182 1.55215 1.9182 1.48043C1.88099 1.19355 1.65775 0.97839 1.43451 1.0262C1.21126 1.07401 1.04383 1.3609 1.08104 1.64778C1.11824 1.93466 1.9182 8.26996 5.28547 8.34169C5.32265 8.60463 5.37848 9.03496 5.43432 9.8239C5.5645 11.9038 4.44829 12.9318 3.46231 13.1948C2.96 13.3143 2.4205 13.4577 1.9368 13.6012C1.19266 13.8163 0.541528 13.9837 0.262473 14.0315C0.0950396 14.0554 -0.0165824 14.2466 0.00202124 14.4618C-0.0165824 14.6531 0.113643 14.7965 0.262473 14.7965H0.29968C0.597339 14.7487 1.26707 14.5575 2.02982 14.3662C2.51352 14.2466 3.03442 14.1032 3.55532 13.9598C4.87617 13.6012 6.15983 12.1667 6.01099 9.75217ZM12.8384 16.1353C12.2431 16.0636 9.13634 17.0198 8.50379 17.235C8.33638 17.2828 8.24333 17.498 8.28055 17.7131C8.31777 17.8805 8.42939 18 8.57823 18H8.65263C10.0479 17.5697 12.392 16.8764 12.7827 16.9242C12.9501 16.9481 13.0989 16.7808 13.1175 16.5656C13.1175 16.3265 13.0059 16.1353 12.8384 16.1353ZM6.04838 17.2349C5.58328 17.0437 3.27643 16.0635 2.66251 16.1352C2.49508 16.1591 2.36485 16.3503 2.38345 16.5655C2.40206 16.7807 2.55089 16.948 2.71832 16.9241C3.07179 16.8763 4.76472 17.5218 5.86236 17.976C5.89954 17.9999 5.91815 17.9999 5.95537 17.9999C6.0856 17.9999 6.19722 17.9043 6.2344 17.7369C6.29023 17.5218 6.19722 17.2827 6.04838 17.2349Z" fill="#69828C"/>
</g>
<defs>
<clipPath id="clip0_284_35">
<rect width="16" height="18" fill="white"/>
</clipPath>
</defs>
</svg>
