<svg width="18" height="18" viewBox="0 0 18 18" fill="none" xmlns="http://www.w3.org/2000/svg">
<path d="M9 0C6.51937 0 4.26788 1.01007 2.63803 2.63973C1.01018 4.2694 0 6.51865 0 8.999C0 13.9617 4.03874 18 9 18C13.9633 18 18.002 13.9617 18 9.001C18.002 4.0383 13.9633 0 9 0ZM14.9396 14.9379C13.4173 16.46 11.3172 17.4023 9 17.4023C4.36551 17.4023 0.597742 13.633 0.595749 8.999C0.595749 4.36502 4.36551 0.597676 9 0.595683C13.6345 0.595683 17.4023 4.36502 17.4043 8.999C17.4043 11.316 16.4618 13.4158 14.9396 14.9379Z" fill="#69828C"/>
<path d="M12 9.625C12 11.4925 10.66 13 9 13C7.34 13 6 11.4925 6 9.625C6 6.7075 9 4 9 4C9 4 12 6.7075 12 9.625Z" fill="#6C8A96"/>
</svg>
