<svg width="18" height="10" viewBox="0 0 18 10" fill="none" xmlns="http://www.w3.org/2000/svg">
<g clip-path="url(#clip0_284_38)">
<path d="M5.25572 6.20538C5.30387 6.14078 5.36917 6.10449 5.43726 6.10449C5.50535 6.10449 5.57065 6.14078 5.6188 6.20538L6.59971 7.52155C6.64786 7.58616 6.67491 7.67378 6.67491 7.76514C6.67491 7.85651 6.64786 7.94413 6.59971 8.00874C6.55156 8.07334 6.48626 8.10963 6.41817 8.10963C6.35008 8.10963 6.28478 8.07334 6.23663 8.00874L5.69399 7.28062V9.65575C5.69399 9.74717 5.66694 9.83475 5.61879 9.89933C5.57064 9.96392 5.50535 10.0003 5.43726 10.0003C5.36917 10.0003 5.30387 9.96392 5.25572 9.89933C5.20758 9.83475 5.18052 9.74717 5.18052 9.65575V7.28062L4.63788 8.00874C4.5897 8.07314 4.52445 8.10926 4.45644 8.10918C4.38844 8.10908 4.32324 8.0728 4.27515 8.00828C4.22706 7.94375 4.20002 7.85626 4.19995 7.76501C4.19989 7.67376 4.22681 7.5862 4.27481 7.52155L5.25572 6.20538ZM8.96819 4.25713C9.01634 4.19254 9.08166 4.15625 9.14969 4.15625C9.21779 4.15625 9.28311 4.19254 9.33126 4.25713L10.3122 5.57331C10.3603 5.63792 10.3873 5.72554 10.3873 5.8169C10.3873 5.90827 10.3603 5.99589 10.3122 6.06049C10.264 6.1251 10.1987 6.16139 10.1306 6.16139C10.0625 6.16139 9.99726 6.1251 9.94911 6.06049L9.40641 5.33238V7.70753C9.40641 7.79889 9.37941 7.88651 9.33126 7.95111C9.28311 8.01572 9.21779 8.05201 9.14969 8.05201C9.08166 8.05201 9.01634 8.01572 8.96819 7.95111C8.92004 7.88651 8.89296 7.79889 8.89296 7.70753V5.33238L8.35034 6.06049C8.30219 6.1249 8.23694 6.16102 8.16891 6.16093C8.10089 6.16084 8.03571 6.12456 7.98764 6.06003C7.93949 5.99551 7.91249 5.90802 7.91241 5.81677C7.91234 5.72552 7.93926 5.63796 7.98726 5.57331L8.96819 4.25713ZM12.6805 6.20538C12.7287 6.14078 12.794 6.10449 12.8621 6.10449C12.9302 6.10449 12.9955 6.14078 13.0436 6.20538L14.0245 7.52155C14.0727 7.58616 14.0998 7.67378 14.0998 7.76514C14.0998 7.85651 14.0727 7.94413 14.0245 8.00874C13.9764 8.07334 13.9111 8.10963 13.843 8.10963C13.7749 8.10963 13.7096 8.07334 13.6615 8.00874L13.1188 7.28062V9.65575C13.1188 9.74717 13.0918 9.83475 13.0436 9.89933C12.9955 9.96392 12.9302 10.0003 12.8621 10.0003C12.794 10.0003 12.7287 9.96392 12.6805 9.89933C12.6324 9.83475 12.6054 9.74717 12.6054 9.65575V7.28062L12.0627 8.00874C12.0145 8.07314 11.9493 8.10926 11.8813 8.10918C11.8132 8.10908 11.7481 8.0728 11.7 8.00828C11.6519 7.94375 11.6248 7.85626 11.6248 7.76501C11.6247 7.67376 11.6516 7.5862 11.6996 7.52155L12.6805 6.20538Z" fill="#69828C"/>
<path d="M11.7436 1.88419C10.5062 0.910028 7.41246 0.450108 6.17498 1.55944C4.87741 2.72255 3.70003 4.15654 1.87903 4.15652C1.22508 4.15652 0.954891 4.18569 0.487305 4.15657V3.5692C1.04323 3.6002 1.56796 3.5072 1.84381 3.5072C3.39066 3.5072 4.56906 1.61589 6.17498 0.910253C7.22212 0.450148 8.15058 0.25953 8.9593 0.260748C9.76803 0.259531 10.98 0.593108 11.7436 0.910253C12.9811 1.42416 14.528 3.5692 16.0748 3.5692C16.4255 3.5692 16.6374 3.6002 17.1933 3.5692V4.15657C16.7256 4.18569 16.6935 4.15649 16.0748 4.15649C14.4075 4.15652 13.2905 2.85791 11.7436 1.88419Z" fill="#69828C"/>
<path d="M11.8627 3.8188C10.9347 2.70948 7.53163 2.38472 6.29413 3.49404C4.99655 4.65717 3.81917 6.09115 1.99817 6.09113C1.34422 6.09113 1.07403 6.12029 0.606445 6.09118V5.50381C1.16237 5.53482 1.68709 5.44182 1.96296 5.44182C3.5098 5.44182 4.81858 3.8188 6.29413 2.84487C7.25507 2.21059 8.26978 2.19414 9.07843 2.19536C9.88716 2.19414 11.0867 2.66517 11.7437 3.18229C12.9812 4.15623 14.6471 5.50381 16.1939 5.50381C16.5446 5.50381 16.7565 5.53482 17.3124 5.50381V6.09118C16.8448 6.12029 16.8127 6.09109 16.1939 6.0911C14.5266 6.09113 12.8855 5.04149 11.8627 3.8188Z" fill="#69828C"/>
</g>
<defs>
<clipPath id="clip0_284_38">
<rect width="18" height="10" fill="white"/>
</clipPath>
</defs>
</svg>
