<svg width="24" height="22" viewBox="0 0 24 22" fill="none" xmlns="http://www.w3.org/2000/svg">
<path d="M1 9.88892C3.4697 9.88892 4.90482 8.22224 7.28571 8.22224C10.5963 8.22224 13.4439 9.88892 17.2963 9.88892C21.1487 9.88892 23 8.7778 23 8.7778" stroke="#4C4C4E" stroke-width="0.75" stroke-miterlimit="10" stroke-linecap="round" stroke-linejoin="round"/>
<path d="M1 12.1112C3.4697 12.1112 4.90482 13.7778 7.28571 13.7778C10.5963 13.7778 13.4439 12.1112 17.2963 12.1112C21.1487 12.1112 23 13.2223 23 13.2223" stroke="#4C4C4E" stroke-width="0.75" stroke-miterlimit="10" stroke-linecap="round" stroke-linejoin="round"/>
<path d="M15.9287 17.6667L17.5001 19.8889L19.15 17.6667" stroke="#4C4C4E" stroke-width="0.75" stroke-miterlimit="10" stroke-linecap="round" stroke-linejoin="round"/>
<path d="M5.3999 4.33331L6.97133 6.55554L8.62122 4.33331" stroke="#4C4C4E" stroke-width="0.75" stroke-miterlimit="10" stroke-linecap="round" stroke-linejoin="round"/>
<path d="M19.1499 4.35278L17.4998 2.12073L15.8632 4.3529" stroke="#4C4C4E" stroke-width="0.75" stroke-miterlimit="10" stroke-linecap="round" stroke-linejoin="round"/>
<path d="M8.69995 17.6864L7.04989 15.4544L5.4132 17.6865" stroke="#4C4C4E" stroke-width="0.75" stroke-miterlimit="10" stroke-linecap="round" stroke-linejoin="round"/>
<path d="M17.5 18.7778V14.3334" stroke="#4C4C4E" stroke-width="0.75" stroke-miterlimit="10" stroke-linecap="round" stroke-linejoin="round"/>
<path d="M6.97119 5.44446L6.97119 0.999996" stroke="#4C4C4E" stroke-width="0.75" stroke-miterlimit="10" stroke-linecap="round" stroke-linejoin="round"/>
<path d="M17.5688 3.22192L17.5952 7.66629" stroke="#4C4C4E" stroke-width="0.75" stroke-miterlimit="10" stroke-linecap="round" stroke-linejoin="round"/>
<path d="M7.11865 16.5557L7.14499 21" stroke="#4C4C4E" stroke-width="0.75" stroke-miterlimit="10" stroke-linecap="round" stroke-linejoin="round"/>
</svg>
