<svg width="25" height="30" viewBox="0 0 25 30" fill="none" xmlns="http://www.w3.org/2000/svg">
<path d="M5 20C3.516 20 3 19.104 3 18C3 19.104 2.484 20 1 20C2.484 20 3 20.895 3 22C3 20.895 3.516 20 5 20Z" fill="#4C4C4E" stroke="#4C4C4E" stroke-width="0.6" stroke-miterlimit="10" stroke-linejoin="round"/>
<path d="M21.9521 22.9546C20.4681 22.9546 19.9521 22.0586 19.9521 20.9546C19.9521 22.0586 19.4361 22.9546 17.9521 22.9546C19.4361 22.9546 19.9521 23.8496 19.9521 24.9546C19.9521 23.8496 20.4681 22.9546 21.9521 22.9546Z" fill="#4C4C4E" stroke="#4C4C4E" stroke-width="0.6" stroke-miterlimit="10" stroke-linejoin="round"/>
<path d="M8 22.5C6.887 22.5 6.5 21.828 6.5 21C6.5 21.828 6.113 22.5 5 22.5C6.113 22.5 6.5 23.1713 6.5 24C6.5 23.1713 6.887 22.5 8 22.5Z" fill="#4C4C4E" stroke="#4C4C4E" stroke-width="0.6" stroke-miterlimit="10" stroke-linejoin="round"/>
<path d="M24 19.5C22.887 19.5 22.5 18.828 22.5 18C22.5 18.828 22.113 19.5 21 19.5C22.113 19.5 22.5 20.1713 22.5 21C22.5 20.1713 22.887 19.5 24 19.5Z" fill="#4C4C4E" stroke="#4C4C4E" stroke-width="0.6" stroke-miterlimit="10" stroke-linejoin="round"/>
<path d="M3 16.21C3 14.8837 3 12.5052 3 10.9191C3 6.66807 6.249 1 13 1C19.751 1 23 6.66807 23 10.9191C23 13.2194 23 15.2486 23 17" stroke="#4C4C4E" stroke-width="0.75" stroke-miterlimit="10" stroke-linecap="round" stroke-linejoin="round"/>
<path d="M3 27.0796C3 27.0796 3 24.7644 3 23.2388" stroke="#4C4C4E" stroke-width="0.75" stroke-miterlimit="10" stroke-linecap="round" stroke-linejoin="round"/>
<path d="M23 27.0796C23 27.0796 23 24.7644 23 23.2388" stroke="#4C4C4E" stroke-width="0.75" stroke-miterlimit="10" stroke-linecap="round" stroke-linejoin="round"/>
<path d="M6 10.7562C7.686 8.39469 10.267 6.91543 13 6.91543C15.733 6.91543 18.314 8.39469 20 10.7562" stroke="#4C4C4E" stroke-width="0.75" stroke-miterlimit="10" stroke-linecap="round" stroke-linejoin="round"/>
<path d="M19.8824 16.8374C19.8824 18.161 17.6991 23.2388 13 23.2388C8.302 23.2388 6.11765 18.161 6.11765 16.8374C6.11765 16.8374 4 16.0683 4 13.883C4 12.713 4.864 12.4058 5.58824 12.4058V9.57637C5.58824 8.66344 5.90483 7.78106 6.49777 7.05229C8.01824 5.18015 9.81294 4.03481 13 4.03481C15.5867 4.03481 17.9818 5.18015 19.5022 7.05229C20.0952 7.78106 20.4118 8.66344 20.4118 9.57637V12.4058C21.136 12.4058 22 12.713 22 13.883C22 16.0683 19.8824 16.8374 19.8824 16.8374Z" stroke="#4C4C4E" stroke-width="0.75" stroke-miterlimit="10" stroke-linecap="round" stroke-linejoin="round"/>
<path d="M16 23.2388C16 25.3375 17.5478 29 23 29" stroke="#4C4C4E" stroke-width="0.75" stroke-miterlimit="10" stroke-linecap="round" stroke-linejoin="round"/>
<path d="M10 23.2388C10 25.5281 8.4533 29 3 29" stroke="#4C4C4E" stroke-width="0.75" stroke-miterlimit="10" stroke-linecap="round" stroke-linejoin="round"/>
<path d="M14.0309 4.03493C15.2232 4.26662 16.0058 4.841 16 5.48103C15.9922 6.11912 15.198 6.6906 14 6.91553" stroke="#4C4C4E" stroke-width="0.75" stroke-miterlimit="10" stroke-linecap="round" stroke-linejoin="round"/>
<path d="M11 19.1867C12.152 20.4415 13.858 20.4315 15 19.1607" stroke="#4C4C4E" stroke-width="0.75" stroke-miterlimit="10" stroke-linecap="round" stroke-linejoin="round"/>
<path d="M11.0002 13.9125C10.6252 14.3956 9.87524 14.8798 9.50024 14.8726C9.12524 14.8654 8.37524 14.3967 8.00024 13.9125" stroke="#4C4C4E" stroke-width="0.75" stroke-miterlimit="10" stroke-linecap="round" stroke-linejoin="round"/>
<path d="M18 13.9125C17.625 14.3956 16.875 14.8798 16.5 14.8726C16.125 14.8654 15.375 14.3967 15 13.9125" stroke="#4C4C4E" stroke-width="0.75" stroke-miterlimit="10" stroke-linecap="round" stroke-linejoin="round"/>
<path d="M8.00024 11.032C8.98021 10.618 10.1097 10.7143 11.0002 11.032" stroke="#4C4C4E" stroke-width="0.75" stroke-miterlimit="10" stroke-linecap="round" stroke-linejoin="round"/>
<path d="M15 11.032C15.98 10.618 17.1095 10.7143 18 11.032" stroke="#4C4C4E" stroke-width="0.75" stroke-miterlimit="10" stroke-linecap="round" stroke-linejoin="round"/>
</svg>
