<svg width="16" height="18" viewBox="0 0 16 18" fill="none" xmlns="http://www.w3.org/2000/svg">
<g clip-path="url(#clip0_284_42)">
<path d="M2.60289 6.74676V6.44597C2.44844 5.13659 2.66132 3.43204 3.57172 2.28202C4.40295 1.22046 7.25496 0.536272 8.15638 0.536272L8.19976 0.00585938C5.88419 0.129708 4.14255 0.855108 3.17278 2.11128C2.18321 3.38516 2.04468 4.94211 2.04468 6.44597V6.74676H2.60289ZM4.50724 13.6984C3.63642 12.6722 3.22255 11.5884 3.00484 10.3322V9.93778L2.55236 10.0315L2.61174 10.3322C2.84924 11.6238 3.06694 12.8446 4.05651 14.0124C4.37316 14.3839 4.90753 14.8793 5.60022 15.4632C5.62001 15.7639 5.63981 16.6839 5.60022 17.6216L6.58979 17.6571C6.60961 17.1085 6.60961 16.5778 6.60961 16.1531C7.10438 16.4008 7.63872 16.5778 8.21268 16.6486V16.1531C7.3933 16.1531 6.8445 15.9055 6.3101 15.4632C5.51846 15.1621 4.8239 14.0877 4.50724 13.6984ZM9.89558 12.4729C10.0143 12.4375 10.1727 12.3845 10.2914 12.2606C10.4497 12.1014 10.5091 11.9244 10.5487 11.8183C10.5487 11.8006 10.5685 11.7829 10.5685 11.7652C10.6279 11.7121 10.707 11.6768 10.7862 11.6414C10.8852 11.606 10.9841 11.5529 11.0633 11.4467L11.1028 11.3937C11.182 11.2167 11.1622 11.0575 11.1425 10.8983C11.1425 10.8098 11.1227 10.739 11.1425 10.686C11.1425 10.6683 11.2018 10.5975 11.2216 10.5621C11.3008 10.4382 11.3998 10.2967 11.4393 10.1021C11.4591 9.92518 11.4195 9.76598 11.3799 9.64209C11.3601 9.60671 11.3601 9.53595 11.3404 9.50057C11.3601 9.48288 11.3601 9.48288 11.3799 9.46519C11.4591 9.37668 11.558 9.25285 11.5977 9.07596C11.6174 8.899 11.558 8.75748 11.5185 8.65128C11.5185 8.65128 11.5185 8.63359 11.4987 8.63359L11.5185 8.6159C11.5977 8.52745 11.7164 8.40363 11.7362 8.24436C11.7758 8.04977 11.7362 7.87281 11.6966 7.73129C11.6768 7.66054 11.657 7.58978 11.657 7.55434C11.657 7.51896 11.6966 7.4482 11.7362 7.37744C11.7956 7.25361 11.8945 7.09434 11.8945 6.89976C11.8945 6.7228 11.8351 6.5459 11.7758 6.42201C11.7362 6.35125 11.7164 6.2628 11.7164 6.22743C11.7164 6.17434 11.7362 6.10357 11.7758 6.0151C11.8351 5.89125 11.8747 5.73202 11.8747 5.57278C11.855 5.34278 11.7362 5.16585 11.657 5.042C11.6372 5.00662 11.5977 4.97124 11.5977 4.95354C11.5779 4.84738 11.5779 4.74123 11.5779 4.65277C11.5779 4.49353 11.5779 4.31661 11.4393 4.17507C11.3008 4.01583 11.0831 3.99814 10.9247 3.98044C10.8456 3.98044 10.7664 3.96275 10.707 3.94506C10.6873 3.90967 10.6873 3.89198 10.6675 3.89198C10.5685 3.80351 10.4102 3.66198 10.1529 3.62659C9.95496 3.59121 9.79662 3.64428 9.67791 3.69736C9.63828 3.71505 9.57896 3.73275 9.57896 3.73275L9.49976 4.49353C9.69767 4.51122 9.85601 4.45814 9.97478 4.40507C9.99453 4.40507 9.99453 4.40507 10.0143 4.38737C10.0342 4.40507 10.0539 4.42276 10.0737 4.44045C10.1529 4.51122 10.2518 4.582 10.3904 4.63507C10.5091 4.67046 10.6081 4.68815 10.707 4.70584C10.707 4.812 10.7268 4.95354 10.7466 5.09508C10.7862 5.21893 10.8456 5.32509 10.9049 5.43124C10.9643 5.50201 11.0039 5.59047 11.0039 5.62586C11.0039 5.64356 10.9841 5.71433 10.9643 5.7674C10.9247 5.89125 10.8456 6.05049 10.8654 6.24511C10.8654 6.42201 10.9247 6.58128 10.9841 6.70511C11.0039 6.75818 11.0435 6.84669 11.0435 6.88207C11.0435 6.91745 11.0039 7.00589 10.9643 7.05896C10.9049 7.1651 10.8258 7.30668 10.806 7.48358C10.7862 7.64285 10.8258 7.78436 10.8456 7.92588C10.8654 7.9967 10.8852 8.06746 10.8852 8.10284C10.8654 8.12053 10.8654 8.13822 10.8456 8.15591C10.7664 8.24436 10.6476 8.36825 10.6279 8.54514C10.5883 8.7221 10.6675 8.86362 10.707 8.96976C10.707 8.96976 10.707 8.98745 10.7268 8.98745L10.707 9.00514C10.6279 9.09365 10.5289 9.21747 10.4894 9.39437C10.4695 9.57133 10.5091 9.73054 10.5487 9.85443C10.5685 9.90749 10.5883 9.97825 10.5883 10.0136C10.5883 10.049 10.5289 10.1198 10.4894 10.1729C10.4102 10.279 10.331 10.4029 10.2914 10.5621C10.2518 10.739 10.2716 10.8806 10.2914 11.0044V11.0221C10.1727 11.0752 10.0342 11.1636 9.89558 11.3052C9.79662 11.4114 9.75705 11.5529 9.71748 11.6414C9.69767 11.6768 9.69767 11.7298 9.67791 11.7475C9.6581 11.7475 9.63828 11.7652 9.61853 11.7652C9.49976 11.8006 9.32167 11.8537 9.16333 11.9952L9.75705 12.5437C9.79662 12.5083 9.85601 12.4906 9.89558 12.4729Z" fill="#69828C"/>
<path d="M10.2323 14.2774C10.2521 14.2597 10.2719 14.2066 10.2916 14.1889C10.3312 14.1889 10.3906 14.1712 10.45 14.1712C10.6083 14.1712 10.826 14.1535 11.0041 14.0297C11.2219 13.8881 11.301 13.6581 11.3604 13.5166C11.3802 13.4812 11.3802 13.4458 11.4 13.4281C11.4396 13.3928 11.5385 13.3397 11.6375 13.2866C11.8156 13.1981 12.0531 13.0743 12.2114 12.8796C12.3697 12.6851 12.3896 12.455 12.4291 12.2604C12.4489 12.1542 12.4687 12.0481 12.4885 11.995C12.5281 11.9243 12.627 11.8358 12.726 11.765C12.8843 11.6412 13.0624 11.4819 13.1416 11.2696C13.2406 11.0396 13.201 10.8096 13.1614 10.5973C13.1416 10.4912 13.1218 10.3673 13.1416 10.2965C13.1614 10.2258 13.2208 10.1196 13.3 10.0134C13.4187 9.85422 13.5374 9.65957 13.577 9.4296C13.6166 9.21727 13.5572 9.00499 13.5176 8.82803C13.478 8.7042 13.4583 8.58038 13.478 8.50955C13.478 8.45649 13.5572 8.36804 13.6166 8.29728C13.7156 8.1557 13.8541 7.9788 13.8739 7.76647C13.8937 7.5365 13.8145 7.34185 13.7552 7.18264C13.7156 7.11182 13.676 7.00569 13.676 6.95262C13.676 6.91724 13.7353 6.8111 13.7749 6.75803C13.8541 6.59876 13.9728 6.40418 13.9531 6.17414C13.9531 5.90875 13.8343 5.66105 13.7353 5.46644C13.676 5.34259 13.6166 5.23643 13.6166 5.16566C13.5968 5.05951 13.6166 4.91796 13.6562 4.77642C13.6958 4.56411 13.7353 4.31641 13.6562 4.06871C13.5374 3.75025 13.3 3.55563 13.0822 3.3787C12.9833 3.30793 12.9041 3.23716 12.8645 3.18408C12.8052 3.11331 12.7458 3.02485 12.7062 2.95408C12.5676 2.72407 12.3896 2.44099 12.0333 2.28175C11.7562 2.15791 11.4593 2.15791 11.202 2.15791C11.0437 2.15791 10.9052 2.15791 10.7864 2.14021C10.6875 2.12252 10.5688 2.06944 10.45 1.99868C10.2323 1.89252 9.97503 1.76867 9.65836 1.75098L9.59897 2.52945C9.7375 2.52945 9.87602 2.61792 10.0542 2.68868C10.2323 2.77715 10.4104 2.84792 10.6083 2.901C10.826 2.93638 11.0437 2.93638 11.2219 2.93638C11.4 2.93638 11.5583 2.93638 11.6375 2.97177C11.7562 3.02485 11.8552 3.18408 11.9541 3.34331C12.0135 3.44947 12.0927 3.57332 12.1916 3.67948C12.2906 3.80332 12.4093 3.89179 12.5281 3.98025C12.6666 4.1041 12.8052 4.21025 12.8448 4.31641C12.8645 4.38718 12.8448 4.52872 12.8249 4.67027C12.7854 4.84719 12.7656 5.04181 12.7854 5.25412C12.8052 5.44874 12.9041 5.62567 12.9833 5.78491C13.0624 5.92644 13.1218 6.06798 13.1218 6.19184C13.1218 6.24491 13.0624 6.33335 13.0228 6.42186C12.9437 6.56338 12.8448 6.74028 12.8448 6.93493C12.8448 7.12958 12.9041 7.32416 12.9833 7.46568C13.0228 7.5365 13.0624 7.64264 13.0624 7.67802C13.0624 7.7134 12.9833 7.80184 12.9437 7.87266C12.8448 7.99649 12.726 8.17339 12.6864 8.36804C12.6468 8.59807 12.7062 8.81034 12.7458 8.9873C12.7854 9.11113 12.8052 9.21727 12.8052 9.30578C12.7854 9.37653 12.726 9.48267 12.6468 9.58881C12.5479 9.74808 12.4291 9.90729 12.3896 10.1196C12.35 10.3142 12.3697 10.5089 12.3896 10.6858C12.4093 10.8096 12.4291 10.9335 12.4093 11.0042C12.3896 11.0396 12.2906 11.1281 12.2114 11.1989C12.0729 11.3227 11.9145 11.4465 11.8156 11.6412C11.7166 11.8181 11.6968 11.995 11.6572 12.1542C11.6375 12.2604 11.6177 12.3843 11.5781 12.4373C11.5385 12.4904 11.4198 12.5435 11.301 12.6143C11.1427 12.6851 10.9646 12.7912 10.8458 12.915C10.7073 13.0389 10.6677 13.1804 10.6083 13.3043C10.5885 13.3397 10.5885 13.3928 10.5688 13.4105H10.4698C10.3115 13.4105 10.0937 13.4281 9.87602 13.552C9.69793 13.6581 9.61879 13.8174 9.53959 13.9412C9.51983 13.9943 9.4802 14.0474 9.46045 14.0651L9.89583 14.7374C10.0344 14.5959 10.1531 14.4012 10.2323 14.2774Z" fill="#69828C"/>
<path d="M15.5361 7.04166C15.5361 6.98859 15.6153 6.88245 15.6548 6.79401C15.7538 6.61705 15.8924 6.40477 15.8924 6.13935C15.8924 5.82089 15.7538 5.53781 15.6153 5.27242C15.5361 5.09549 15.4372 4.91856 15.4174 4.75933C15.3975 4.61779 15.4174 4.44086 15.4372 4.26393C15.4767 3.96316 15.5163 3.627 15.3778 3.30853C15.2393 2.95467 14.9423 2.72467 14.6653 2.51236C14.5268 2.38851 14.3882 2.28236 14.2892 2.1762C14.1903 2.05235 14.0913 1.91081 13.9924 1.76927C13.7747 1.4508 13.5372 1.07926 13.1215 0.849246C12.7455 0.654629 12.2903 0.619243 11.8945 0.601551C11.6768 0.583858 11.4789 0.583858 11.3007 0.53078C11.1028 0.495395 10.9049 0.406932 10.707 0.318468C10.3706 0.176927 9.99452 0.0176927 9.57896 0L9.53932 0.778475C9.77686 0.796171 10.0539 0.902328 10.331 1.02617C10.5685 1.13233 10.8258 1.23849 11.1028 1.29156C11.3601 1.34464 11.6174 1.36233 11.8747 1.38003C12.1914 1.39772 12.5081 1.41541 12.706 1.52157C12.9236 1.64542 13.1018 1.89312 13.2799 2.1585C13.3788 2.31774 13.4976 2.49466 13.6361 2.6539C13.7747 2.83083 13.9528 2.95467 14.131 3.09622C14.3486 3.25545 14.5268 3.41469 14.6059 3.59161C14.6653 3.75085 14.6455 3.96316 14.6257 4.21086C14.6059 4.44086 14.5663 4.67086 14.6059 4.90087C14.6455 5.16626 14.7642 5.37857 14.8632 5.60858C14.9622 5.82089 15.0611 6.01551 15.0611 6.17474C15.0611 6.22781 14.982 6.35164 14.9226 6.44015C14.8236 6.59936 14.7049 6.79401 14.6851 7.02397C14.6455 7.254 14.7444 7.44859 14.8434 7.62554C14.883 7.71399 14.9423 7.83788 14.9423 7.89095C14.9423 7.92633 14.8434 8.05016 14.7841 8.12092C14.6653 8.2625 14.507 8.45708 14.4674 8.68711C14.408 8.9879 14.4674 9.27093 14.5268 9.53634C14.5663 9.74868 14.6059 9.94326 14.5861 10.1025C14.5663 10.2794 14.4476 10.4564 14.3289 10.651C14.1903 10.8633 14.0716 11.0933 13.9924 11.341C13.933 11.571 13.933 11.801 13.9528 12.031C13.9528 12.261 13.9726 12.491 13.8934 12.6503C13.8737 12.7033 13.6955 12.7918 13.5767 12.8626C13.3788 12.9864 13.1414 13.128 12.9434 13.3226C12.7851 13.4995 12.706 13.7118 12.6268 13.9064C12.5476 14.0834 12.4882 14.2426 12.3893 14.3487C12.3102 14.4196 12.132 14.4903 11.9539 14.5434C11.7164 14.6318 11.4591 14.7203 11.2414 14.8972C11.0633 15.0388 11.0039 15.2334 10.9446 15.3749C10.9247 15.4103 10.9049 15.4811 10.8852 15.5165C10.8455 15.5165 10.7664 15.4988 10.707 15.4988C10.5289 15.4811 10.3112 15.4457 10.0935 15.5342C9.87582 15.6049 9.73723 15.7642 9.61852 15.8704C9.57896 15.9234 9.49976 15.9942 9.49976 15.9942L9.63828 16.755C9.9352 16.7019 10.1133 16.5249 10.2518 16.3834C10.2914 16.3303 10.3706 16.2596 10.3904 16.2596C10.43 16.2596 10.5289 16.2596 10.6081 16.2773C10.8258 16.295 11.1028 16.3303 11.3601 16.1888C11.3601 16.6488 11.3601 17.1973 11.3799 17.675L12.3695 17.6396C12.3299 16.755 12.3497 15.658 12.3695 15.2157C12.5872 15.1273 12.8247 15.0388 13.0028 14.8619C13.2403 14.6495 13.3393 14.3841 13.4382 14.1541C13.4976 14.0126 13.557 13.871 13.6164 13.8003C13.7351 13.6765 13.8934 13.588 14.0518 13.4818C14.2892 13.3403 14.5465 13.1987 14.6653 12.9511C14.8434 12.6326 14.8236 12.2964 14.8236 11.9779C14.8236 11.7833 14.8038 11.6241 14.8434 11.4648C14.883 11.3056 14.982 11.1464 15.0809 10.9694C15.2194 10.7217 15.3975 10.4564 15.4372 10.1556C15.4767 9.8725 15.4174 9.58941 15.358 9.34175C15.3184 9.12941 15.259 8.93483 15.2986 8.77556C15.3184 8.72249 15.3975 8.61635 15.4767 8.52784C15.6153 8.36863 15.7736 8.17399 15.7934 7.92633C15.833 7.67861 15.7142 7.44859 15.6153 7.27169C15.5757 7.21862 15.5163 7.09473 15.5361 7.04166Z" fill="#69828C"/>
<path d="M7.40197 9.71295L8.01545 10.2615L10.1134 8.38604L8.01545 6.52832L7.40197 7.07676L8.47065 8.03219H0V8.79297H8.43108L7.40197 9.71295Z" fill="#69828C"/>
</g>
<defs>
<clipPath id="clip0_284_42">
<rect width="16" height="18" fill="white"/>
</clipPath>
</defs>
</svg>
