<svg width="22" height="30" viewBox="0 0 22 30" fill="none" xmlns="http://www.w3.org/2000/svg">
<path d="M1 18.5356C1 17.0435 1 13.9434 1 12.159C1 7.37658 4.249 1 11 1C17.751 1 21 7.37658 21 12.159C21 14.7468 21 17.0296 21 19" stroke="#4C4C4E" stroke-width="0.6" stroke-miterlimit="10" stroke-linecap="round" stroke-linejoin="round"/>
<path d="M1 27C1 27 1 20.972 1 17" stroke="#4C4C4E" stroke-width="0.6" stroke-miterlimit="10" stroke-linecap="round" stroke-linejoin="round"/>
<path d="M21 27C21 27 21 21.5748 21 18" stroke="#4C4C4E" stroke-width="0.6" stroke-miterlimit="10" stroke-linecap="round" stroke-linejoin="round"/>
<path d="M3.99976 10C5.68576 8.15543 8.26676 7 10.9998 7C13.7328 7 16.3138 8.15543 17.9998 10" stroke="#4C4C4E" stroke-width="0.6" stroke-miterlimit="10" stroke-linecap="round" stroke-linejoin="round"/>
<path d="M17.8824 16.6667C17.8824 17.9762 15.6991 23 11 23C6.302 23 4.11765 17.9762 4.11765 16.6667C4.11765 16.6667 2 15.9057 2 13.7436C2 12.5861 2.864 12.2821 3.58824 12.2821V9.48271C3.58824 8.57948 3.90483 7.70646 4.49777 6.98544C6.01824 5.13318 7.81294 4 11 4C13.5867 4 15.9818 5.13318 17.5022 6.98544C18.0952 7.70646 18.4118 8.57948 18.4118 9.48271V12.2821C19.136 12.2821 20 12.5861 20 13.7436C20 15.9057 17.8824 16.6667 17.8824 16.6667Z" stroke="#4C4C4E" stroke-width="0.6" stroke-miterlimit="10" stroke-linecap="round" stroke-linejoin="round"/>
<path d="M15 22C15 24.5499 16.3267 29 21 29" stroke="#4C4C4E" stroke-width="0.6" stroke-miterlimit="10" stroke-linecap="round" stroke-linejoin="round"/>
<path d="M7 22C7 24.5499 5.67426 29 1 29" stroke="#4C4C4E" stroke-width="0.6" stroke-miterlimit="10" stroke-linecap="round" stroke-linejoin="round"/>
<path d="M9 14C8.625 14.5031 7.875 15.0074 7.5 14.9999C7.125 14.9924 6.375 14.5043 6 14" stroke="#4C4C4E" stroke-width="0.6" stroke-miterlimit="10" stroke-linecap="round" stroke-linejoin="round"/>
<path d="M16 14C15.625 14.5031 14.875 15.0074 14.5 14.9999C14.125 14.9924 13.375 14.5043 13 14" stroke="#4C4C4E" stroke-width="0.6" stroke-miterlimit="10" stroke-linecap="round" stroke-linejoin="round"/>
<path d="M6 11.287C6.97997 10.8558 8.1095 10.9561 9 11.287" stroke="#4C4C4E" stroke-width="0.6" stroke-miterlimit="10" stroke-linecap="round" stroke-linejoin="round"/>
<path d="M13 11.287C13.98 10.8558 15.1095 10.9561 16 11.287" stroke="#4C4C4E" stroke-width="0.6" stroke-miterlimit="10" stroke-linecap="round" stroke-linejoin="round"/>
<path d="M13.0002 4.5C13.0002 4.74129 13.0002 4.83948 13.0002 5.50604C13.0002 6.17058 13.0002 6.76575 13.0002 7" stroke="#4C4C4E" stroke-width="0.6" stroke-miterlimit="10" stroke-linecap="round" stroke-linejoin="round"/>
<ellipse cx="6.91459" cy="17.1504" rx="2.60535" ry="1.41153" transform="rotate(18.0809 6.91459 17.1504)" fill="#4C4C4E"/>
<ellipse cx="8.74854" cy="9.5" rx="0.689439" ry="0.300884" transform="rotate(18.0809 8.74854 9.5)" fill="#4C4C4E"/>
<ellipse cx="12.7485" cy="9.5" rx="0.689439" ry="0.300884" transform="rotate(18.0809 12.7485 9.5)" fill="#4C4C4E"/>
<ellipse cx="10.7485" cy="9.5" rx="0.689439" ry="0.300884" transform="rotate(18.0809 10.7485 9.5)" fill="#4C4C4E"/>
<ellipse cx="15.2313" cy="17.1848" rx="2.605" ry="1.41153" transform="rotate(-18.08 15.2313 17.1848)" fill="#4C4C4E"/>
</svg>
