<svg width="13" height="18" viewBox="0 0 13 18" fill="none" xmlns="http://www.w3.org/2000/svg">
<path d="M13 5.944V2.756C13 2.604 12.9178 2.472 12.7993 2.404C11.0729 0.826 8.82853 0.028 6.58029 0.01C6.55353 0.00400004 6.52676 0 6.5 0C6.47132 0 6.44647 0.00400004 6.41971 0.01C4.16956 0.028 1.92706 0.826 0.200735 2.404C0.080294 2.472 0 2.604 0 2.756V5.944C0 8.702 1.12985 11.23 3.02632 12.884C2.91926 14.142 2.48721 16.07 0.919559 17.278C0.787647 17.38 0.732206 17.562 0.783824 17.726C0.835441 17.89 0.980735 18 1.14706 18H11.8529C12.0174 18 12.1646 17.89 12.2162 17.726C12.2678 17.562 12.2124 17.38 12.0804 17.278C10.5128 16.07 10.0807 14.142 9.97368 12.884C11.8701 11.23 13 8.702 13 5.944ZM10.8531 17.2H2.145C3.18309 16.026 3.59221 14.576 3.74324 13.438C3.95735 13.586 4.17721 13.728 4.40662 13.856C5.06235 14.218 5.78118 14.4 6.5 14.4C7.21882 14.4 7.93765 14.218 8.59338 13.856C8.82279 13.728 9.04265 13.586 9.25676 13.438C9.40779 14.576 9.815 16.026 10.8531 17.2ZM8.385 13.058C8.07891 13.2375 7.46472 13.5 7.30222 13.5C7.09001 13.5 8.27137 13.5 7.78679 13.5L7.64706 13.408C6.90147 13.662 6.10951 13.754 5.36392 13.5C5.36392 13.5 4.91767 13.2 4.615 13.058C3.42562 12.5 1.6457 10.1851 1.03776 8.37513C1.03776 8.09104 1.03776 8.37513 1.03776 8.09104C0.928465 8.09104 1.03776 8.01211 1.03776 8.09104L1.00368 8C0.848824 7.34 0.764706 6.65 0.764706 5.944V2.952C2.26544 1.606 4.17912 0.892 6.11765 0.81L4 0.5C4 0.722 6.28779 1 6.5 1C6.71029 1 9 0.722 9 0.5L6.88235 0.81C8.82088 0.892 10.7346 1.606 12.2353 2.952V5.944C12.2353 6.65 12.1512 7.34 11.9963 8V8.02002C11.9621 8.09104 11.9621 8.09104 11.9621 8.37513C11.9621 8.37513 11.8507 8.56048 11.7726 8.792C11.1628 10.602 9.9775 12.124 8.385 13.058Z" fill="#69828C"/>
<path d="M10.2401 5.62229C9.95526 5.93029 9.57864 6.10029 9.17717 6.10029C8.7757 6.10029 8.39908 5.93029 8.11423 5.62229C7.96702 5.46429 7.72423 5.46029 7.5732 5.61229C7.42026 5.76629 7.41644 6.02029 7.56364 6.17829C7.99379 6.64429 8.56732 6.90029 9.17717 6.90029C9.78702 6.90029 10.3606 6.64429 10.7907 6.17829C10.936 6.02029 10.9322 5.76629 10.7811 5.61229C10.6282 5.46029 10.3873 5.46429 10.2401 5.62229Z" fill="#69828C"/>
<path d="M4.88709 5.62229C4.60223 5.93029 4.22561 6.10029 3.82414 6.10029C3.42267 6.10029 3.04606 5.93029 2.7612 5.62229C2.614 5.46429 2.3712 5.46029 2.22017 5.61229C2.06723 5.76629 2.06341 6.02029 2.21061 6.17829C2.64076 6.64429 3.21429 6.90029 3.82414 6.90029C4.434 6.90029 5.00753 6.64429 5.43767 6.17829C5.58297 6.02029 5.57914 5.76629 5.42811 5.61229C5.27517 5.46029 5.03429 5.46429 4.88709 5.62229Z" fill="#69828C"/>
<path d="M2.24138 7.32C2.24138 7.144 2.10172 7 1.93103 7H1.31034C1.13966 7 1 7.144 1 7.32C1 7.496 1.13966 7.64 1.31034 7.64H1.93103C2.10172 7.64 2.24138 7.496 2.24138 7.32Z" fill="#69828C"/>
<path d="M9.24138 11.32C9.24138 11.144 9.10172 11 8.93103 11H8.31034C8.13966 11 8 11.144 8 11.32C8 11.496 8.13966 11.64 8.31034 11.64H8.93103C9.10172 11.64 9.24138 11.496 9.24138 11.32Z" fill="#69828C"/>
<path d="M5.24138 2.32C5.24138 2.144 5.10172 2 4.93103 2H4.31034C4.13966 2 4 2.144 4 2.32C4 2.496 4.13966 2.64 4.31034 2.64H4.93103C5.10172 2.64 5.24138 2.496 5.24138 2.32Z" fill="#69828C"/>
<path d="M9.24138 3.32C9.24138 3.144 9.10172 3 8.93103 3H8.31034C8.13966 3 8 3.144 8 3.32C8 3.496 8.13966 3.64 8.31034 3.64H8.93103C9.10172 3.64 9.24138 3.496 9.24138 3.32Z" fill="#69828C"/>
<ellipse cx="3" cy="9.5" rx="2" ry="1.5" fill="#69828C"/>
<ellipse cx="10" cy="9.5" rx="2" ry="1.5" fill="#69828C"/>
</svg>
