<svg width="19" height="19" viewBox="0 0 19 19" fill="none" xmlns="http://www.w3.org/2000/svg">
<path d="M9.6001 0.799805C4.58667 0.799805 0.600098 4.81519 0.600098 9.7998C0.600098 14.7844 4.64708 18.7998 9.6001 18.7998C14.6135 18.7998 18.6001 14.7844 18.6001 9.7998C18.6001 4.81519 14.6135 0.799805 9.6001 0.799805ZM5.85513 5.36904C6.33835 5.36904 6.70077 5.64596 6.70077 6.06134C6.70077 6.4075 6.33835 6.75365 5.85513 6.75365C5.37191 6.75365 5.00949 6.47673 5.00949 6.06134C5.00949 5.71519 5.37191 5.36904 5.85513 5.36904ZM3.31822 10.2844C3.31822 9.93827 3.68063 9.59211 4.16386 9.59211C4.64708 9.59211 5.00949 9.86904 5.00949 10.2844C5.00949 10.6306 4.64708 10.9767 4.16386 10.9767C3.68063 10.9767 3.31822 10.6306 3.31822 10.2844ZM5.43231 13.9537C4.94909 13.9537 4.58667 13.6767 4.58667 13.2613C4.58667 12.9152 4.94909 12.569 5.43231 12.569C5.91553 12.569 6.27795 12.846 6.27795 13.2613C6.27795 13.6075 5.85513 13.9537 5.43231 13.9537ZM6.39876 9.17673C6.39876 8.83057 6.76117 8.48442 7.24439 8.48442C7.72761 8.48442 8.09003 8.76134 8.09003 9.17673C8.09003 9.52288 7.72761 9.86904 7.24439 9.86904C6.76117 9.86904 6.39876 9.59211 6.39876 9.17673ZM8.75446 13.5383C8.27124 13.5383 7.90882 13.2613 7.90882 12.846C7.90882 12.4998 8.27124 12.1537 8.75446 12.1537C9.23768 12.1537 9.6001 12.4306 9.6001 12.846C9.6001 13.2613 9.23768 13.5383 8.75446 13.5383ZM9.29808 6.26904C8.81486 6.26904 8.45245 5.99211 8.45245 5.57673C8.45245 5.23057 8.81486 4.88442 9.29808 4.88442C9.7813 4.88442 10.1437 5.16134 10.1437 5.57673C10.1437 5.92288 9.7209 6.26904 9.29808 6.26904ZM11.1706 15.4767C10.6873 15.4767 10.3249 15.1998 10.3249 14.7844C10.3249 14.4383 10.6873 14.0921 11.1706 14.0921C11.6538 14.0921 12.0162 14.369 12.0162 14.7844C12.0162 15.1306 11.6538 15.4767 11.1706 15.4767ZM11.1706 10.6998C10.6873 10.6998 10.3249 10.4229 10.3249 10.0075C10.3249 9.66134 10.6873 9.31519 11.1706 9.31519C11.6538 9.31519 12.0162 9.59211 12.0162 10.0075C12.0162 10.4229 11.6538 10.6998 11.1706 10.6998ZM12.439 6.96134C12.439 6.61519 12.8014 6.26904 13.2847 6.26904C13.7679 6.26904 14.1303 6.54596 14.1303 6.96134C14.1303 7.37673 13.7679 7.65365 13.2847 7.65365C12.8014 7.65365 12.439 7.3075 12.439 6.96134ZM14.1303 13.3998C13.6471 13.3998 13.2847 13.1229 13.2847 12.7075C13.2847 12.3613 13.6471 12.0152 14.1303 12.0152C14.6135 12.0152 14.9759 12.2921 14.9759 12.7075C14.9759 13.0537 14.6135 13.3998 14.1303 13.3998ZM15.8216 10.4229C15.3384 10.4229 14.9759 10.146 14.9759 9.73057C14.9759 9.38442 15.3384 9.03827 15.8216 9.03827C16.3048 9.03827 16.6672 9.31519 16.6672 9.73057C16.6672 10.146 16.3048 10.4229 15.8216 10.4229Z" fill="#69828C"/>
</svg>
