<svg width="16" height="18" viewBox="0 0 16 18" fill="none" xmlns="http://www.w3.org/2000/svg">
<g clip-path="url(#clip0_284_51)">
<path d="M0.208617 4.56437e-08C3.28535 0.02565 6.97822 1.458 9.74115 3.86847C11.1226 5.07366 12.2727 6.53058 12.986 8.18811C13.6669 9.77049 13.9424 11.5429 13.631 13.4268C14.2742 14.5798 15.3339 16.9239 16 18C15.1134 17.1893 13.9821 14.821 13.4327 13.7369C11.5057 13.7828 8.19002 12.2269 5.38208 9.6921C2.53428 7.12125 0.0846838 3.70377 8.38304e-05 0.27576C-0.00331617 0.13293 0.0971505 -8.99544e-05 0.208617 4.56437e-08ZM0.449684 0.5598C0.623084 3.03462 2.22295 5.84604 4.26362 8.05266C5.66728 8.72613 6.72048 8.11998 7.56448 7.84557C7.93122 8.05257 6.23508 8.69967 4.76795 8.69931C5.13475 9.17325 5.13475 9.17325 5.86828 9.64701C8.51308 11.3548 11.5227 13.3051 13.2857 13.4268C11.7676 9.77562 8.80242 7.27857 3.66768 3.48903C8.43562 6.33123 11.138 8.58213 13.2857 12.7334C13.4394 11.1993 13.1901 9.76941 12.6211 8.44713C11.9498 6.88725 10.8481 5.48163 9.50655 4.31127C8.55415 3.48039 6.84982 2.46744 5.73062 1.89477C5.89908 2.35161 6.83095 3.01509 6.46422 3.48876C6.09742 3.31578 6.09742 2.84211 5.50155 2.36844C4.90568 1.89477 2.15422 0.61425 0.449684 0.5598Z" fill="#69828C"/>
</g>
<defs>
<clipPath id="clip0_284_51">
<rect width="16" height="18" fill="white"/>
</clipPath>
</defs>
</svg>
