<svg xmlns="http://www.w3.org/2000/svg" width="28" height="13" fill="none">
  <path fill="#69828C" d="M27.9776 5.73344c-.0375-.11242-.1499-.18737-.2998-.22485-.7869-.03747-2.5482-1.19915-4.2345-2.36082C21.1574 1.61136 18.8341 0 17.2602 0c-1.2741 0-2.0985.749469-2.6606 1.2741-.2249.18736-.4872.44968-.5996.44968s-.4122-.26232-.5996-.44968C12.8009.749469 12.0139 0 10.7398 0 9.2034 0 6.84258 1.57388 4.5567 3.14777 2.87039 4.27197 1.14661 5.47112.322199 5.50859c-.149894 0-.2623136.07495-.299787.22485-.0374734.11242-.0374735.26231.0749468.37473.0374732.03747 1.2741012 1.2741 4.0096612 1.2741 1.16167 0 2.06103-.26232 2.9604-.52463.78694-.22484 1.53641-.44968 2.36082-.44968.48716 0 .93686.07494 1.46146.14989.7495.11242 1.6488.29979 3.1103.29979s2.3983-.1499 3.1103-.29979c.5246-.07495.9368-.14989 1.4615-.14989.8244 0 1.5738.22484 2.3608.44968.8993.26231 1.7987.52463 2.9604.52463 2.773 0 3.9722-1.23663 4.0096-1.2741.1125-.11242.1125-.26231.075-.37473Zm-4.0846.9743c-1.0493 0-1.9486-.26231-2.773-.52462-.787-.22484-1.6114-.48716-2.5482-.48716-.5621 0-1.0118.07495-1.5739.18737-.7495.11242-1.6114.26231-2.9979.26231s-2.2484-.14989-2.9979-.26231c-.5246-.07495-1.01176-.18737-1.57386-.18737-.93683 0-1.76125.26232-2.54819.48716-.82442.26231-1.72378.52462-2.77303.52462-1.46147 0-2.43578-.37473-2.99788-.71199.97431-.37474 2.32335-1.2741 3.78482-2.28588C6.99247 2.28588 9.35329.711996 10.7023.711996c1.0118 0 1.6863.599574 2.211 1.086734.3747.33726.6745.63704 1.0492.63704.3748 0 .6745-.26231 1.0493-.63704.5246-.48716 1.1991-1.086734 2.2109-1.086734 1.3491 0 3.7099 1.611354 5.8084 2.997874 1.4989 1.01178 2.8105 1.91114 3.7848 2.28588-.4871.29979-1.4614.71199-2.9229.71199Zm1.9112 1.01204c-.0375.03748-2.773 2.32332-4.7591 2.99792-2.2484.7494-6.2581.7869-7.045.7869-.787 0-4.79662-.0375-7.04502-.7869-1.9861-.6746-4.72166-2.96044-4.75913-2.99792-.14989-.11242-.37473-.11242-.48715.03748-.11242.14989-.11242.33726.03747.48715.11242.11242 2.88545 2.39829 4.98397 3.11029 2.28587.7869 6.14566.8244 7.26986.8244s4.9839-.0749 7.2698-.8244c2.0985-.712 4.8716-2.99787 4.984-3.11029.1499-.11242.1499-.33726.0375-.48715-.1125-.1499-.3373-.1499-.4872-.03748Z"/>
</svg>
